<?xml version="1.0" encoding="utf-8"?>
<svg viewBox="41.491 48.45 514.419 458.876" xmlns="http://www.w3.org/2000/svg" xmlns:bx="https://boxy-svg.com">
  <defs>
    <style bx:fonts="Roboto">@import url(https://fonts.googleapis.com/css2?family=Roboto%3Aital%2Cwght%400%2C100%3B0%2C300%3B0%2C400%3B0%2C500%3B0%2C700%3B0%2C900%3B1%2C100%3B1%2C300%3B1%2C400%3B1%2C500%3B1%2C700%3B1%2C900&amp;display=swap);</style>
  </defs>
  <text style="fill: rgb(66, 152, 181); font-family: Roboto; font-size: 23.9023px; font-weight: 900; stroke-width: 2.27063px; text-anchor: middle; white-space: pre; vector-effect: non-scaling-stroke;" transform="matrix(1.07029, 0, 0, 1.25511, -126.667328, -55.859161)" x="373.574" y="270.706">o melhor preço</text>
  <rect x="251.326" y="107.086" width="169.912" height="164.191" style="fill: rgb(66, 152, 181);" transform="matrix(1, 0, -0.370185, 1, 35.45435, -23.284807)" rx="15.153" ry="15.153"/>
  <text style="fill: rgb(255, 94, 0); font-family: Roboto; font-size: 73.5px; font-weight: 900; paint-order: stroke; stroke: rgb(255, 255, 255); stroke-width: 5px; white-space: pre;" transform="matrix(1, 0, 0, 0.996558, 0, 0.28828)" x="68.225" y="207.827">cota</text>
  <text style="fill: rgb(51, 51, 51); font-family: Roboto; font-size: 73.9px; font-weight: 900; white-space: pre;" x="-6.952" y="-12.369" transform="matrix(1, 0, 0, 0.996558, 0, 0.28828)"><tspan x="217.782" y="207.827" style="fill: rgb(255, 255, 255); font-size: 73.5px; word-spacing: 0px;">AÇO</tspan></text>
  <text style="fill: rgb(255, 94, 0); font-family: Roboto; font-size: 73.5px; font-weight: 900; paint-order: stroke; stroke: rgb(255, 255, 255); stroke-width: 5px; white-space: pre;" transform="matrix(1, 0, 0, 0.996558, 0, 0.28828)" x="363.213" y="207.827">.com</text>
  <rect x="161.64" y="398.17" width="39.701" height="39.701" style="fill: rgb(255, 94, 0);" rx="9.76" ry="9.76"/>
  <rect x="389.547" y="398.17" width="39.701" height="39.701" style="fill: rgb(66, 152, 181);" rx="9.76" ry="9.76"/>
  <text style="fill: rgb(255, 94, 0); font-family: Arial, sans-serif; font-size: 12px; text-anchor: middle; white-space: pre;" transform="matrix(1, 0, 0, 1, 65.582497, 97.111931)"><tspan x="115.232" y="361.437">Pantone Bright Orange C</tspan><tspan x="115.23200225830078" dy="1em">​</tspan><tspan>Hex #FF5E00</tspan><tspan x="115.23200225830078" dy="1em">​</tspan><tspan>RGB (255,94,0)</tspan></text>
  <text style="fill: rgb(66, 152, 181); font-family: Arial, sans-serif; font-size: 12px; text-anchor: middle; white-space: pre;" transform="matrix(1, 0, 0, 1, 296.798859, 102.401039)"><tspan x="115.232" y="361.437">Pantone 7459C</tspan><tspan x="115.23200225830078" dy="1em">​</tspan><tspan>Hex #4298B5</tspan><tspan x="115.23200225830078" dy="1em">​</tspan><tspan>RGB (51,51,51)</tspan></text>
  <text style="fill: rgb(51, 51, 51); font-family: Roboto; font-size: 12px; white-space: pre;" x="207.726" y="344.329">Fonte ROBOTO 900 Ultra Bold</text>
</svg>