<?xml version="1.0" encoding="utf-8"?>
<svg viewBox="68.225 83.801 459.957 206.518" xmlns="http://www.w3.org/2000/svg">
  <path d="M 293.963 264.275 Q 293.963 262.42 294.698 260.931 Q 295.434 259.443 296.764 258.644 Q 298.095 257.845 299.822 257.845 Q 302.378 257.845 303.971 259.49 Q 305.564 261.136 305.693 263.855 L 305.704 264.52 Q 305.704 266.388 304.986 267.858 Q 304.269 269.329 302.932 270.134 Q 301.596 270.939 299.845 270.939 Q 297.173 270.939 295.568 269.16 Q 293.963 267.38 293.963 264.415 Z M 296.799 264.52 Q 296.799 266.469 297.605 267.572 Q 298.41 268.675 299.845 268.675 Q 301.281 268.675 302.08 267.555 Q 302.88 266.434 302.88 264.275 Q 302.88 262.361 302.057 261.241 Q 301.234 260.12 299.822 260.12 Q 298.433 260.12 297.616 261.223 Q 296.799 262.326 296.799 264.52 Z" transform="matrix(1.07029, 0, 0, 1.25511, -126.921692, -56.840504)" style="fill: rgb(34, 126, 162); stroke-width: 2.27063px; white-space: pre; vector-effect: non-scaling-stroke;"/>
  <path d="M 316.706 258.078 L 316.788 259.397 Q 318.119 257.845 320.43 257.845 Q 322.962 257.845 323.896 259.782 Q 325.273 257.845 327.771 257.845 Q 329.86 257.845 330.881 259 Q 331.902 260.155 331.926 262.408 L 331.926 270.706 L 329.089 270.706 L 329.089 262.49 Q 329.089 261.287 328.564 260.727 Q 328.039 260.167 326.825 260.167 Q 325.857 260.167 325.244 260.686 Q 324.631 261.206 324.386 262.046 L 324.398 270.706 L 321.562 270.706 L 321.562 262.396 Q 321.503 260.167 319.286 260.167 Q 317.582 260.167 316.87 261.556 L 316.87 270.706 L 314.034 270.706 L 314.034 258.078 Z" transform="matrix(1.07029, 0, 0, 1.25511, -126.921692, -56.840504)" style="fill: rgb(34, 126, 162); stroke-width: 2.27063px; white-space: pre; vector-effect: non-scaling-stroke;"/>
  <path d="M 340.392 270.939 Q 337.696 270.939 336.021 269.241 Q 334.347 267.543 334.347 264.719 L 334.347 264.369 Q 334.347 262.478 335.076 260.99 Q 335.806 259.502 337.124 258.673 Q 338.443 257.845 340.065 257.845 Q 342.645 257.845 344.051 259.49 Q 345.457 261.136 345.457 264.147 L 345.457 265.291 L 337.206 265.291 Q 337.334 266.855 338.251 267.765 Q 339.167 268.675 340.556 268.675 Q 342.505 268.675 343.73 267.1 L 345.259 268.559 Q 344.5 269.691 343.234 270.315 Q 341.968 270.939 340.392 270.939 Z M 340.054 260.12 Q 338.887 260.12 338.169 260.937 Q 337.451 261.754 337.253 263.213 L 342.656 263.213 L 342.656 263.003 Q 342.563 261.579 341.898 260.85 Q 341.233 260.12 340.054 260.12 Z" transform="matrix(1.07029, 0, 0, 1.25511, -126.921692, -56.840504)" style="fill: rgb(34, 126, 162); stroke-width: 2.27063px; white-space: pre; vector-effect: non-scaling-stroke;"/>
  <path d="M 350.668 270.706 L 347.832 270.706 L 347.832 252.779 L 350.668 252.779 Z" transform="matrix(1.07029, 0, 0, 1.25511, -126.921692, -56.840504)" style="fill: rgb(34, 126, 162); stroke-width: 2.27063px; white-space: pre; vector-effect: non-scaling-stroke;"/>
  <path d="M 356.555 259.455 Q 357.944 257.845 360.068 257.845 Q 364.107 257.845 364.165 262.455 L 364.165 270.706 L 361.329 270.706 L 361.329 262.56 Q 361.329 261.252 360.763 260.71 Q 360.197 260.167 359.1 260.167 Q 357.396 260.167 356.555 261.684 L 356.555 270.706 L 353.719 270.706 L 353.719 252.779 L 356.555 252.779 Z" transform="matrix(1.07029, 0, 0, 1.25511, -126.921692, -56.840504)" style="fill: rgb(34, 126, 162); stroke-width: 2.27063px; white-space: pre; vector-effect: non-scaling-stroke;"/>
  <path d="M 366.492 264.275 Q 366.492 262.42 367.227 260.931 Q 367.962 259.443 369.293 258.644 Q 370.623 257.845 372.35 257.845 Q 374.906 257.845 376.5 259.49 Q 378.093 261.136 378.221 263.855 L 378.233 264.52 Q 378.233 266.388 377.515 267.858 Q 376.797 269.329 375.461 270.134 Q 374.124 270.939 372.374 270.939 Q 369.701 270.939 368.096 269.16 Q 366.492 267.38 366.492 264.415 Z M 369.328 264.52 Q 369.328 266.469 370.133 267.572 Q 370.938 268.675 372.374 268.675 Q 373.809 268.675 374.609 267.555 Q 375.408 266.434 375.408 264.275 Q 375.408 262.361 374.585 261.241 Q 373.763 260.12 372.35 260.12 Q 370.962 260.12 370.145 261.223 Q 369.328 262.326 369.328 264.52 Z" transform="matrix(1.07029, 0, 0, 1.25511, -126.921692, -56.840504)" style="fill: rgb(34, 126, 162); stroke-width: 2.27063px; white-space: pre; vector-effect: non-scaling-stroke;"/>
  <path d="M 387.245 260.669 Q 386.685 260.576 386.09 260.576 Q 384.141 260.576 383.464 262.069 L 383.464 270.706 L 380.628 270.706 L 380.628 258.078 L 383.335 258.078 L 383.405 259.49 Q 384.432 257.845 386.253 257.845 Q 386.86 257.845 387.257 258.008 Z" transform="matrix(1.07029, 0, 0, 1.25511, -126.921692, -56.840504)" style="fill: rgb(34, 126, 162); stroke-width: 2.27063px; white-space: pre; vector-effect: non-scaling-stroke;"/>
  <path d="M 406.039 264.52 Q 406.039 267.45 404.709 269.195 Q 403.378 270.939 401.138 270.939 Q 399.06 270.939 397.811 269.574 L 397.811 275.561 L 394.975 275.561 L 394.975 258.078 L 397.59 258.078 L 397.706 259.362 Q 398.955 257.845 401.103 257.845 Q 403.413 257.845 404.726 259.566 Q 406.039 261.287 406.039 264.345 Z M 403.215 264.275 Q 403.215 262.385 402.462 261.276 Q 401.709 260.167 400.309 260.167 Q 398.57 260.167 397.811 261.603 L 397.811 267.205 Q 398.582 268.675 400.332 268.675 Q 401.686 268.675 402.451 267.584 Q 403.215 266.493 403.215 264.275 Z" transform="matrix(1.07029, 0, 0, 1.25511, -126.921692, -56.840504)" style="fill: rgb(34, 126, 162); stroke-width: 2.27063px; white-space: pre; vector-effect: non-scaling-stroke;"/>
  <path d="M 415.043 260.669 Q 414.483 260.576 413.887 260.576 Q 411.938 260.576 411.261 262.069 L 411.261 270.706 L 408.425 270.706 L 408.425 258.078 L 411.133 258.078 L 411.203 259.49 Q 412.23 257.845 414.051 257.845 Q 414.658 257.845 415.054 258.008 Z" transform="matrix(1.07029, 0, 0, 1.25511, -126.921692, -56.840504)" style="fill: rgb(34, 126, 162); stroke-width: 2.27063px; white-space: pre; vector-effect: non-scaling-stroke;"/>
  <path d="M 422.178 270.939 Q 419.482 270.939 417.807 269.241 Q 416.132 267.543 416.132 264.719 L 416.132 264.369 Q 416.132 262.478 416.861 260.99 Q 417.591 259.502 418.91 258.673 Q 420.229 257.845 421.851 257.845 Q 424.43 257.845 425.836 259.49 Q 427.243 261.136 427.243 264.147 L 427.243 265.291 L 418.991 265.291 Q 419.12 266.855 420.036 267.765 Q 420.952 268.675 422.341 268.675 Q 424.29 268.675 425.516 267.1 L 427.044 268.559 Q 426.286 269.691 425.019 270.315 Q 423.753 270.939 422.178 270.939 Z M 421.839 260.12 Q 420.672 260.12 419.954 260.937 Q 419.236 261.754 419.038 263.213 L 424.442 263.213 L 424.442 263.003 Q 424.348 261.579 423.683 260.85 Q 423.018 260.12 421.839 260.12 Z" transform="matrix(1.07029, 0, 0, 1.25511, -126.921692, -56.840504)" style="fill: rgb(34, 126, 162); stroke-width: 2.27063px; white-space: pre; vector-effect: non-scaling-stroke;"/>
  <path d="M 434.625 268.675 Q 435.687 268.675 436.387 268.057 Q 437.087 267.438 437.134 266.528 L 439.806 266.528 Q 439.76 267.707 439.071 268.728 Q 438.383 269.749 437.204 270.344 Q 436.025 270.939 434.66 270.939 Q 432.01 270.939 430.458 269.224 Q 428.906 267.508 428.906 264.485 L 428.906 264.194 Q 428.906 261.311 430.446 259.578 Q 431.987 257.845 434.648 257.845 Q 436.9 257.845 438.318 259.157 Q 439.736 260.47 439.806 262.606 L 437.134 262.606 Q 437.087 261.521 436.393 260.821 Q 435.698 260.12 434.625 260.12 Q 433.247 260.12 432.5 261.118 Q 431.753 262.116 431.742 264.147 L 431.742 264.602 Q 431.742 266.656 432.483 267.666 Q 433.224 268.675 434.625 268.675 Z M 435.395 270.729 L 435.266 271.36 Q 437.017 271.675 437.017 273.379 Q 437.017 274.604 436.013 275.293 Q 435.01 275.981 433.201 275.981 L 433.119 274.382 Q 433.889 274.382 434.304 274.108 Q 434.718 273.834 434.718 273.344 Q 434.718 272.818 434.304 272.614 Q 433.889 272.41 432.956 272.352 L 433.329 270.729 Z" transform="matrix(1.07029, 0, 0, 1.25511, -126.921692, -56.840504)" style="fill: rgb(34, 126, 162); stroke-width: 2.27063px; white-space: pre; vector-effect: non-scaling-stroke;"/>
  <path d="M 441.405 264.275 Q 441.405 262.42 442.14 260.931 Q 442.875 259.443 444.206 258.644 Q 445.536 257.845 447.263 257.845 Q 449.819 257.845 451.413 259.49 Q 453.006 261.136 453.134 263.855 L 453.146 264.52 Q 453.146 266.388 452.428 267.858 Q 451.71 269.329 450.374 270.134 Q 449.037 270.939 447.287 270.939 Q 444.614 270.939 443.009 269.16 Q 441.405 267.38 441.405 264.415 Z M 444.241 264.52 Q 444.241 266.469 445.046 267.572 Q 445.851 268.675 447.287 268.675 Q 448.722 268.675 449.522 267.555 Q 450.321 266.434 450.321 264.275 Q 450.321 262.361 449.498 261.241 Q 448.676 260.12 447.263 260.12 Q 445.875 260.12 445.058 261.223 Q 444.241 262.326 444.241 264.52 Z" transform="matrix(1.07029, 0, 0, 1.25511, -126.921692, -56.840504)" style="fill: rgb(34, 126, 162); stroke-width: 2.27063px; white-space: pre; vector-effect: non-scaling-stroke;"/>
  <rect x="251.326" y="107.086" width="169.912" height="164.191" style="fill: rgb(34, 126, 162);" transform="matrix(1, 0, -0.370185, 1, 35.45435, -23.284807)" rx="15.153" ry="15.153"/>
  <path d="M 88.036 199.214 Q 90.584 199.214 91.983 197.832 Q 93.383 196.45 93.347 193.974 L 104.688 193.974 Q 104.688 200.362 100.112 204.453 Q 95.536 208.545 88.323 208.545 Q 79.853 208.545 74.972 203.233 Q 70.091 197.922 70.091 188.519 L 70.091 188.016 Q 70.091 182.131 72.262 177.627 Q 74.434 173.123 78.525 170.7 Q 82.616 168.278 88.215 168.278 Q 95.787 168.278 100.238 172.477 Q 104.688 176.676 104.688 183.853 L 93.347 183.853 Q 93.347 180.839 91.876 179.224 Q 90.404 177.609 87.928 177.609 Q 83.226 177.609 82.437 183.602 Q 82.186 185.504 82.186 188.842 Q 82.186 194.692 83.585 196.953 Q 84.985 199.214 88.036 199.214 Z" transform="matrix(1, 0, 0, 0.996558, 0, 0.28828)" style="fill: rgb(255, 123, 0); paint-order: stroke; stroke: rgb(255, 255, 255); stroke-width: 5px; white-space: pre;"/>
  <path d="M 108.267 188.052 Q 108.267 182.238 110.528 177.698 Q 112.789 173.159 117.023 170.718 Q 121.258 168.278 126.965 168.278 Q 135.686 168.278 140.71 173.679 Q 145.734 179.08 145.734 188.375 L 145.734 188.806 Q 145.734 197.886 140.692 203.215 Q 135.65 208.545 127.036 208.545 Q 118.746 208.545 113.722 203.574 Q 108.697 198.604 108.303 190.098 Z M 120.361 188.806 Q 120.361 194.189 122.048 196.702 Q 123.735 199.214 127.036 199.214 Q 133.496 199.214 133.64 189.273 L 133.64 188.052 Q 133.64 177.609 126.965 177.609 Q 120.899 177.609 120.397 186.617 Z" transform="matrix(1, 0, 0, 0.996558, 0, 0.28828)" style="fill: rgb(255, 123, 0); paint-order: stroke; stroke: rgb(255, 255, 255); stroke-width: 5px; white-space: pre;"/>
  <path d="M 165.153 159.341 L 165.153 168.995 L 171.541 168.995 L 171.541 177.393 L 165.153 177.393 L 165.153 195.158 Q 165.153 197.348 165.942 198.209 Q 166.732 199.07 169.065 199.07 Q 170.859 199.07 172.079 198.855 L 172.079 207.504 Q 168.813 208.545 165.26 208.545 Q 159.016 208.545 156.037 205.602 Q 153.058 202.659 153.058 196.666 L 153.058 177.393 L 148.106 177.393 L 148.106 168.995 L 153.058 168.995 L 153.058 159.341 Z" transform="matrix(1, 0, 0, 0.996558, 0, 0.28828)" style="fill: rgb(255, 123, 0); paint-order: stroke; stroke: rgb(255, 255, 255); stroke-width: 5px; white-space: pre;"/>
  <path d="M 198.172 207.827 Q 197.526 206.643 197.023 204.346 Q 193.686 208.545 187.692 208.545 Q 182.201 208.545 178.361 205.225 Q 174.521 201.905 174.521 196.881 Q 174.521 190.565 179.187 187.335 Q 183.852 184.105 192.753 184.105 L 196.485 184.105 L 196.485 182.059 Q 196.485 176.712 191.855 176.712 Q 187.549 176.712 187.549 180.946 L 175.454 180.946 Q 175.454 175.312 180.245 171.795 Q 185.037 168.278 192.466 168.278 Q 199.894 168.278 204.201 171.902 Q 208.508 175.527 208.615 181.844 L 208.615 199.034 Q 208.687 204.382 210.266 207.217 L 210.266 207.827 Z M 190.599 199.931 Q 192.86 199.931 194.35 198.962 Q 195.839 197.993 196.485 196.773 L 196.485 190.565 L 192.968 190.565 Q 186.652 190.565 186.652 196.235 Q 186.652 197.886 187.764 198.909 Q 188.877 199.931 190.599 199.931 Z" transform="matrix(1, 0, 0, 0.996558, 0, 0.28828)" style="fill: rgb(255, 123, 0); paint-order: stroke; stroke: rgb(255, 255, 255); stroke-width: 5px; white-space: pre;"/>
  <path d="M 251.41 198.065 L 234.147 198.065 L 231.133 207.827 L 217.674 207.827 L 236.839 155.573 L 248.682 155.573 L 267.99 207.827 L 254.46 207.827 Z M 237.162 188.339 L 248.395 188.339 L 242.761 170.216 Z" transform="matrix(1, 0, 0, 0.996558, 0, 0.28828)" style="fill: rgb(255, 255, 255); white-space: pre;"/>
  <path d="M 313.311 190.134 Q 313.06 195.589 310.368 199.77 Q 307.676 203.951 302.813 206.248 Q 297.95 208.545 291.706 208.545 Q 281.406 208.545 275.484 201.834 Q 269.562 195.122 269.562 182.884 L 269.562 180.3 Q 269.562 172.62 272.236 166.86 Q 274.91 161.1 279.934 157.96 Q 284.959 154.819 291.562 154.819 Q 301.073 154.819 306.851 159.826 Q 312.629 164.832 313.418 173.625 L 300.857 173.625 Q 300.714 168.852 298.453 166.77 Q 296.192 164.689 291.562 164.689 Q 286.861 164.689 284.672 168.206 Q 282.482 171.723 282.375 179.439 L 282.375 183.136 Q 282.375 191.498 284.474 195.087 Q 286.574 198.675 291.706 198.675 Q 296.048 198.675 298.345 196.63 Q 300.642 194.584 300.786 190.134 Z M 296.443 207.468 L 296.084 209.657 Q 301.467 210.662 301.467 215.866 Q 301.467 220.029 297.914 222.398 Q 294.362 224.766 288.045 224.766 L 287.794 218.091 Q 290.952 218.091 290.952 215.328 Q 290.952 213.964 289.822 213.426 Q 288.691 212.887 286.143 212.708 L 287.256 207.468 Z" transform="matrix(1, 0, 0, 0.996558, 0, 0.28828)" style="fill: rgb(255, 255, 255); white-space: pre;"/>
  <path d="M 363.509 182.777 Q 363.509 190.421 360.673 196.307 Q 357.838 202.192 352.616 205.369 Q 347.395 208.545 340.719 208.545 Q 334.044 208.545 328.876 205.476 Q 323.708 202.408 320.819 196.702 Q 317.93 190.995 317.787 183.602 L 317.787 180.659 Q 317.787 172.979 320.604 167.111 Q 323.421 161.243 328.679 158.049 Q 333.936 154.855 340.648 154.855 Q 347.287 154.855 352.491 158.014 Q 357.695 161.172 360.584 167.004 Q 363.473 172.836 363.509 180.372 Z M 350.696 180.587 Q 350.696 172.8 348.095 168.762 Q 345.493 164.725 340.648 164.725 Q 331.173 164.725 330.635 178.937 L 330.599 182.777 Q 330.599 190.457 333.147 194.584 Q 335.695 198.711 340.719 198.711 Q 345.493 198.711 348.077 194.656 Q 350.661 190.6 350.696 182.992 Z" transform="matrix(1, 0, 0, 0.996558, 0, 0.28828)" style="fill: rgb(255, 255, 255); white-space: pre;"/>
  <path d="M 374.087 196.091 Q 376.958 196.091 378.86 197.796 Q 380.763 199.501 380.763 202.157 Q 380.763 204.812 378.86 206.517 Q 376.958 208.222 374.087 208.222 Q 371.18 208.222 369.296 206.499 Q 367.412 204.776 367.412 202.157 Q 367.412 199.537 369.296 197.814 Q 371.18 196.091 374.087 196.091 Z" transform="matrix(1, 0, 0, 0.996558, 0, 0.28828)" style="fill: rgb(255, 123, 0); paint-order: stroke; stroke: rgb(255, 255, 255); stroke-width: 5px; white-space: pre;"/>
  <path d="M 405.234 199.214 Q 407.782 199.214 409.182 197.832 Q 410.581 196.45 410.545 193.974 L 421.886 193.974 Q 421.886 200.362 417.31 204.453 Q 412.735 208.545 405.521 208.545 Q 397.051 208.545 392.17 203.233 Q 387.29 197.922 387.29 188.519 L 387.29 188.016 Q 387.29 182.131 389.461 177.627 Q 391.632 173.123 395.723 170.7 Q 399.815 168.278 405.413 168.278 Q 412.986 168.278 417.436 172.477 Q 421.886 176.676 421.886 183.853 L 410.545 183.853 Q 410.545 180.839 409.074 179.224 Q 407.603 177.609 405.126 177.609 Q 400.425 177.609 399.635 183.602 Q 399.384 185.504 399.384 188.842 Q 399.384 194.692 400.784 196.953 Q 402.183 199.214 405.234 199.214 Z" transform="matrix(1, 0, 0, 0.996558, 0, 0.28828)" style="fill: rgb(255, 123, 0); paint-order: stroke; stroke: rgb(255, 255, 255); stroke-width: 5px; white-space: pre;"/>
  <path d="M 425.465 188.052 Q 425.465 182.238 427.726 177.698 Q 429.987 173.159 434.222 170.718 Q 438.457 168.278 444.163 168.278 Q 452.884 168.278 457.908 173.679 Q 462.933 179.08 462.933 188.375 L 462.933 188.806 Q 462.933 197.886 457.89 203.215 Q 452.848 208.545 444.235 208.545 Q 435.944 208.545 430.92 203.574 Q 425.896 198.604 425.501 190.098 Z M 437.559 188.806 Q 437.559 194.189 439.246 196.702 Q 440.933 199.214 444.235 199.214 Q 450.695 199.214 450.838 189.273 L 450.838 188.052 Q 450.838 177.609 444.163 177.609 Q 438.098 177.609 437.595 186.617 Z" transform="matrix(1, 0, 0, 0.996558, 0, 0.28828)" style="fill: rgb(255, 123, 0); paint-order: stroke; stroke: rgb(255, 255, 255); stroke-width: 5px; white-space: pre;"/>
  <path d="M 479.695 168.995 L 480.09 173.553 Q 484.217 168.278 491.18 168.278 Q 498.537 168.278 501.121 174.128 Q 505.069 168.278 512.534 168.278 Q 524.341 168.278 524.664 182.561 L 524.664 207.827 L 512.534 207.827 L 512.534 183.315 Q 512.534 180.336 511.529 178.973 Q 510.524 177.609 507.868 177.609 Q 504.279 177.609 502.521 180.803 L 502.556 181.305 L 502.556 207.827 L 490.426 207.827 L 490.426 183.387 Q 490.426 180.336 489.457 178.973 Q 488.488 177.609 485.761 177.609 Q 482.279 177.609 480.449 180.803 L 480.449 207.827 L 468.355 207.827 L 468.355 168.995 Z" transform="matrix(1, 0, 0, 0.996558, 0, 0.28828)" style="fill: rgb(255, 123, 0); paint-order: stroke; stroke: rgb(255, 255, 255); stroke-width: 5px; white-space: pre;"/>
</svg>