<?xml version="1.0" encoding="utf-8"?>
<svg viewBox="54.121 -80.433 477.74 243.732" xmlns="http://www.w3.org/2000/svg">
  <rect x="251.326" y="107.086" width="169.912" height="164.191" style="fill: rgb(0, 133, 202);" transform="matrix(1, 0, -0.370185, 1, 32.138981, -172.755173)" rx="15.153" ry="15.153"/>
  <path d="M 88.036 199.214 Q 90.584 199.214 91.983 197.832 Q 93.383 196.45 93.347 193.974 L 104.688 193.974 Q 104.688 200.362 100.112 204.453 Q 95.536 208.545 88.323 208.545 Q 79.853 208.545 74.972 203.233 Q 70.091 197.922 70.091 188.519 L 70.091 188.016 Q 70.091 182.131 72.262 177.627 Q 74.434 173.123 78.525 170.7 Q 82.616 168.278 88.215 168.278 Q 95.787 168.278 100.238 172.477 Q 104.688 176.676 104.688 183.853 L 93.347 183.853 Q 93.347 180.839 91.876 179.224 Q 90.404 177.609 87.928 177.609 Q 83.226 177.609 82.437 183.602 Q 82.186 185.504 82.186 188.842 Q 82.186 194.692 83.585 196.953 Q 84.985 199.214 88.036 199.214 Z" transform="matrix(1, 0, 0, 0.996558, -5.275614, -148.433731)" style="fill: rgb(255, 94, 0); paint-order: stroke; stroke: rgb(255, 255, 255); stroke-width: 5px; white-space: pre;"/>
  <path d="M 108.268 188.052 Q 108.268 182.238 110.529 177.698 Q 112.79 173.159 117.025 170.718 Q 121.26 168.278 126.966 168.278 Q 135.687 168.278 140.712 173.679 Q 145.736 179.08 145.736 188.375 L 145.736 188.806 Q 145.736 197.886 140.694 203.215 Q 135.651 208.545 127.038 208.545 Q 118.748 208.545 113.723 203.574 Q 108.699 198.604 108.304 190.098 Z M 120.363 188.806 Q 120.363 194.189 122.05 196.702 Q 123.736 199.214 127.038 199.214 Q 133.498 199.214 133.642 189.273 L 133.642 188.052 Q 133.642 177.609 126.966 177.609 Q 120.901 177.609 120.399 186.617 Z" transform="matrix(1, 0, 0, 0.996558, -5.275614, -148.433731)" style="fill: rgb(255, 94, 0); paint-order: stroke; stroke: rgb(255, 255, 255); stroke-width: 5px; white-space: pre;"/>
  <path d="M 165.141 159.341 L 165.141 168.995 L 171.529 168.995 L 171.529 177.393 L 165.141 177.393 L 165.141 195.158 Q 165.141 197.348 165.93 198.209 Q 166.72 199.07 169.052 199.07 Q 170.847 199.07 172.067 198.855 L 172.067 207.504 Q 168.801 208.545 165.248 208.545 Q 159.004 208.545 156.025 205.602 Q 153.046 202.659 153.046 196.666 L 153.046 177.393 L 148.093 177.393 L 148.093 168.995 L 153.046 168.995 L 153.046 159.341 Z" transform="matrix(1, 0, 0, 0.996558, -5.275614, -148.433731)" style="fill: rgb(255, 94, 0); paint-order: stroke; stroke: rgb(255, 255, 255); stroke-width: 5px; white-space: pre;"/>
  <path d="M 198.161 207.827 Q 197.515 206.643 197.012 204.346 Q 193.675 208.545 187.681 208.545 Q 182.19 208.545 178.35 205.225 Q 174.51 201.905 174.51 196.881 Q 174.51 190.565 179.176 187.335 Q 183.841 184.105 192.741 184.105 L 196.474 184.105 L 196.474 182.059 Q 196.474 176.712 191.844 176.712 Q 187.538 176.712 187.538 180.946 L 175.443 180.946 Q 175.443 175.312 180.234 171.795 Q 185.025 168.278 192.454 168.278 Q 199.883 168.278 204.19 171.902 Q 208.497 175.527 208.604 181.844 L 208.604 199.034 Q 208.676 204.382 210.255 207.217 L 210.255 207.827 Z M 190.588 199.931 Q 192.849 199.931 194.339 198.962 Q 195.828 197.993 196.474 196.773 L 196.474 190.565 L 192.957 190.565 Q 186.64 190.565 186.64 196.235 Q 186.64 197.886 187.753 198.909 Q 188.865 199.931 190.588 199.931 Z" transform="matrix(1, 0, 0, 0.996558, -5.275614, -148.433731)" style="fill: rgb(255, 94, 0); paint-order: stroke; stroke: rgb(255, 255, 255); stroke-width: 5px; white-space: pre;"/>
  <path d="M 251.41 198.065 L 234.147 198.065 L 231.133 207.827 L 217.674 207.827 L 236.839 155.573 L 248.682 155.573 L 267.99 207.827 L 254.46 207.827 Z M 237.162 188.339 L 248.395 188.339 L 242.761 170.216 Z" transform="matrix(1, 0, 0, 0.996558, -3.49355, -146.433746)" style="fill: rgb(255, 255, 255); white-space: pre;"/>
  <path d="M 313.297 190.134 Q 313.046 195.589 310.354 199.77 Q 307.663 203.951 302.8 206.248 Q 297.937 208.545 291.692 208.545 Q 281.392 208.545 275.47 201.834 Q 269.549 195.122 269.549 182.884 L 269.549 180.3 Q 269.549 172.62 272.223 166.86 Q 274.896 161.1 279.921 157.96 Q 284.945 154.819 291.549 154.819 Q 301.059 154.819 306.837 159.826 Q 312.615 164.832 313.405 173.625 L 300.844 173.625 Q 300.7 168.852 298.439 166.77 Q 296.178 164.689 291.549 164.689 Q 286.847 164.689 284.658 168.206 Q 282.469 171.723 282.361 179.439 L 282.361 183.136 Q 282.361 191.498 284.461 195.087 Q 286.56 198.675 291.692 198.675 Q 296.035 198.675 298.332 196.63 Q 300.628 194.584 300.772 190.134 Z M 296.429 207.468 L 296.071 209.657 Q 301.454 210.662 301.454 215.866 Q 301.454 220.029 297.901 222.398 Q 294.348 224.766 288.032 224.766 L 287.78 218.091 Q 290.939 218.091 290.939 215.328 Q 290.939 213.964 289.808 213.426 Q 288.678 212.887 286.129 212.708 L 287.242 207.468 Z" transform="matrix(1, 0, 0, 0.996558, -3.49355, -146.433746)" style="fill: rgb(255, 255, 255); white-space: pre;"/>
  <path d="M 363.513 182.777 Q 363.513 190.421 360.678 196.307 Q 357.842 202.192 352.621 205.369 Q 347.399 208.545 340.724 208.545 Q 334.048 208.545 328.88 205.476 Q 323.712 202.408 320.823 196.702 Q 317.934 190.995 317.791 183.602 L 317.791 180.659 Q 317.791 172.979 320.608 167.111 Q 323.425 161.243 328.683 158.049 Q 333.941 154.855 340.652 154.855 Q 347.291 154.855 352.495 158.014 Q 357.699 161.172 360.588 167.004 Q 363.477 172.836 363.513 180.372 Z M 350.701 180.587 Q 350.701 172.8 348.099 168.762 Q 345.497 164.725 340.652 164.725 Q 331.177 164.725 330.639 178.937 L 330.603 182.777 Q 330.603 190.457 333.151 194.584 Q 335.699 198.711 340.724 198.711 Q 345.497 198.711 348.081 194.656 Q 350.665 190.6 350.701 182.992 Z" transform="matrix(1, 0, 0, 0.996558, -3.49355, -146.433746)" style="fill: rgb(255, 255, 255); white-space: pre;"/>
  <path d="M 374.087 196.091 Q 376.958 196.091 378.86 197.796 Q 380.763 199.501 380.763 202.157 Q 380.763 204.812 378.86 206.517 Q 376.958 208.222 374.087 208.222 Q 371.18 208.222 369.296 206.499 Q 367.412 204.776 367.412 202.157 Q 367.412 199.537 369.296 197.814 Q 371.18 196.091 374.087 196.091 Z" transform="matrix(1, 0, 0, 0.996558, -3.27291, -148.433731)" style="fill: rgb(255, 94, 0); paint-order: stroke; stroke: rgb(255, 255, 255); stroke-width: 5px; white-space: pre;"/>
  <path d="M 405.235 199.214 Q 407.783 199.214 409.183 197.832 Q 410.582 196.45 410.546 193.974 L 421.887 193.974 Q 421.887 200.362 417.311 204.453 Q 412.736 208.545 405.522 208.545 Q 397.052 208.545 392.171 203.233 Q 387.29 197.922 387.29 188.519 L 387.29 188.016 Q 387.29 182.131 389.462 177.627 Q 391.633 173.123 395.724 170.7 Q 399.816 168.278 405.414 168.278 Q 412.987 168.278 417.437 172.477 Q 421.887 176.676 421.887 183.853 L 410.546 183.853 Q 410.546 180.839 409.075 179.224 Q 407.603 177.609 405.127 177.609 Q 400.426 177.609 399.636 183.602 Q 399.385 185.504 399.385 188.842 Q 399.385 194.692 400.785 196.953 Q 402.184 199.214 405.235 199.214 Z" transform="matrix(1, 0, 0, 0.996558, -3.27291, -148.433731)" style="fill: rgb(255, 94, 0); paint-order: stroke; stroke: rgb(255, 255, 255); stroke-width: 5px; white-space: pre;"/>
  <path d="M 425.468 188.052 Q 425.468 182.238 427.729 177.698 Q 429.99 173.159 434.224 170.718 Q 438.459 168.278 444.166 168.278 Q 452.887 168.278 457.911 173.679 Q 462.935 179.08 462.935 188.375 L 462.935 188.806 Q 462.935 197.886 457.893 203.215 Q 452.851 208.545 444.237 208.545 Q 435.947 208.545 430.923 203.574 Q 425.898 198.604 425.503 190.098 Z M 437.562 188.806 Q 437.562 194.189 439.249 196.702 Q 440.936 199.214 444.237 199.214 Q 450.697 199.214 450.841 189.273 L 450.841 188.052 Q 450.841 177.609 444.166 177.609 Q 438.1 177.609 437.598 186.617 Z" transform="matrix(1, 0, 0, 0.996558, -3.27291, -148.433731)" style="fill: rgb(255, 94, 0); paint-order: stroke; stroke: rgb(255, 255, 255); stroke-width: 5px; white-space: pre;"/>
  <path d="M 479.684 168.995 L 480.079 173.553 Q 484.206 168.278 491.168 168.278 Q 498.526 168.278 501.11 174.128 Q 505.057 168.278 512.522 168.278 Q 524.33 168.278 524.653 182.561 L 524.653 207.827 L 512.522 207.827 L 512.522 183.315 Q 512.522 180.336 511.517 178.973 Q 510.512 177.609 507.857 177.609 Q 504.268 177.609 502.509 180.803 L 502.545 181.305 L 502.545 207.827 L 490.415 207.827 L 490.415 183.387 Q 490.415 180.336 489.446 178.973 Q 488.477 177.609 485.749 177.609 Q 482.268 177.609 480.438 180.803 L 480.438 207.827 L 468.343 207.827 L 468.343 168.995 Z" transform="matrix(1, 0, 0, 0.996558, -3.27291, -148.433731)" style="fill: rgb(255, 94, 0); paint-order: stroke; stroke: rgb(255, 255, 255); stroke-width: 5px; white-space: pre;"/>
  <path d="M 188.932 118.757 Q 188.932 116.894 189.665 115.405 Q 190.397 113.917 191.704 113.109 Q 193.01 112.3 194.686 112.3 Q 197.276 112.3 198.876 114.093 Q 200.475 115.886 200.475 118.862 L 200.475 119.015 Q 200.475 120.866 199.766 122.337 Q 199.057 123.808 197.739 124.628 Q 196.421 125.448 194.71 125.448 Q 192.131 125.448 190.532 123.655 Q 188.932 121.862 188.932 118.909 Z M 191.112 119.015 Q 191.112 121.124 192.09 122.401 Q 193.069 123.679 194.71 123.679 Q 196.362 123.679 197.335 122.384 Q 198.307 121.089 198.307 118.757 Q 198.307 116.671 197.317 115.376 Q 196.327 114.081 194.686 114.081 Q 193.081 114.081 192.096 115.359 Q 191.112 116.636 191.112 119.015 Z" style="fill: rgb(0, 133, 202); white-space: pre;"/>
  <path d="M 211.156 112.534 L 211.215 113.941 Q 212.609 112.3 214.976 112.3 Q 217.636 112.3 218.597 114.339 Q 219.23 113.425 220.244 112.862 Q 221.258 112.3 222.64 112.3 Q 226.812 112.3 226.883 116.718 L 226.883 125.214 L 224.715 125.214 L 224.715 116.847 Q 224.715 115.487 224.093 114.814 Q 223.472 114.14 222.008 114.14 Q 220.801 114.14 220.004 114.86 Q 219.207 115.581 219.078 116.8 L 219.078 125.214 L 216.898 125.214 L 216.898 116.905 Q 216.898 114.14 214.191 114.14 Q 212.058 114.14 211.273 115.956 L 211.273 125.214 L 209.105 125.214 L 209.105 112.534 Z" style="fill: rgb(0, 133, 202); white-space: pre;"/>
  <path d="M 235.411 125.448 Q 232.833 125.448 231.216 123.755 Q 229.599 122.062 229.599 119.226 L 229.599 118.827 Q 229.599 116.941 230.319 115.458 Q 231.04 113.976 232.335 113.138 Q 233.63 112.3 235.142 112.3 Q 237.614 112.3 238.985 113.929 Q 240.356 115.558 240.356 118.593 L 240.356 119.495 L 231.767 119.495 Q 231.813 121.37 232.862 122.525 Q 233.911 123.679 235.528 123.679 Q 236.677 123.679 237.474 123.21 Q 238.27 122.741 238.868 121.968 L 240.192 122.999 Q 238.599 125.448 235.411 125.448 Z M 235.142 114.081 Q 233.829 114.081 232.938 115.036 Q 232.048 115.991 231.837 117.714 L 238.188 117.714 L 238.188 117.55 Q 238.095 115.898 237.298 114.989 Q 236.501 114.081 235.142 114.081 Z" style="fill: rgb(0, 133, 202); white-space: pre;"/>
  <path d="M 245.209 125.214 L 243.041 125.214 L 243.041 107.214 L 245.209 107.214 Z" style="fill: rgb(0, 133, 202); white-space: pre;"/>
  <path d="M 250.85 114.069 Q 252.291 112.3 254.6 112.3 Q 258.619 112.3 258.654 116.835 L 258.654 125.214 L 256.486 125.214 L 256.486 116.823 Q 256.475 115.452 255.859 114.796 Q 255.244 114.14 253.943 114.14 Q 252.889 114.14 252.092 114.702 Q 251.295 115.265 250.85 116.179 L 250.85 125.214 L 248.682 125.214 L 248.682 107.214 L 250.85 107.214 Z" style="fill: rgb(0, 133, 202); white-space: pre;"/>
  <path d="M 261.327 118.757 Q 261.327 116.894 262.059 115.405 Q 262.792 113.917 264.098 113.109 Q 265.405 112.3 267.081 112.3 Q 269.671 112.3 271.27 114.093 Q 272.87 115.886 272.87 118.862 L 272.87 119.015 Q 272.87 120.866 272.161 122.337 Q 271.452 123.808 270.133 124.628 Q 268.815 125.448 267.104 125.448 Q 264.526 125.448 262.926 123.655 Q 261.327 121.862 261.327 118.909 Z M 263.507 119.015 Q 263.507 121.124 264.485 122.401 Q 265.464 123.679 267.104 123.679 Q 268.757 123.679 269.729 122.384 Q 270.702 121.089 270.702 118.757 Q 270.702 116.671 269.712 115.376 Q 268.721 114.081 267.081 114.081 Q 265.475 114.081 264.491 115.359 Q 263.507 116.636 263.507 119.015 Z" style="fill: rgb(0, 133, 202); white-space: pre;"/>
  <path d="M 281.703 114.48 Q 281.21 114.398 280.636 114.398 Q 278.503 114.398 277.742 116.214 L 277.742 125.214 L 275.574 125.214 L 275.574 112.534 L 277.683 112.534 L 277.718 113.999 Q 278.785 112.3 280.742 112.3 Q 281.374 112.3 281.703 112.464 Z" style="fill: rgb(0, 133, 202); white-space: pre;"/>
  <path d="M 300.348 119.015 Q 300.348 121.909 299.024 123.679 Q 297.699 125.448 295.438 125.448 Q 293.129 125.448 291.805 123.984 L 291.805 130.089 L 289.637 130.089 L 289.637 112.534 L 291.617 112.534 L 291.723 113.941 Q 293.047 112.3 295.403 112.3 Q 297.688 112.3 299.018 114.023 Q 300.348 115.745 300.348 118.816 Z M 298.18 118.769 Q 298.18 116.624 297.266 115.382 Q 296.352 114.14 294.758 114.14 Q 292.789 114.14 291.805 115.886 L 291.805 121.944 Q 292.778 123.679 294.781 123.679 Q 296.34 123.679 297.26 122.443 Q 298.18 121.206 298.18 118.769 Z" style="fill: rgb(0, 133, 202); white-space: pre;"/>
  <path d="M 309.22 114.48 Q 308.728 114.398 308.153 114.398 Q 306.02 114.398 305.259 116.214 L 305.259 125.214 L 303.091 125.214 L 303.091 112.534 L 305.2 112.534 L 305.235 113.999 Q 306.302 112.3 308.259 112.3 Q 308.892 112.3 309.22 112.464 Z" style="fill: rgb(0, 133, 202); white-space: pre;"/>
  <path d="M 316.259 125.448 Q 313.681 125.448 312.064 123.755 Q 310.447 122.062 310.447 119.226 L 310.447 118.827 Q 310.447 116.941 311.167 115.458 Q 311.888 113.976 313.183 113.138 Q 314.478 112.3 315.99 112.3 Q 318.462 112.3 319.833 113.929 Q 321.204 115.558 321.204 118.593 L 321.204 119.495 L 312.615 119.495 Q 312.662 121.37 313.71 122.525 Q 314.759 123.679 316.376 123.679 Q 317.525 123.679 318.322 123.21 Q 319.119 122.741 319.716 121.968 L 321.04 122.999 Q 319.447 125.448 316.259 125.448 Z M 315.99 114.081 Q 314.677 114.081 313.787 115.036 Q 312.896 115.991 312.685 117.714 L 319.037 117.714 L 319.037 117.55 Q 318.943 115.898 318.146 114.989 Q 317.349 114.081 315.99 114.081 Z" style="fill: rgb(0, 133, 202); white-space: pre;"/>
  <path d="M 328.787 123.679 Q 329.947 123.679 330.815 122.976 Q 331.682 122.273 331.776 121.218 L 333.826 121.218 Q 333.768 122.308 333.076 123.292 Q 332.385 124.276 331.231 124.862 Q 330.076 125.448 328.787 125.448 Q 326.197 125.448 324.668 123.72 Q 323.139 121.991 323.139 118.991 L 323.139 118.628 Q 323.139 116.776 323.818 115.335 Q 324.498 113.894 325.77 113.097 Q 327.041 112.3 328.776 112.3 Q 330.908 112.3 332.32 113.577 Q 333.733 114.855 333.826 116.894 L 331.776 116.894 Q 331.682 115.663 330.844 114.872 Q 330.006 114.081 328.776 114.081 Q 327.123 114.081 326.215 115.271 Q 325.307 116.46 325.307 118.71 L 325.307 119.12 Q 325.307 121.312 326.209 122.495 Q 327.111 123.679 328.787 123.679 Z M 329.139 125.319 L 328.998 125.929 Q 330.791 126.245 330.791 127.956 Q 330.791 129.093 329.854 129.755 Q 328.916 130.417 327.24 130.417 L 327.158 129.163 Q 328.084 129.163 328.594 128.859 Q 329.104 128.554 329.104 128.003 Q 329.104 127.487 328.729 127.241 Q 328.354 126.995 327.205 126.89 L 327.58 125.319 Z" style="fill: rgb(0, 133, 202); white-space: pre;"/>
  <path d="M 335.69 118.757 Q 335.69 116.894 336.423 115.405 Q 337.155 113.917 338.462 113.109 Q 339.768 112.3 341.444 112.3 Q 344.034 112.3 345.634 114.093 Q 347.233 115.886 347.233 118.862 L 347.233 119.015 Q 347.233 120.866 346.524 122.337 Q 345.815 123.808 344.497 124.628 Q 343.179 125.448 341.468 125.448 Q 338.889 125.448 337.29 123.655 Q 335.69 121.862 335.69 118.909 Z M 337.87 119.015 Q 337.87 121.124 338.848 122.401 Q 339.827 123.679 341.468 123.679 Q 343.12 123.679 344.093 122.384 Q 345.065 121.089 345.065 118.757 Q 345.065 116.671 344.075 115.376 Q 343.085 114.081 341.444 114.081 Q 339.839 114.081 338.854 115.359 Q 337.87 116.636 337.87 119.015 Z" style="fill: rgb(0, 133, 202); white-space: pre;"/>
</svg>