<?xml version="1.0" encoding="utf-8"?>
<svg viewBox="60.631 -72.24 467.782 204.028" xmlns="http://www.w3.org/2000/svg">
  <rect x="251.326" y="107.086" width="169.912" height="164.191" style="fill: rgb(0, 133, 202);" transform="matrix(1, 0, -0.370185, 1, 32.138981, -172.755173)" rx="15.153" ry="15.153"/>
  <path d="M 88.036 199.214 Q 90.584 199.214 91.983 197.832 Q 93.383 196.45 93.347 193.974 L 104.688 193.974 Q 104.688 200.362 100.112 204.453 Q 95.536 208.545 88.323 208.545 Q 79.853 208.545 74.972 203.233 Q 70.091 197.922 70.091 188.519 L 70.091 188.016 Q 70.091 182.131 72.262 177.627 Q 74.434 173.123 78.525 170.7 Q 82.616 168.278 88.215 168.278 Q 95.787 168.278 100.238 172.477 Q 104.688 176.676 104.688 183.853 L 93.347 183.853 Q 93.347 180.839 91.876 179.224 Q 90.404 177.609 87.928 177.609 Q 83.226 177.609 82.437 183.602 Q 82.186 185.504 82.186 188.842 Q 82.186 194.692 83.585 196.953 Q 84.985 199.214 88.036 199.214 Z" transform="matrix(1, 0, 0, 0.996558, -5.275614, -148.433731)" style="fill: rgb(255, 94, 0); paint-order: stroke; stroke: rgb(255, 255, 255); stroke-width: 5px; white-space: pre;"/>
  <path d="M 108.269 188.052 Q 108.269 182.238 110.53 177.698 Q 112.791 173.159 117.025 170.718 Q 121.26 168.278 126.967 168.278 Q 135.687 168.278 140.712 173.679 Q 145.736 179.08 145.736 188.375 L 145.736 188.806 Q 145.736 197.886 140.694 203.215 Q 135.652 208.545 127.038 208.545 Q 118.748 208.545 113.724 203.574 Q 108.699 198.604 108.304 190.098 Z M 120.363 188.806 Q 120.363 194.189 122.05 196.702 Q 123.737 199.214 127.038 199.214 Q 133.498 199.214 133.642 189.273 L 133.642 188.052 Q 133.642 177.609 126.967 177.609 Q 120.901 177.609 120.399 186.617 Z" transform="matrix(1, 0, 0, 0.996558, -5.275614, -148.433731)" style="fill: rgb(255, 94, 0); paint-order: stroke; stroke: rgb(255, 255, 255); stroke-width: 5px; white-space: pre;"/>
  <path d="M 165.141 159.341 L 165.141 168.995 L 171.529 168.995 L 171.529 177.393 L 165.141 177.393 L 165.141 195.158 Q 165.141 197.348 165.931 198.209 Q 166.72 199.07 169.053 199.07 Q 170.847 199.07 172.068 198.855 L 172.068 207.504 Q 168.802 208.545 165.249 208.545 Q 159.004 208.545 156.025 205.602 Q 153.047 202.659 153.047 196.666 L 153.047 177.393 L 148.094 177.393 L 148.094 168.995 L 153.047 168.995 L 153.047 159.341 Z" transform="matrix(1, 0, 0, 0.996558, -5.275614, -148.433731)" style="fill: rgb(255, 94, 0); paint-order: stroke; stroke: rgb(255, 255, 255); stroke-width: 5px; white-space: pre;"/>
  <path d="M 198.161 207.827 Q 197.515 206.643 197.013 204.346 Q 193.675 208.545 187.682 208.545 Q 182.191 208.545 178.351 205.225 Q 174.511 201.905 174.511 196.881 Q 174.511 190.565 179.176 187.335 Q 183.842 184.105 192.742 184.105 L 196.475 184.105 L 196.475 182.059 Q 196.475 176.712 191.845 176.712 Q 187.538 176.712 187.538 180.946 L 175.444 180.946 Q 175.444 175.312 180.235 171.795 Q 185.026 168.278 192.455 168.278 Q 199.884 168.278 204.191 171.902 Q 208.497 175.527 208.605 181.844 L 208.605 199.034 Q 208.677 204.382 210.256 207.217 L 210.256 207.827 Z M 190.589 199.932 Q 192.85 199.932 194.339 198.963 Q 195.829 197.994 196.475 196.773 L 196.475 190.565 L 192.957 190.565 Q 186.641 190.565 186.641 196.235 Q 186.641 197.886 187.754 198.909 Q 188.866 199.932 190.589 199.932 Z" transform="matrix(1, 0, 0, 0.996558, -5.275614, -148.433731)" style="fill: rgb(255, 94, 0); paint-order: stroke; stroke: rgb(255, 255, 255); stroke-width: 5px; white-space: pre;"/>
  <path d="M 251.41 198.065 L 234.147 198.065 L 231.133 207.827 L 217.674 207.827 L 236.839 155.573 L 248.682 155.573 L 267.99 207.827 L 254.46 207.827 Z M 237.162 188.339 L 248.395 188.339 L 242.761 170.216 Z" transform="matrix(1, 0, 0, 0.996558, -3.49355, -146.433746)" style="fill: rgb(255, 255, 255); white-space: pre;"/>
  <path d="M 313.297 190.134 Q 313.046 195.589 310.355 199.77 Q 307.663 203.951 302.8 206.248 Q 297.937 208.545 291.693 208.545 Q 281.392 208.545 275.471 201.834 Q 269.549 195.122 269.549 182.884 L 269.549 180.3 Q 269.549 172.62 272.223 166.86 Q 274.897 161.1 279.921 157.96 Q 284.945 154.819 291.549 154.819 Q 301.059 154.819 306.838 159.826 Q 312.616 164.832 313.405 173.625 L 300.844 173.625 Q 300.701 168.852 298.44 166.77 Q 296.179 164.689 291.549 164.689 Q 286.848 164.689 284.658 168.206 Q 282.469 171.723 282.361 179.439 L 282.361 183.136 Q 282.361 191.498 284.461 195.087 Q 286.56 198.675 291.693 198.675 Q 296.035 198.675 298.332 196.63 Q 300.629 194.584 300.772 190.134 Z M 296.43 207.468 L 296.071 209.657 Q 301.454 210.662 301.454 215.866 Q 301.454 220.029 297.901 222.398 Q 294.348 224.766 288.032 224.766 L 287.781 218.091 Q 290.939 218.091 290.939 215.328 Q 290.939 213.964 289.808 213.426 Q 288.678 212.887 286.13 212.708 L 287.242 207.468 Z" transform="matrix(1, 0, 0, 0.996558, -3.49355, -146.433746)" style="fill: rgb(255, 255, 255); white-space: pre;"/>
  <path d="M 363.513 182.777 Q 363.513 190.421 360.678 196.307 Q 357.843 202.192 352.621 205.369 Q 347.399 208.545 340.724 208.545 Q 334.049 208.545 328.881 205.476 Q 323.713 202.408 320.824 196.702 Q 317.935 190.995 317.791 183.602 L 317.791 180.659 Q 317.791 172.979 320.609 167.111 Q 323.426 161.244 328.684 158.049 Q 333.941 154.855 340.652 154.855 Q 347.292 154.855 352.496 158.014 Q 357.7 161.172 360.589 167.004 Q 363.478 172.836 363.513 180.372 Z M 350.701 180.588 Q 350.701 172.8 348.099 168.762 Q 345.497 164.725 340.652 164.725 Q 331.178 164.725 330.639 178.937 L 330.604 182.777 Q 330.604 190.457 333.152 194.584 Q 335.7 198.711 340.724 198.711 Q 345.497 198.711 348.081 194.656 Q 350.665 190.6 350.701 182.992 Z" transform="matrix(1, 0, 0, 0.996558, -3.49355, -146.433746)" style="fill: rgb(255, 255, 255); white-space: pre;"/>
  <path d="M 374.087 196.091 Q 376.958 196.091 378.86 197.796 Q 380.763 199.501 380.763 202.157 Q 380.763 204.812 378.86 206.517 Q 376.958 208.222 374.087 208.222 Q 371.18 208.222 369.296 206.499 Q 367.412 204.776 367.412 202.157 Q 367.412 199.537 369.296 197.814 Q 371.18 196.091 374.087 196.091 Z" transform="matrix(1, 0, 0, 0.996558, -3.27291, -148.433731)" style="fill: rgb(255, 94, 0); paint-order: stroke; stroke: rgb(255, 255, 255); stroke-width: 5px; white-space: pre;"/>
  <path d="M 405.235 199.214 Q 407.783 199.214 409.183 197.832 Q 410.582 196.45 410.547 193.974 L 421.887 193.974 Q 421.887 200.362 417.312 204.453 Q 412.736 208.545 405.522 208.545 Q 397.052 208.545 392.172 203.233 Q 387.291 197.922 387.291 188.519 L 387.291 188.016 Q 387.291 182.131 389.462 177.627 Q 391.633 173.123 395.724 170.7 Q 399.816 168.278 405.414 168.278 Q 412.987 168.278 417.437 172.477 Q 421.887 176.676 421.887 183.853 L 410.547 183.853 Q 410.547 180.839 409.075 179.224 Q 407.604 177.609 405.127 177.609 Q 400.426 177.609 399.636 183.602 Q 399.385 185.504 399.385 188.842 Q 399.385 194.692 400.785 196.953 Q 402.184 199.214 405.235 199.214 Z" transform="matrix(1, 0, 0, 0.996558, -3.27291, -148.433731)" style="fill: rgb(255, 94, 0); paint-order: stroke; stroke: rgb(255, 255, 255); stroke-width: 5px; white-space: pre;"/>
  <path d="M 425.468 188.052 Q 425.468 182.238 427.729 177.698 Q 429.99 173.159 434.225 170.718 Q 438.46 168.278 444.166 168.278 Q 452.887 168.278 457.911 173.679 Q 462.936 179.08 462.936 188.375 L 462.936 188.806 Q 462.936 197.886 457.893 203.215 Q 452.851 208.545 444.238 208.545 Q 435.947 208.545 430.923 203.574 Q 425.899 198.604 425.504 190.098 Z M 437.562 188.806 Q 437.562 194.189 439.249 196.702 Q 440.936 199.214 444.238 199.214 Q 450.698 199.214 450.841 189.273 L 450.841 188.052 Q 450.841 177.609 444.166 177.609 Q 438.101 177.609 437.598 186.617 Z" transform="matrix(1, 0, 0, 0.996558, -3.27291, -148.433731)" style="fill: rgb(255, 94, 0); paint-order: stroke; stroke: rgb(255, 255, 255); stroke-width: 5px; white-space: pre;"/>
  <path d="M 479.685 168.995 L 480.079 173.553 Q 484.207 168.278 491.169 168.278 Q 498.526 168.278 501.11 174.128 Q 505.058 168.278 512.523 168.278 Q 524.33 168.278 524.653 182.561 L 524.653 207.827 L 512.523 207.827 L 512.523 183.315 Q 512.523 180.336 511.518 178.973 Q 510.513 177.609 507.857 177.609 Q 504.268 177.609 502.51 180.803 L 502.546 181.305 L 502.546 207.827 L 490.415 207.827 L 490.415 183.387 Q 490.415 180.336 489.446 178.973 Q 488.477 177.609 485.75 177.609 Q 482.269 177.609 480.438 180.803 L 480.438 207.827 L 468.344 207.827 L 468.344 168.995 Z" transform="matrix(1, 0, 0, 0.996558, -3.27291, -148.433731)" style="fill: rgb(255, 94, 0); paint-order: stroke; stroke: rgb(255, 255, 255); stroke-width: 5px; white-space: pre;"/>
  <path d="M 192.247 264.227 Q 192.247 262.364 192.979 260.875 Q 193.712 259.387 195.018 258.579 Q 196.325 257.77 198.001 257.77 Q 200.591 257.77 202.19 259.563 Q 203.79 261.356 203.79 264.332 L 203.79 264.485 Q 203.79 266.336 203.081 267.807 Q 202.372 269.278 201.053 270.098 Q 199.735 270.918 198.024 270.918 Q 195.446 270.918 193.846 269.125 Q 192.247 267.332 192.247 264.379 Z M 194.426 264.485 Q 194.426 266.594 195.405 267.871 Q 196.383 269.149 198.024 269.149 Q 199.676 269.149 200.649 267.854 Q 201.622 266.559 201.622 264.227 Q 201.622 262.141 200.632 260.846 Q 199.641 259.551 198.001 259.551 Q 196.395 259.551 195.411 260.829 Q 194.426 262.106 194.426 264.485 Z" transform="matrix(1, 0, 0, 1, -3.315368, -149.470367)" style="fill: rgb(0, 133, 202); white-space: pre;"/>
  <path d="M 214.471 258.004 L 214.529 259.411 Q 215.924 257.77 218.291 257.77 Q 220.951 257.77 221.912 259.809 Q 222.545 258.895 223.559 258.332 Q 224.572 257.77 225.955 257.77 Q 230.127 257.77 230.197 262.188 L 230.197 270.684 L 228.029 270.684 L 228.029 262.317 Q 228.029 260.957 227.408 260.284 Q 226.787 259.61 225.322 259.61 Q 224.115 259.61 223.318 260.33 Q 222.521 261.051 222.392 262.27 L 222.392 270.684 L 220.213 270.684 L 220.213 262.375 Q 220.213 259.61 217.506 259.61 Q 215.373 259.61 214.588 261.426 L 214.588 270.684 L 212.42 270.684 L 212.42 258.004 Z" transform="matrix(1, 0, 0, 1, -3.315368, -149.470367)" style="fill: rgb(0, 133, 202); white-space: pre;"/>
  <path d="M 238.726 270.918 Q 236.148 270.918 234.53 269.225 Q 232.913 267.532 232.913 264.696 L 232.913 264.297 Q 232.913 262.411 233.634 260.928 Q 234.355 259.446 235.65 258.608 Q 236.945 257.77 238.456 257.77 Q 240.929 257.77 242.3 259.399 Q 243.671 261.028 243.671 264.063 L 243.671 264.965 L 235.081 264.965 Q 235.128 266.84 236.177 267.995 Q 237.226 269.149 238.843 269.149 Q 239.991 269.149 240.788 268.68 Q 241.585 268.211 242.183 267.438 L 243.507 268.469 Q 241.913 270.918 238.726 270.918 Z M 238.456 259.551 Q 237.144 259.551 236.253 260.506 Q 235.363 261.461 235.152 263.184 L 241.503 263.184 L 241.503 263.02 Q 241.409 261.368 240.613 260.459 Q 239.816 259.551 238.456 259.551 Z" transform="matrix(1, 0, 0, 1, -3.315368, -149.470367)" style="fill: rgb(0, 133, 202); white-space: pre;"/>
  <path d="M 248.523 270.684 L 246.355 270.684 L 246.355 252.684 L 248.523 252.684 Z" transform="matrix(1, 0, 0, 1, -3.315368, -149.470367)" style="fill: rgb(0, 133, 202); white-space: pre;"/>
  <path d="M 254.164 259.539 Q 255.606 257.77 257.914 257.77 Q 261.934 257.77 261.969 262.305 L 261.969 270.684 L 259.801 270.684 L 259.801 262.293 Q 259.789 260.922 259.174 260.266 Q 258.559 259.61 257.258 259.61 Q 256.203 259.61 255.407 260.172 Q 254.61 260.735 254.164 261.649 L 254.164 270.684 L 251.996 270.684 L 251.996 252.684 L 254.164 252.684 Z" transform="matrix(1, 0, 0, 1, -3.315368, -149.470367)" style="fill: rgb(0, 133, 202); white-space: pre;"/>
  <path d="M 264.642 264.227 Q 264.642 262.364 265.374 260.875 Q 266.107 259.387 267.413 258.579 Q 268.72 257.77 270.396 257.77 Q 272.986 257.77 274.585 259.563 Q 276.185 261.356 276.185 264.332 L 276.185 264.485 Q 276.185 266.336 275.476 267.807 Q 274.767 269.278 273.448 270.098 Q 272.13 270.918 270.419 270.918 Q 267.841 270.918 266.241 269.125 Q 264.642 267.332 264.642 264.379 Z M 266.821 264.485 Q 266.821 266.594 267.8 267.871 Q 268.779 269.149 270.419 269.149 Q 272.071 269.149 273.044 267.854 Q 274.017 266.559 274.017 264.227 Q 274.017 262.141 273.027 260.846 Q 272.036 259.551 270.396 259.551 Q 268.79 259.551 267.806 260.829 Q 266.821 262.106 266.821 264.485 Z" transform="matrix(1, 0, 0, 1, -3.315368, -149.470367)" style="fill: rgb(0, 133, 202); white-space: pre;"/>
  <path d="M 285.018 259.95 Q 284.525 259.868 283.951 259.868 Q 281.818 259.868 281.057 261.684 L 281.057 270.684 L 278.889 270.684 L 278.889 258.004 L 280.998 258.004 L 281.033 259.469 Q 282.1 257.77 284.057 257.77 Q 284.689 257.77 285.018 257.934 Z" transform="matrix(1, 0, 0, 1, -3.315368, -149.470367)" style="fill: rgb(0, 133, 202); white-space: pre;"/>
  <path d="M 303.663 264.485 Q 303.663 267.379 302.339 269.149 Q 301.015 270.918 298.753 270.918 Q 296.444 270.918 295.12 269.454 L 295.12 275.559 L 292.952 275.559 L 292.952 258.004 L 294.933 258.004 L 295.038 259.411 Q 296.362 257.77 298.718 257.77 Q 301.003 257.77 302.333 259.493 Q 303.663 261.215 303.663 264.286 Z M 301.495 264.239 Q 301.495 262.094 300.581 260.852 Q 299.667 259.61 298.073 259.61 Q 296.104 259.61 295.12 261.356 L 295.12 267.414 Q 296.093 269.149 298.097 269.149 Q 299.655 269.149 300.575 267.913 Q 301.495 266.676 301.495 264.239 Z" transform="matrix(1, 0, 0, 1, -3.315368, -149.470367)" style="fill: rgb(0, 133, 202); white-space: pre;"/>
  <path d="M 312.535 259.95 Q 312.043 259.868 311.469 259.868 Q 309.336 259.868 308.574 261.684 L 308.574 270.684 L 306.406 270.684 L 306.406 258.004 L 308.515 258.004 L 308.551 259.469 Q 309.617 257.77 311.574 257.77 Q 312.207 257.77 312.535 257.934 Z" transform="matrix(1, 0, 0, 1, -3.315368, -149.470367)" style="fill: rgb(0, 133, 202); white-space: pre;"/>
  <path d="M 319.574 270.918 Q 316.996 270.918 315.379 269.225 Q 313.762 267.532 313.762 264.696 L 313.762 264.297 Q 313.762 262.411 314.483 260.928 Q 315.203 259.446 316.498 258.608 Q 317.793 257.77 319.305 257.77 Q 321.778 257.77 323.149 259.399 Q 324.52 261.028 324.52 264.063 L 324.52 264.965 L 315.93 264.965 Q 315.977 266.84 317.026 267.995 Q 318.074 269.149 319.692 269.149 Q 320.84 269.149 321.637 268.68 Q 322.434 268.211 323.031 267.438 L 324.356 268.469 Q 322.762 270.918 319.574 270.918 Z M 319.305 259.551 Q 317.992 259.551 317.102 260.506 Q 316.211 261.461 316 263.184 L 322.352 263.184 L 322.352 263.02 Q 322.258 261.368 321.461 260.459 Q 320.664 259.551 319.305 259.551 Z" transform="matrix(1, 0, 0, 1, -3.315368, -149.470367)" style="fill: rgb(0, 133, 202); white-space: pre;"/>
  <path d="M 332.103 269.149 Q 333.263 269.149 334.13 268.446 Q 334.997 267.743 335.091 266.688 L 337.142 266.688 Q 337.083 267.778 336.392 268.762 Q 335.7 269.746 334.546 270.332 Q 333.392 270.918 332.103 270.918 Q 329.513 270.918 327.983 269.19 Q 326.454 267.461 326.454 264.461 L 326.454 264.098 Q 326.454 262.246 327.134 260.805 Q 327.814 259.364 329.085 258.567 Q 330.356 257.77 332.091 257.77 Q 334.224 257.77 335.636 259.047 Q 337.048 260.325 337.142 262.364 L 335.091 262.364 Q 334.997 261.133 334.159 260.342 Q 333.321 259.551 332.091 259.551 Q 330.439 259.551 329.53 260.741 Q 328.622 261.93 328.622 264.18 L 328.622 264.59 Q 328.622 266.782 329.524 267.965 Q 330.427 269.149 332.103 269.149 Z M 332.454 270.789 L 332.314 271.399 Q 334.106 271.715 334.106 273.426 Q 334.106 274.563 333.169 275.225 Q 332.231 275.887 330.556 275.887 L 330.474 274.633 Q 331.399 274.633 331.909 274.329 Q 332.419 274.024 332.419 273.473 Q 332.419 272.957 332.044 272.711 Q 331.669 272.465 330.521 272.36 L 330.896 270.789 Z" transform="matrix(1, 0, 0, 1, -3.315368, -149.470367)" style="fill: rgb(0, 133, 202); white-space: pre;"/>
  <path d="M 339.006 264.227 Q 339.006 262.364 339.738 260.875 Q 340.471 259.387 341.777 258.579 Q 343.084 257.77 344.76 257.77 Q 347.349 257.77 348.949 259.563 Q 350.549 261.356 350.549 264.332 L 350.549 264.485 Q 350.549 266.336 349.84 267.807 Q 349.131 269.278 347.812 270.098 Q 346.494 270.918 344.783 270.918 Q 342.205 270.918 340.605 269.125 Q 339.006 267.332 339.006 264.379 Z M 341.185 264.485 Q 341.185 266.594 342.164 267.871 Q 343.142 269.149 344.783 269.149 Q 346.435 269.149 347.408 267.854 Q 348.381 266.559 348.381 264.227 Q 348.381 262.141 347.39 260.846 Q 346.4 259.551 344.76 259.551 Q 343.154 259.551 342.17 260.829 Q 341.185 262.106 341.185 264.485 Z" transform="matrix(1, 0, 0, 1, -3.315368, -149.470367)" style="fill: rgb(0, 133, 202); white-space: pre;"/>
</svg>