<?xml version="1.0" encoding="utf-8"?>
<svg viewBox="68.225 83.801 459.971 200.038" xmlns="http://www.w3.org/2000/svg">
  <path d="M 295.648 264.038 Q 295.648 262.199 296.354 260.733 Q 297.06 259.268 298.347 258.449 Q 299.635 257.631 301.26 257.631 Q 302.874 257.631 304.155 258.425 Q 305.437 259.22 306.155 260.68 Q 306.872 262.139 306.884 263.967 L 306.884 264.536 Q 306.884 266.387 306.184 267.846 Q 305.484 269.306 304.197 270.125 Q 302.909 270.943 301.284 270.943 Q 299.658 270.943 298.371 270.136 Q 297.084 269.33 296.372 267.876 Q 295.66 266.423 295.648 264.607 Z M 296.289 264.536 Q 296.289 266.138 296.923 267.473 Q 297.558 268.808 298.691 269.555 Q 299.824 270.303 301.284 270.303 Q 303.479 270.303 304.861 268.653 Q 306.244 267.004 306.244 264.406 L 306.244 264.038 Q 306.244 262.46 305.603 261.119 Q 304.962 259.778 303.829 259.025 Q 302.696 258.271 301.26 258.271 Q 299.065 258.271 297.677 259.944 Q 296.289 261.617 296.289 264.156 Z" transform="matrix(1.07029, 0, 0, 1.25511, -126.157639, -63.496986)" style="fill: rgb(34, 126, 162); stroke-width: 2.27063px; white-space: pre; vector-effect: non-scaling-stroke;"/>
  <path d="M 324.989 270.706 L 324.348 270.706 L 324.348 262.08 Q 324.336 260.146 323.5 259.203 Q 322.663 258.259 320.836 258.259 Q 318.724 258.259 317.383 260.122 Q 316.588 261.238 316.327 262.59 L 316.327 270.706 L 315.674 270.706 L 315.674 257.868 L 316.327 257.868 L 316.327 260.905 Q 316.98 259.339 318.19 258.485 Q 319.4 257.631 320.871 257.631 Q 322.485 257.631 323.511 258.342 Q 324.538 259.054 324.858 260.668 Q 325.428 259.28 326.709 258.455 Q 327.991 257.631 329.581 257.631 Q 331.657 257.631 332.671 258.805 Q 333.686 259.98 333.698 262.329 L 333.698 270.706 L 333.057 270.706 L 333.057 262.377 Q 333.057 260.265 332.209 259.25 Q 331.36 258.236 329.545 258.259 Q 327.208 258.295 325.843 260.122 Q 325.06 261.178 324.989 262.163 Z" transform="matrix(1.07029, 0, 0, 1.25511, -126.157639, -63.496986)" style="fill: rgb(34, 126, 162); stroke-width: 2.27063px; white-space: pre; vector-effect: non-scaling-stroke;"/>
  <path d="M 342.204 270.943 Q 340.649 270.943 339.35 270.107 Q 338.051 269.27 337.315 267.811 Q 336.58 266.351 336.58 264.572 L 336.58 264.038 Q 336.58 262.258 337.291 260.775 Q 338.003 259.292 339.249 258.461 Q 340.495 257.631 341.966 257.631 Q 344.114 257.631 345.479 259.161 Q 346.843 260.692 346.843 263.183 L 346.843 263.86 L 337.22 263.86 L 337.22 264.56 Q 337.22 266.126 337.879 267.461 Q 338.537 268.796 339.694 269.555 Q 340.851 270.314 342.204 270.314 Q 343.497 270.314 344.405 269.881 Q 345.312 269.448 346.012 268.547 L 346.463 268.867 Q 345.028 270.943 342.204 270.943 Z M 341.966 258.271 Q 340.092 258.271 338.787 259.665 Q 337.481 261.06 337.256 263.219 L 346.202 263.219 L 346.202 263.065 Q 346.202 261.76 345.651 260.638 Q 345.099 259.517 344.132 258.894 Q 343.165 258.271 341.966 258.271 Z" transform="matrix(1.07029, 0, 0, 1.25511, -126.157639, -63.496986)" style="fill: rgb(34, 126, 162); stroke-width: 2.27063px; white-space: pre; vector-effect: non-scaling-stroke;"/>
  <path d="M 350.628 270.706 L 349.987 270.706 L 349.987 252.481 L 350.628 252.481 Z" transform="matrix(1.07029, 0, 0, 1.25511, -126.157639, -63.496986)" style="fill: rgb(34, 126, 162); stroke-width: 2.27063px; white-space: pre; vector-effect: non-scaling-stroke;"/>
  <path d="M 355.47 260.858 Q 356.099 259.363 357.321 258.497 Q 358.544 257.631 360.027 257.631 Q 362.091 257.631 363.094 258.799 Q 364.097 259.968 364.108 262.329 L 364.108 270.706 L 363.468 270.706 L 363.468 262.305 Q 363.456 260.241 362.625 259.25 Q 361.795 258.259 359.991 258.259 Q 358.33 258.259 357.114 259.44 Q 355.898 260.621 355.47 262.483 L 355.47 270.706 L 354.83 270.706 L 354.83 252.481 L 355.47 252.481 Z" transform="matrix(1.07029, 0, 0, 1.25511, -126.157639, -63.496986)" style="fill: rgb(34, 126, 162); stroke-width: 2.27063px; white-space: pre; vector-effect: non-scaling-stroke;"/>
  <path d="M 367.16 264.038 Q 367.16 262.199 367.866 260.733 Q 368.572 259.268 369.859 258.449 Q 371.147 257.631 372.772 257.631 Q 374.386 257.631 375.667 258.425 Q 376.949 259.22 377.666 260.68 Q 378.384 262.139 378.396 263.967 L 378.396 264.536 Q 378.396 266.387 377.696 267.846 Q 376.996 269.306 375.709 270.125 Q 374.421 270.943 372.796 270.943 Q 371.17 270.943 369.883 270.136 Q 368.595 269.33 367.884 267.876 Q 367.172 266.423 367.16 264.607 Z M 367.801 264.536 Q 367.801 266.138 368.435 267.473 Q 369.07 268.808 370.203 269.555 Q 371.336 270.303 372.796 270.303 Q 374.991 270.303 376.373 268.653 Q 377.755 267.004 377.755 264.406 L 377.755 264.038 Q 377.755 262.46 377.115 261.119 Q 376.474 259.778 375.341 259.025 Q 374.208 258.271 372.772 258.271 Q 370.577 258.271 369.189 259.944 Q 367.801 261.617 367.801 264.156 Z" transform="matrix(1.07029, 0, 0, 1.25511, -126.157639, -63.496986)" style="fill: rgb(34, 126, 162); stroke-width: 2.27063px; white-space: pre; vector-effect: non-scaling-stroke;"/>
  <path d="M 387.162 258.331 L 386.332 258.259 Q 384.694 258.259 383.591 259.321 Q 382.488 260.383 382.143 262.294 L 382.143 270.706 L 381.503 270.706 L 381.503 257.868 L 382.143 257.868 L 382.143 260.537 Q 382.665 259.197 383.71 258.414 Q 384.754 257.631 386.332 257.631 Q 386.89 257.631 387.234 257.761 Z" transform="matrix(1.07029, 0, 0, 1.25511, -126.157639, -63.496986)" style="fill: rgb(34, 126, 162); stroke-width: 2.27063px; white-space: pre; vector-effect: non-scaling-stroke;"/>
  <path d="M 405.261 264.406 Q 405.261 267.407 403.968 269.175 Q 402.675 270.943 400.444 270.943 Q 398.985 270.943 397.845 270.35 Q 396.706 269.757 396.066 268.713 L 396.066 275.642 L 395.425 275.642 L 395.425 257.868 L 396.066 257.868 L 396.066 260.158 Q 396.73 258.936 397.857 258.283 Q 398.985 257.631 400.42 257.631 Q 402.675 257.631 403.968 259.357 Q 405.261 261.083 405.261 264.204 Z M 404.609 264.156 Q 404.609 261.392 403.511 259.832 Q 402.414 258.271 400.432 258.271 Q 398.818 258.271 397.691 259.108 Q 396.564 259.944 396.066 261.51 L 396.066 267.514 Q 396.564 268.843 397.697 269.573 Q 398.83 270.303 400.456 270.303 Q 402.425 270.303 403.517 268.736 Q 404.609 267.17 404.609 264.156 Z" transform="matrix(1.07029, 0, 0, 1.25511, -126.157639, -63.496986)" style="fill: rgb(34, 126, 162); stroke-width: 2.27063px; white-space: pre; vector-effect: non-scaling-stroke;"/>
  <path d="M 414.411 258.331 L 413.581 258.259 Q 411.943 258.259 410.84 259.321 Q 409.737 260.383 409.392 262.294 L 409.392 270.706 L 408.752 270.706 L 408.752 257.868 L 409.392 257.868 L 409.392 260.537 Q 409.914 259.197 410.959 258.414 Q 412.003 257.631 413.581 257.631 Q 414.139 257.631 414.483 257.761 Z" transform="matrix(1.07029, 0, 0, 1.25511, -126.157639, -63.496986)" style="fill: rgb(34, 126, 162); stroke-width: 2.27063px; white-space: pre; vector-effect: non-scaling-stroke;"/>
  <path d="M 421.258 270.943 Q 419.704 270.943 418.404 270.107 Q 417.105 269.27 416.369 267.811 Q 415.634 266.351 415.634 264.572 L 415.634 264.038 Q 415.634 262.258 416.346 260.775 Q 417.058 259.292 418.304 258.461 Q 419.549 257.631 421.021 257.631 Q 423.168 257.631 424.533 259.161 Q 425.897 260.692 425.897 263.183 L 425.897 263.86 L 416.275 263.86 L 416.275 264.56 Q 416.275 266.126 416.933 267.461 Q 417.592 268.796 418.748 269.555 Q 419.905 270.314 421.258 270.314 Q 422.551 270.314 423.459 269.881 Q 424.367 269.448 425.067 268.547 L 425.518 268.867 Q 424.082 270.943 421.258 270.943 Z M 421.021 258.271 Q 419.146 258.271 417.841 259.665 Q 416.536 261.06 416.31 263.219 L 425.257 263.219 L 425.257 263.065 Q 425.257 261.76 424.705 260.638 Q 424.153 259.517 423.186 258.894 Q 422.219 258.271 421.021 258.271 Z" transform="matrix(1.07029, 0, 0, 1.25511, -126.157639, -63.496986)" style="fill: rgb(34, 126, 162); stroke-width: 2.27063px; white-space: pre; vector-effect: non-scaling-stroke;"/>
  <path d="M 433.242 270.303 Q 434.986 270.303 436.119 269.377 Q 437.252 268.452 437.359 266.814 L 438 266.814 Q 437.905 268.677 436.564 269.81 Q 435.223 270.943 433.242 270.943 Q 430.833 270.943 429.415 269.199 Q 427.997 267.455 427.997 264.465 L 427.997 264.038 Q 427.997 261.119 429.415 259.375 Q 430.833 257.631 433.218 257.631 Q 435.259 257.631 436.588 258.853 Q 437.916 260.075 438 262.104 L 437.359 262.104 Q 437.276 260.371 436.143 259.321 Q 435.009 258.271 433.218 258.271 Q 431.07 258.271 429.854 259.82 Q 428.638 261.368 428.638 264.121 L 428.638 264.536 Q 428.638 267.229 429.866 268.766 Q 431.094 270.303 433.242 270.303 Z M 433.669 270.813 L 433.538 271.715 Q 435.638 271.904 435.638 273.72 Q 435.638 274.728 434.737 275.351 Q 433.835 275.974 432.257 275.974 L 432.174 275.393 Q 433.372 275.393 434.179 274.924 Q 434.986 274.455 434.986 273.72 Q 434.986 273.055 434.529 272.723 Q 434.072 272.391 432.743 272.248 L 433.04 270.813 Z" transform="matrix(1.07029, 0, 0, 1.25511, -126.157639, -63.496986)" style="fill: rgb(34, 126, 162); stroke-width: 2.27063px; white-space: pre; vector-effect: non-scaling-stroke;"/>
  <path d="M 440.239 264.038 Q 440.239 262.199 440.945 260.733 Q 441.651 259.268 442.938 258.449 Q 444.226 257.631 445.851 257.631 Q 447.465 257.631 448.746 258.425 Q 450.028 259.22 450.746 260.68 Q 451.464 262.139 451.475 263.967 L 451.475 264.536 Q 451.475 266.387 450.775 267.846 Q 450.075 269.306 448.788 270.125 Q 447.501 270.943 445.875 270.943 Q 444.25 270.943 442.962 270.136 Q 441.675 269.33 440.963 267.876 Q 440.251 266.423 440.239 264.607 Z M 440.88 264.536 Q 440.88 266.138 441.515 267.473 Q 442.149 268.808 443.283 269.555 Q 444.416 270.303 445.875 270.303 Q 448.07 270.303 449.452 268.653 Q 450.835 267.004 450.835 264.406 L 450.835 264.038 Q 450.835 262.46 450.194 261.119 Q 449.553 259.778 448.42 259.025 Q 447.287 258.271 445.851 258.271 Q 443.656 258.271 442.268 259.944 Q 440.88 261.617 440.88 264.156 Z" transform="matrix(1.07029, 0, 0, 1.25511, -126.157639, -63.496986)" style="fill: rgb(34, 126, 162); stroke-width: 2.27063px; white-space: pre; vector-effect: non-scaling-stroke;"/>
  <rect x="251.326" y="107.086" width="169.912" height="164.191" style="fill: rgb(34, 126, 162);" transform="matrix(1, 0, -0.370185, 1, 35.45435, -23.284807)" rx="15.153" ry="15.153"/>
  <path d="M 88.036 199.214 Q 90.584 199.214 91.983 197.832 Q 93.383 196.45 93.347 193.974 L 104.688 193.974 Q 104.688 200.362 100.112 204.453 Q 95.536 208.545 88.323 208.545 Q 79.853 208.545 74.972 203.233 Q 70.091 197.922 70.091 188.519 L 70.091 188.016 Q 70.091 182.131 72.262 177.627 Q 74.434 173.123 78.525 170.7 Q 82.616 168.278 88.215 168.278 Q 95.787 168.278 100.238 172.477 Q 104.688 176.676 104.688 183.853 L 93.347 183.853 Q 93.347 180.839 91.876 179.224 Q 90.404 177.609 87.928 177.609 Q 83.226 177.609 82.437 183.602 Q 82.186 185.504 82.186 188.842 Q 82.186 194.692 83.585 196.953 Q 84.985 199.214 88.036 199.214 Z" transform="matrix(1, 0, 0, 0.996558, 0, 0.28828)" style="fill: rgb(255, 123, 0); paint-order: stroke; stroke: rgb(255, 255, 255); stroke-width: 5px; white-space: pre;"/>
  <path d="M 108.268 188.052 Q 108.268 182.238 110.528 177.698 Q 112.789 173.159 117.024 170.718 Q 121.259 168.278 126.966 168.278 Q 135.686 168.278 140.711 173.679 Q 145.735 179.08 145.735 188.375 L 145.735 188.806 Q 145.735 197.886 140.693 203.215 Q 135.651 208.545 127.037 208.545 Q 118.747 208.545 113.723 203.574 Q 108.698 198.604 108.303 190.098 Z M 120.362 188.806 Q 120.362 194.189 122.049 196.702 Q 123.736 199.214 127.037 199.214 Q 133.497 199.214 133.641 189.273 L 133.641 188.052 Q 133.641 177.609 126.966 177.609 Q 120.9 177.609 120.398 186.617 Z" transform="matrix(1, 0, 0, 0.996558, 0, 0.28828)" style="fill: rgb(255, 123, 0); paint-order: stroke; stroke: rgb(255, 255, 255); stroke-width: 5px; white-space: pre;"/>
  <path d="M 165.155 159.341 L 165.155 168.995 L 171.543 168.995 L 171.543 177.393 L 165.155 177.393 L 165.155 195.158 Q 165.155 197.348 165.944 198.209 Q 166.734 199.07 169.066 199.07 Q 170.861 199.07 172.081 198.855 L 172.081 207.504 Q 168.815 208.545 165.262 208.545 Q 159.018 208.545 156.039 205.602 Q 153.06 202.659 153.06 196.666 L 153.06 177.393 L 148.107 177.393 L 148.107 168.995 L 153.06 168.995 L 153.06 159.341 Z" transform="matrix(1, 0, 0, 0.996558, 0, 0.28828)" style="fill: rgb(255, 123, 0); paint-order: stroke; stroke: rgb(255, 255, 255); stroke-width: 5px; white-space: pre;"/>
  <path d="M 198.174 207.827 Q 197.528 206.643 197.026 204.346 Q 193.688 208.545 187.695 208.545 Q 182.204 208.545 178.364 205.225 Q 174.524 201.905 174.524 196.881 Q 174.524 190.565 179.189 187.335 Q 183.855 184.105 192.755 184.105 L 196.487 184.105 L 196.487 182.059 Q 196.487 176.712 191.858 176.712 Q 187.551 176.712 187.551 180.946 L 175.457 180.946 Q 175.457 175.312 180.248 171.795 Q 185.039 168.278 192.468 168.278 Q 199.897 168.278 204.203 171.902 Q 208.51 175.527 208.618 181.844 L 208.618 199.034 Q 208.69 204.382 210.269 207.217 L 210.269 207.827 Z M 190.602 199.931 Q 192.863 199.931 194.352 198.962 Q 195.841 197.993 196.487 196.773 L 196.487 190.565 L 192.97 190.565 Q 186.654 190.565 186.654 196.235 Q 186.654 197.886 187.766 198.909 Q 188.879 199.931 190.602 199.931 Z" transform="matrix(1, 0, 0, 0.996558, 0, 0.28828)" style="fill: rgb(255, 123, 0); paint-order: stroke; stroke: rgb(255, 255, 255); stroke-width: 5px; white-space: pre;"/>
  <path d="M 251.41 198.065 L 234.147 198.065 L 231.133 207.827 L 217.674 207.827 L 236.839 155.573 L 248.682 155.573 L 267.99 207.827 L 254.46 207.827 Z M 237.162 188.339 L 248.395 188.339 L 242.76 170.216 Z" transform="matrix(1, 0, 0, 0.996558, 0, 0.28828)" style="fill: rgb(255, 255, 255); white-space: pre;"/>
  <path d="M 313.312 190.134 Q 313.061 195.589 310.369 199.77 Q 307.677 203.951 302.814 206.248 Q 297.951 208.545 291.707 208.545 Q 281.407 208.545 275.485 201.834 Q 269.564 195.122 269.564 182.884 L 269.564 180.3 Q 269.564 172.62 272.237 166.86 Q 274.911 161.1 279.935 157.96 Q 284.96 154.819 291.563 154.819 Q 301.074 154.819 306.852 159.826 Q 312.63 164.832 313.419 173.625 L 300.858 173.625 Q 300.715 168.852 298.454 166.77 Q 296.193 164.689 291.563 164.689 Q 286.862 164.689 284.673 168.206 Q 282.483 171.723 282.376 179.439 L 282.376 183.136 Q 282.376 191.498 284.475 195.087 Q 286.575 198.675 291.707 198.675 Q 296.049 198.675 298.346 196.63 Q 300.643 194.584 300.787 190.134 Z M 296.444 207.468 L 296.085 209.657 Q 301.469 210.662 301.469 215.866 Q 301.469 220.029 297.916 222.398 Q 294.363 224.766 288.046 224.766 L 287.795 218.091 Q 290.953 218.091 290.953 215.328 Q 290.953 213.964 289.823 213.426 Q 288.692 212.887 286.144 212.708 L 287.257 207.468 Z" transform="matrix(1, 0, 0, 0.996558, 0, 0.28828)" style="fill: rgb(255, 255, 255); white-space: pre;"/>
  <path d="M 363.511 182.777 Q 363.511 190.421 360.676 196.307 Q 357.84 202.192 352.619 205.369 Q 347.397 208.545 340.722 208.545 Q 334.046 208.545 328.878 205.476 Q 323.71 202.408 320.821 196.702 Q 317.932 190.995 317.789 183.602 L 317.789 180.659 Q 317.789 172.979 320.606 167.111 Q 323.423 161.243 328.681 158.049 Q 333.939 154.855 340.65 154.855 Q 347.289 154.855 352.493 158.014 Q 357.697 161.172 360.586 167.004 Q 363.475 172.836 363.511 180.372 Z M 350.699 180.587 Q 350.699 172.8 348.097 168.762 Q 345.495 164.725 340.65 164.725 Q 331.175 164.725 330.637 178.937 L 330.601 182.777 Q 330.601 190.457 333.149 194.584 Q 335.697 198.711 340.722 198.711 Q 345.495 198.711 348.079 194.656 Q 350.663 190.6 350.699 182.992 Z" transform="matrix(1, 0, 0, 0.996558, 0, 0.28828)" style="fill: rgb(255, 255, 255); white-space: pre;"/>
  <path d="M 374.087 196.091 Q 376.958 196.091 378.86 197.796 Q 380.763 199.501 380.763 202.157 Q 380.763 204.812 378.86 206.517 Q 376.958 208.222 374.087 208.222 Q 371.18 208.222 369.296 206.499 Q 367.412 204.776 367.412 202.157 Q 367.412 199.537 369.296 197.814 Q 371.18 196.091 374.087 196.091 Z" transform="matrix(1, 0, 0, 0.996558, 0, 0.28828)" style="fill: rgb(255, 123, 0); paint-order: stroke; stroke: rgb(255, 255, 255); stroke-width: 5px; white-space: pre;"/>
  <path d="M 405.234 199.214 Q 407.782 199.214 409.182 197.832 Q 410.582 196.45 410.546 193.974 L 421.887 193.974 Q 421.887 200.362 417.311 204.453 Q 412.735 208.545 405.521 208.545 Q 397.052 208.545 392.171 203.233 Q 387.29 197.922 387.29 188.519 L 387.29 188.016 Q 387.29 182.131 389.461 177.627 Q 391.633 173.123 395.724 170.7 Q 399.815 168.278 405.414 168.278 Q 412.986 168.278 417.436 172.477 Q 421.887 176.676 421.887 183.853 L 410.546 183.853 Q 410.546 180.839 409.074 179.224 Q 407.603 177.609 405.127 177.609 Q 400.425 177.609 399.636 183.602 Q 399.384 185.504 399.384 188.842 Q 399.384 194.692 400.784 196.953 Q 402.184 199.214 405.234 199.214 Z" transform="matrix(1, 0, 0, 0.996558, 0, 0.28828)" style="fill: rgb(255, 123, 0); paint-order: stroke; stroke: rgb(255, 255, 255); stroke-width: 5px; white-space: pre;"/>
  <path d="M 425.466 188.052 Q 425.466 182.238 427.727 177.698 Q 429.988 173.159 434.223 170.718 Q 438.458 168.278 444.164 168.278 Q 452.885 168.278 457.91 173.679 Q 462.934 179.08 462.934 188.375 L 462.934 188.806 Q 462.934 197.886 457.892 203.215 Q 452.849 208.545 444.236 208.545 Q 435.946 208.545 430.921 203.574 Q 425.897 198.604 425.502 190.098 Z M 437.561 188.806 Q 437.561 194.189 439.248 196.702 Q 440.934 199.214 444.236 199.214 Q 450.696 199.214 450.84 189.273 L 450.84 188.052 Q 450.84 177.609 444.164 177.609 Q 438.099 177.609 437.597 186.617 Z" transform="matrix(1, 0, 0, 0.996558, 0, 0.28828)" style="fill: rgb(255, 123, 0); paint-order: stroke; stroke: rgb(255, 255, 255); stroke-width: 5px; white-space: pre;"/>
  <path d="M 479.698 168.995 L 480.092 173.553 Q 484.22 168.278 491.182 168.278 Q 498.539 168.278 501.123 174.128 Q 505.071 168.278 512.536 168.278 Q 524.343 168.278 524.666 182.561 L 524.666 207.827 L 512.536 207.827 L 512.536 183.315 Q 512.536 180.336 511.531 178.973 Q 510.526 177.609 507.87 177.609 Q 504.281 177.609 502.523 180.803 L 502.559 181.305 L 502.559 207.827 L 490.428 207.827 L 490.428 183.387 Q 490.428 180.336 489.459 178.973 Q 488.49 177.609 485.763 177.609 Q 482.282 177.609 480.451 180.803 L 480.451 207.827 L 468.357 207.827 L 468.357 168.995 Z" transform="matrix(1, 0, 0, 0.996558, 0, 0.28828)" style="fill: rgb(255, 123, 0); paint-order: stroke; stroke: rgb(255, 255, 255); stroke-width: 5px; white-space: pre;"/>
</svg>