<?xml version="1.0" encoding="utf-8"?>
<svg viewBox="46.565 55.8 511.666 251.013" xmlns="http://www.w3.org/2000/svg">
  <path d="M 293.401 264.168 Q 293.401 262.282 294.143 260.775 Q 294.884 259.268 296.207 258.449 Q 297.53 257.631 299.227 257.631 Q 301.849 257.631 303.469 259.446 Q 305.088 261.261 305.088 264.275 L 305.088 264.429 Q 305.088 266.304 304.37 267.793 Q 303.653 269.282 302.318 270.113 Q 300.983 270.943 299.251 270.943 Q 296.64 270.943 295.021 269.128 Q 293.401 267.313 293.401 264.322 Z M 295.608 264.429 Q 295.608 266.565 296.599 267.858 Q 297.589 269.152 299.251 269.152 Q 300.924 269.152 301.908 267.841 Q 302.893 266.529 302.893 264.168 Q 302.893 262.056 301.891 260.745 Q 300.888 259.434 299.227 259.434 Q 297.601 259.434 296.605 260.727 Q 295.608 262.021 295.608 264.429 Z" transform="matrix(1.07029, 0, 0, 1.25511, -125.593689, -64.974098)" style="fill: rgb(34, 126, 162); stroke-width: 2.27063px; white-space: pre; vector-effect: non-scaling-stroke;"/>
  <path d="M 315.915 257.868 L 315.974 259.292 Q 317.386 257.631 319.783 257.631 Q 322.476 257.631 323.449 259.695 Q 324.09 258.77 325.116 258.2 Q 326.142 257.631 327.543 257.631 Q 331.767 257.631 331.838 262.104 L 331.838 270.706 L 329.643 270.706 L 329.643 262.234 Q 329.643 260.858 329.014 260.176 Q 328.385 259.493 326.902 259.493 Q 325.68 259.493 324.873 260.223 Q 324.066 260.953 323.936 262.187 L 323.936 270.706 L 321.729 270.706 L 321.729 262.294 Q 321.729 259.493 318.988 259.493 Q 316.828 259.493 316.033 261.332 L 316.033 270.706 L 313.838 270.706 L 313.838 257.868 Z" transform="matrix(1.07029, 0, 0, 1.25511, -125.593689, -64.974098)" style="fill: rgb(34, 126, 162); stroke-width: 2.27063px; white-space: pre; vector-effect: non-scaling-stroke;"/>
  <path d="M 340.479 270.943 Q 337.868 270.943 336.231 269.229 Q 334.594 267.514 334.594 264.643 L 334.594 264.239 Q 334.594 262.329 335.323 260.828 Q 336.053 259.327 337.364 258.479 Q 338.675 257.631 340.206 257.631 Q 342.709 257.631 344.098 259.28 Q 345.486 260.929 345.486 264.002 L 345.486 264.916 L 336.789 264.916 Q 336.836 266.814 337.898 267.983 Q 338.96 269.152 340.597 269.152 Q 341.76 269.152 342.567 268.677 Q 343.374 268.202 343.979 267.419 L 345.32 268.463 Q 343.706 270.943 340.479 270.943 Z M 340.206 259.434 Q 338.877 259.434 337.975 260.401 Q 337.074 261.368 336.86 263.112 L 343.291 263.112 L 343.291 262.946 Q 343.196 261.273 342.389 260.354 Q 341.582 259.434 340.206 259.434 Z" transform="matrix(1.07029, 0, 0, 1.25511, -125.593689, -64.974098)" style="fill: rgb(34, 126, 162); stroke-width: 2.27063px; white-space: pre; vector-effect: non-scaling-stroke;"/>
  <path d="M 350.411 270.706 L 348.216 270.706 L 348.216 252.481 L 350.411 252.481 Z" transform="matrix(1.07029, 0, 0, 1.25511, -125.593689, -64.974098)" style="fill: rgb(34, 126, 162); stroke-width: 2.27063px; white-space: pre; vector-effect: non-scaling-stroke;"/>
  <path d="M 356.116 259.422 Q 357.575 257.631 359.912 257.631 Q 363.982 257.631 364.018 262.222 L 364.018 270.706 L 361.823 270.706 L 361.823 262.21 Q 361.811 260.822 361.188 260.158 Q 360.565 259.493 359.248 259.493 Q 358.18 259.493 357.373 260.063 Q 356.566 260.632 356.116 261.558 L 356.116 270.706 L 353.921 270.706 L 353.921 252.481 L 356.116 252.481 Z" transform="matrix(1.07029, 0, 0, 1.25511, -125.593689, -64.974098)" style="fill: rgb(34, 126, 162); stroke-width: 2.27063px; white-space: pre; vector-effect: non-scaling-stroke;"/>
  <path d="M 366.723 264.168 Q 366.723 262.282 367.464 260.775 Q 368.206 259.268 369.529 258.449 Q 370.852 257.631 372.549 257.631 Q 375.171 257.631 376.79 259.446 Q 378.41 261.261 378.41 264.275 L 378.41 264.429 Q 378.41 266.304 377.692 267.793 Q 376.974 269.282 375.639 270.113 Q 374.305 270.943 372.572 270.943 Q 369.962 270.943 368.342 269.128 Q 366.723 267.313 366.723 264.322 Z M 368.93 264.429 Q 368.93 266.565 369.92 267.858 Q 370.911 269.152 372.572 269.152 Q 374.245 269.152 375.23 267.841 Q 376.215 266.529 376.215 264.168 Q 376.215 262.056 375.212 260.745 Q 374.21 259.434 372.549 259.434 Q 370.923 259.434 369.926 260.727 Q 368.93 262.021 368.93 264.429 Z" transform="matrix(1.07029, 0, 0, 1.25511, -125.593689, -64.974098)" style="fill: rgb(34, 126, 162); stroke-width: 2.27063px; white-space: pre; vector-effect: non-scaling-stroke;"/>
  <path d="M 387.362 259.837 Q 386.864 259.754 386.282 259.754 Q 384.123 259.754 383.352 261.593 L 383.352 270.706 L 381.157 270.706 L 381.157 257.868 L 383.292 257.868 L 383.328 259.351 Q 384.408 257.631 386.389 257.631 Q 387.03 257.631 387.362 257.797 Z" transform="matrix(1.07029, 0, 0, 1.25511, -125.593689, -64.974098)" style="fill: rgb(34, 126, 162); stroke-width: 2.27063px; white-space: pre; vector-effect: non-scaling-stroke;"/>
  <path d="M 406.242 264.429 Q 406.242 267.36 404.902 269.152 Q 403.561 270.943 401.271 270.943 Q 398.933 270.943 397.593 269.46 L 397.593 275.642 L 395.398 275.642 L 395.398 257.868 L 397.403 257.868 L 397.51 259.292 Q 398.85 257.631 401.235 257.631 Q 403.549 257.631 404.896 259.375 Q 406.242 261.119 406.242 264.228 Z M 404.047 264.18 Q 404.047 262.009 403.122 260.751 Q 402.196 259.493 400.583 259.493 Q 398.589 259.493 397.593 261.261 L 397.593 267.396 Q 398.577 269.152 400.606 269.152 Q 402.185 269.152 403.116 267.9 Q 404.047 266.648 404.047 264.18 Z" transform="matrix(1.07029, 0, 0, 1.25511, -125.593689, -64.974098)" style="fill: rgb(34, 126, 162); stroke-width: 2.27063px; white-space: pre; vector-effect: non-scaling-stroke;"/>
  <path d="M 415.228 259.837 Q 414.73 259.754 414.148 259.754 Q 411.989 259.754 411.217 261.593 L 411.217 270.706 L 409.022 270.706 L 409.022 257.868 L 411.158 257.868 L 411.194 259.351 Q 412.273 257.631 414.255 257.631 Q 414.896 257.631 415.228 257.797 Z" transform="matrix(1.07029, 0, 0, 1.25511, -125.593689, -64.974098)" style="fill: rgb(34, 126, 162); stroke-width: 2.27063px; white-space: pre; vector-effect: non-scaling-stroke;"/>
  <path d="M 422.348 270.943 Q 419.738 270.943 418.1 269.229 Q 416.463 267.514 416.463 264.643 L 416.463 264.239 Q 416.463 262.329 417.192 260.828 Q 417.922 259.327 419.233 258.479 Q 420.544 257.631 422.075 257.631 Q 424.579 257.631 425.967 259.28 Q 427.355 260.929 427.355 264.002 L 427.355 264.916 L 418.658 264.916 Q 418.705 266.814 419.767 267.983 Q 420.829 269.152 422.467 269.152 Q 423.629 269.152 424.436 268.677 Q 425.243 268.202 425.848 267.419 L 427.189 268.463 Q 425.575 270.943 422.348 270.943 Z M 422.075 259.434 Q 420.746 259.434 419.844 260.401 Q 418.943 261.368 418.729 263.112 L 425.16 263.112 L 425.16 262.946 Q 425.065 261.273 424.258 260.354 Q 423.451 259.434 422.075 259.434 Z" transform="matrix(1.07029, 0, 0, 1.25511, -125.593689, -64.974098)" style="fill: rgb(34, 126, 162); stroke-width: 2.27063px; white-space: pre; vector-effect: non-scaling-stroke;"/>
  <path d="M 435.044 269.152 Q 436.219 269.152 437.097 268.44 Q 437.975 267.728 438.07 266.66 L 440.146 266.66 Q 440.087 267.763 439.387 268.76 Q 438.687 269.757 437.518 270.35 Q 436.35 270.943 435.044 270.943 Q 432.422 270.943 430.874 269.193 Q 429.325 267.443 429.325 264.406 L 429.325 264.038 Q 429.325 262.163 430.014 260.704 Q 430.702 259.244 431.989 258.437 Q 433.276 257.631 435.033 257.631 Q 437.192 257.631 438.622 258.924 Q 440.052 260.217 440.146 262.282 L 438.07 262.282 Q 437.975 261.036 437.127 260.235 Q 436.278 259.434 435.033 259.434 Q 433.36 259.434 432.44 260.638 Q 431.52 261.843 431.52 264.121 L 431.52 264.536 Q 431.52 266.755 432.434 267.953 Q 433.348 269.152 435.044 269.152 Z M 435.4 270.813 L 435.258 271.43 Q 437.073 271.75 437.073 273.482 Q 437.073 274.633 436.124 275.304 Q 435.175 275.974 433.478 275.974 L 433.395 274.705 Q 434.332 274.705 434.849 274.396 Q 435.365 274.088 435.365 273.53 Q 435.365 273.008 434.985 272.759 Q 434.605 272.51 433.443 272.403 L 433.822 270.813 Z" transform="matrix(1.07029, 0, 0, 1.25511, -125.593689, -64.974098)" style="fill: rgb(34, 126, 162); stroke-width: 2.27063px; white-space: pre; vector-effect: non-scaling-stroke;"/>
  <path d="M 442.041 264.168 Q 442.041 262.282 442.782 260.775 Q 443.524 259.268 444.847 258.449 Q 446.17 257.631 447.866 257.631 Q 450.489 257.631 452.108 259.446 Q 453.728 261.261 453.728 264.275 L 453.728 264.429 Q 453.728 266.304 453.01 267.793 Q 452.292 269.282 450.957 270.113 Q 449.623 270.943 447.89 270.943 Q 445.28 270.943 443.66 269.128 Q 442.041 267.313 442.041 264.322 Z M 444.248 264.429 Q 444.248 266.565 445.238 267.858 Q 446.229 269.152 447.89 269.152 Q 449.563 269.152 450.548 267.841 Q 451.533 266.529 451.533 264.168 Q 451.533 262.056 450.53 260.745 Q 449.528 259.434 447.866 259.434 Q 446.241 259.434 445.244 260.727 Q 444.248 262.021 444.248 264.429 Z" transform="matrix(1.07029, 0, 0, 1.25511, -125.593689, -64.974098)" style="fill: rgb(34, 126, 162); stroke-width: 2.27063px; white-space: pre; vector-effect: non-scaling-stroke;"/>
  <rect x="251.326" y="107.086" width="169.912" height="164.191" style="fill: rgb(34, 126, 162);" transform="matrix(1, 0, -0.370185, 1, 35.45435, -23.284807)" rx="15.153" ry="15.153"/>
  <path d="M 88.036 199.214 Q 90.584 199.214 91.983 197.832 Q 93.383 196.45 93.347 193.974 L 104.688 193.974 Q 104.688 200.362 100.112 204.453 Q 95.536 208.545 88.323 208.545 Q 79.853 208.545 74.972 203.233 Q 70.091 197.922 70.091 188.519 L 70.091 188.016 Q 70.091 182.131 72.262 177.627 Q 74.434 173.123 78.525 170.7 Q 82.616 168.278 88.215 168.278 Q 95.787 168.278 100.238 172.477 Q 104.688 176.676 104.688 183.853 L 93.347 183.853 Q 93.347 180.839 91.876 179.224 Q 90.404 177.609 87.928 177.609 Q 83.226 177.609 82.437 183.602 Q 82.186 185.504 82.186 188.842 Q 82.186 194.692 83.585 196.953 Q 84.985 199.214 88.036 199.214 Z" transform="matrix(1, 0, 0, 0.996558, 0, 0.28828)" style="fill: rgb(255, 123, 0); paint-order: stroke; stroke: rgb(255, 255, 255); stroke-width: 5px; white-space: pre;"/>
  <path d="M 108.268 188.052 Q 108.268 182.238 110.529 177.698 Q 112.79 173.159 117.025 170.718 Q 121.26 168.278 126.966 168.278 Q 135.687 168.278 140.712 173.679 Q 145.736 179.08 145.736 188.375 L 145.736 188.806 Q 145.736 197.886 140.694 203.215 Q 135.651 208.545 127.038 208.545 Q 118.748 208.545 113.723 203.574 Q 108.699 198.604 108.304 190.098 Z M 120.363 188.806 Q 120.363 194.189 122.049 196.702 Q 123.736 199.214 127.038 199.214 Q 133.498 199.214 133.641 189.273 L 133.641 188.052 Q 133.641 177.609 126.966 177.609 Q 120.901 177.609 120.399 186.617 Z" transform="matrix(1, 0, 0, 0.996558, 0, 0.28828)" style="fill: rgb(255, 123, 0); paint-order: stroke; stroke: rgb(255, 255, 255); stroke-width: 5px; white-space: pre;"/>
  <path d="M 165.14 159.341 L 165.14 168.995 L 171.529 168.995 L 171.529 177.393 L 165.14 177.393 L 165.14 195.158 Q 165.14 197.348 165.93 198.209 Q 166.719 199.07 169.052 199.07 Q 170.847 199.07 172.067 198.855 L 172.067 207.504 Q 168.801 208.545 165.248 208.545 Q 159.003 208.545 156.025 205.602 Q 153.046 202.659 153.046 196.666 L 153.046 177.393 L 148.093 177.393 L 148.093 168.995 L 153.046 168.995 L 153.046 159.341 Z" transform="matrix(1, 0, 0, 0.996558, 0, 0.28828)" style="fill: rgb(255, 123, 0); paint-order: stroke; stroke: rgb(255, 255, 255); stroke-width: 5px; white-space: pre;"/>
  <path d="M 198.16 207.827 Q 197.514 206.643 197.012 204.346 Q 193.674 208.545 187.681 208.545 Q 182.19 208.545 178.35 205.225 Q 174.51 201.905 174.51 196.881 Q 174.51 190.565 179.175 187.335 Q 183.841 184.105 192.741 184.105 L 196.474 184.105 L 196.474 182.059 Q 196.474 176.712 191.844 176.712 Q 187.537 176.712 187.537 180.946 L 175.443 180.946 Q 175.443 175.312 180.234 171.795 Q 185.025 168.278 192.454 168.278 Q 199.883 168.278 204.19 171.902 Q 208.496 175.527 208.604 181.844 L 208.604 199.034 Q 208.676 204.382 210.255 207.217 L 210.255 207.827 Z M 190.588 199.931 Q 192.849 199.931 194.338 198.962 Q 195.828 197.993 196.474 196.773 L 196.474 190.565 L 192.957 190.565 Q 186.64 190.565 186.64 196.235 Q 186.64 197.886 187.753 198.909 Q 188.865 199.931 190.588 199.931 Z" transform="matrix(1, 0, 0, 0.996558, 0, 0.28828)" style="fill: rgb(255, 123, 0); paint-order: stroke; stroke: rgb(255, 255, 255); stroke-width: 5px; white-space: pre;"/>
  <path d="M 251.41 198.065 L 234.147 198.065 L 231.133 207.827 L 217.674 207.827 L 236.839 155.573 L 248.682 155.573 L 267.99 207.827 L 254.46 207.827 Z M 237.162 188.339 L 248.395 188.339 L 242.76 170.216 Z" transform="matrix(1, 0, 0, 0.996558, 0, 0.28828)" style="fill: rgb(255, 255, 255); white-space: pre;"/>
  <path d="M 313.297 190.134 Q 313.046 195.589 310.354 199.77 Q 307.662 203.951 302.8 206.248 Q 297.937 208.545 291.692 208.545 Q 281.392 208.545 275.47 201.834 Q 269.549 195.122 269.549 182.884 L 269.549 180.3 Q 269.549 172.62 272.222 166.86 Q 274.896 161.1 279.921 157.96 Q 284.945 154.819 291.548 154.819 Q 301.059 154.819 306.837 159.826 Q 312.615 164.832 313.405 173.625 L 300.844 173.625 Q 300.7 168.852 298.439 166.77 Q 296.178 164.689 291.548 164.689 Q 286.847 164.689 284.658 168.206 Q 282.469 171.723 282.361 179.439 L 282.361 183.136 Q 282.361 191.498 284.46 195.087 Q 286.56 198.675 291.692 198.675 Q 296.035 198.675 298.331 196.63 Q 300.628 194.584 300.772 190.134 Z M 296.429 207.468 L 296.07 209.657 Q 301.454 210.662 301.454 215.866 Q 301.454 220.029 297.901 222.398 Q 294.348 224.766 288.031 224.766 L 287.78 218.091 Q 290.938 218.091 290.938 215.328 Q 290.938 213.964 289.808 213.426 Q 288.677 212.887 286.129 212.708 L 287.242 207.468 Z" transform="matrix(1, 0, 0, 0.996558, 0, 0.28828)" style="fill: rgb(255, 255, 255); white-space: pre;"/>
  <path d="M 363.513 182.777 Q 363.513 190.421 360.677 196.307 Q 357.842 202.192 352.62 205.369 Q 347.399 208.545 340.723 208.545 Q 334.048 208.545 328.88 205.476 Q 323.712 202.408 320.823 196.702 Q 317.934 190.995 317.79 183.602 L 317.79 180.659 Q 317.79 172.979 320.608 167.111 Q 323.425 161.243 328.683 158.049 Q 333.94 154.855 340.651 154.855 Q 347.291 154.855 352.495 158.014 Q 357.699 161.172 360.588 167.004 Q 363.477 172.836 363.513 180.372 Z M 350.7 180.587 Q 350.7 172.8 348.098 168.762 Q 345.496 164.725 340.651 164.725 Q 331.177 164.725 330.639 178.937 L 330.603 182.777 Q 330.603 190.457 333.151 194.584 Q 335.699 198.711 340.723 198.711 Q 345.496 198.711 348.08 194.656 Q 350.664 190.6 350.7 182.992 Z" transform="matrix(1, 0, 0, 0.996558, 0, 0.28828)" style="fill: rgb(255, 255, 255); white-space: pre;"/>
  <path d="M 374.087 196.091 Q 376.958 196.091 378.86 197.796 Q 380.763 199.501 380.763 202.157 Q 380.763 204.812 378.86 206.517 Q 376.958 208.222 374.087 208.222 Q 371.18 208.222 369.296 206.499 Q 367.412 204.776 367.412 202.157 Q 367.412 199.537 369.296 197.814 Q 371.18 196.091 374.087 196.091 Z" transform="matrix(1, 0, 0, 0.996558, 0, 0.28828)" style="fill: rgb(255, 123, 0); paint-order: stroke; stroke: rgb(255, 255, 255); stroke-width: 5px; white-space: pre;"/>
  <path d="M 405.235 199.214 Q 407.783 199.214 409.182 197.832 Q 410.582 196.45 410.546 193.974 L 421.887 193.974 Q 421.887 200.362 417.311 204.453 Q 412.735 208.545 405.522 208.545 Q 397.052 208.545 392.171 203.233 Q 387.29 197.922 387.29 188.519 L 387.29 188.016 Q 387.29 182.131 389.462 177.627 Q 391.633 173.123 395.724 170.7 Q 399.816 168.278 405.414 168.278 Q 412.987 168.278 417.437 172.477 Q 421.887 176.676 421.887 183.853 L 410.546 183.853 Q 410.546 180.839 409.075 179.224 Q 407.603 177.609 405.127 177.609 Q 400.426 177.609 399.636 183.602 Q 399.385 185.504 399.385 188.842 Q 399.385 194.692 400.785 196.953 Q 402.184 199.214 405.235 199.214 Z" transform="matrix(1, 0, 0, 0.996558, 0, 0.28828)" style="fill: rgb(255, 123, 0); paint-order: stroke; stroke: rgb(255, 255, 255); stroke-width: 5px; white-space: pre;"/>
  <path d="M 425.467 188.052 Q 425.467 182.238 427.728 177.698 Q 429.989 173.159 434.224 170.718 Q 438.459 168.278 444.165 168.278 Q 452.886 168.278 457.911 173.679 Q 462.935 179.08 462.935 188.375 L 462.935 188.806 Q 462.935 197.886 457.893 203.215 Q 452.85 208.545 444.237 208.545 Q 435.947 208.545 430.922 203.574 Q 425.898 198.604 425.503 190.098 Z M 437.562 188.806 Q 437.562 194.189 439.249 196.702 Q 440.935 199.214 444.237 199.214 Q 450.697 199.214 450.841 189.273 L 450.841 188.052 Q 450.841 177.609 444.165 177.609 Q 438.1 177.609 437.598 186.617 Z" transform="matrix(1, 0, 0, 0.996558, 0, 0.28828)" style="fill: rgb(255, 123, 0); paint-order: stroke; stroke: rgb(255, 255, 255); stroke-width: 5px; white-space: pre;"/>
  <path d="M 479.684 168.995 L 480.079 173.553 Q 484.206 168.278 491.168 168.278 Q 498.525 168.278 501.109 174.128 Q 505.057 168.278 512.522 168.278 Q 524.329 168.278 524.652 182.561 L 524.652 207.827 L 512.522 207.827 L 512.522 183.315 Q 512.522 180.336 511.517 178.973 Q 510.512 177.609 507.856 177.609 Q 504.268 177.609 502.509 180.803 L 502.545 181.305 L 502.545 207.827 L 490.414 207.827 L 490.414 183.387 Q 490.414 180.336 489.445 178.973 Q 488.477 177.609 485.749 177.609 Q 482.268 177.609 480.437 180.803 L 480.437 207.827 L 468.343 207.827 L 468.343 168.995 Z" transform="matrix(1, 0, 0, 0.996558, 0, 0.28828)" style="fill: rgb(255, 123, 0); paint-order: stroke; stroke: rgb(255, 255, 255); stroke-width: 5px; white-space: pre;"/>
</svg>