<?xml version="1.0" encoding="utf-8"?>
<svg viewBox="123.105 49.994 472.307 225.66" xmlns="http://www.w3.org/2000/svg">
  <path d="M 292.897 264.275 Q 292.897 262.385 293.632 260.908 Q 294.368 259.432 295.745 258.638 Q 297.122 257.845 298.978 257.845 Q 301.814 257.845 303.448 259.601 Q 305.082 261.357 305.082 264.38 L 305.082 264.52 Q 305.082 267.473 303.442 269.206 Q 301.802 270.939 299.001 270.939 Q 296.305 270.939 294.671 269.323 Q 293.037 267.707 292.909 264.94 Z M 296.83 264.52 Q 296.83 266.271 297.379 267.088 Q 297.927 267.905 299.001 267.905 Q 301.102 267.905 301.149 264.672 L 301.149 264.275 Q 301.149 260.879 298.978 260.879 Q 297.005 260.879 296.842 263.808 Z" transform="matrix(1.07029, 0, 0, 1.25511, -65.97319, -78.651146)" style="fill: rgb(66, 152, 181); stroke-width: 2.27063px; white-space: pre; vector-effect: non-scaling-stroke;"/>
  <path d="M 316.468 258.078 L 316.597 259.56 Q 317.939 257.845 320.203 257.845 Q 322.596 257.845 323.436 259.747 Q 324.72 257.845 327.147 257.845 Q 330.987 257.845 331.092 262.49 L 331.092 270.706 L 327.147 270.706 L 327.147 262.735 Q 327.147 261.766 326.821 261.322 Q 326.494 260.879 325.63 260.879 Q 324.463 260.879 323.891 261.918 L 323.903 262.081 L 323.903 270.706 L 319.958 270.706 L 319.958 262.758 Q 319.958 261.766 319.643 261.322 Q 319.328 260.879 318.441 260.879 Q 317.309 260.879 316.714 261.918 L 316.714 270.706 L 312.78 270.706 L 312.78 258.078 Z" transform="matrix(1.07029, 0, 0, 1.25511, -65.97319, -78.651146)" style="fill: rgb(66, 152, 181); stroke-width: 2.27063px; white-space: pre; vector-effect: non-scaling-stroke;"/>
  <path d="M 339.452 270.939 Q 336.545 270.939 334.748 269.206 Q 332.951 267.473 332.951 264.695 L 332.951 264.369 Q 332.951 262.431 333.669 260.949 Q 334.386 259.467 335.763 258.656 Q 337.141 257.845 339.031 257.845 Q 341.692 257.845 343.233 259.496 Q 344.774 261.147 344.774 264.1 L 344.774 265.629 L 336.954 265.629 Q 337.164 266.691 337.876 267.298 Q 338.588 267.905 339.72 267.905 Q 341.587 267.905 342.638 266.598 L 344.435 268.722 Q 343.7 269.737 342.352 270.338 Q 341.004 270.939 339.452 270.939 Z M 339.008 260.879 Q 337.281 260.879 336.954 263.166 L 340.922 263.166 L 340.922 262.863 Q 340.945 261.918 340.444 261.398 Q 339.942 260.879 339.008 260.879 Z" transform="matrix(1.07029, 0, 0, 1.25511, -65.97319, -78.651146)" style="fill: rgb(66, 152, 181); stroke-width: 2.27063px; white-space: pre; vector-effect: non-scaling-stroke;"/>
  <path d="M 350.499 270.706 L 346.554 270.706 L 346.554 252.779 L 350.499 252.779 Z" transform="matrix(1.07029, 0, 0, 1.25511, -65.97319, -78.651146)" style="fill: rgb(66, 152, 181); stroke-width: 2.27063px; white-space: pre; vector-effect: non-scaling-stroke;"/>
  <path d="M 356.76 259.432 Q 358.02 257.845 359.981 257.845 Q 362.07 257.845 363.132 259.082 Q 364.194 260.319 364.218 262.735 L 364.218 270.706 L 360.273 270.706 L 360.273 262.828 Q 360.273 261.824 359.864 261.352 Q 359.456 260.879 358.475 260.879 Q 357.262 260.879 356.76 261.649 L 356.76 270.706 L 352.827 270.706 L 352.827 252.779 L 356.76 252.779 Z" transform="matrix(1.07029, 0, 0, 1.25511, -65.97319, -78.651146)" style="fill: rgb(66, 152, 181); stroke-width: 2.27063px; white-space: pre; vector-effect: non-scaling-stroke;"/>
  <path d="M 365.908 264.275 Q 365.908 262.385 366.644 260.908 Q 367.379 259.432 368.756 258.638 Q 370.133 257.845 371.989 257.845 Q 374.825 257.845 376.459 259.601 Q 378.093 261.357 378.093 264.38 L 378.093 264.52 Q 378.093 267.473 376.453 269.206 Q 374.814 270.939 372.012 270.939 Q 369.316 270.939 367.682 269.323 Q 366.049 267.707 365.92 264.94 Z M 369.842 264.52 Q 369.842 266.271 370.39 267.088 Q 370.939 267.905 372.012 267.905 Q 374.113 267.905 374.16 264.672 L 374.16 264.275 Q 374.16 260.879 371.989 260.879 Q 370.017 260.879 369.853 263.808 Z" transform="matrix(1.07029, 0, 0, 1.25511, -65.97319, -78.651146)" style="fill: rgb(66, 152, 181); stroke-width: 2.27063px; white-space: pre; vector-effect: non-scaling-stroke;"/>
  <path d="M 387.453 261.638 L 386.158 261.544 Q 384.302 261.544 383.777 262.711 L 383.777 270.706 L 379.844 270.706 L 379.844 258.078 L 383.532 258.078 L 383.66 259.7 Q 384.652 257.845 386.426 257.845 Q 387.056 257.845 387.523 257.985 Z" transform="matrix(1.07029, 0, 0, 1.25511, -65.97319, -78.651146)" style="fill: rgb(66, 152, 181); stroke-width: 2.27063px; white-space: pre; vector-effect: non-scaling-stroke;"/>
  <path d="M 406.542 264.485 Q 406.542 267.426 405.218 269.183 Q 403.893 270.939 401.64 270.939 Q 399.901 270.939 398.781 269.667 L 398.781 275.561 L 394.848 275.561 L 394.848 258.078 L 398.524 258.078 L 398.641 259.245 Q 399.773 257.845 401.617 257.845 Q 403.951 257.845 405.247 259.566 Q 406.542 261.287 406.542 264.299 Z M 402.609 264.24 Q 402.609 260.879 400.648 260.879 Q 399.248 260.879 398.781 261.883 L 398.781 266.855 Q 399.295 267.905 400.672 267.905 Q 402.551 267.905 402.609 264.66 Z" transform="matrix(1.07029, 0, 0, 1.25511, -65.97319, -78.651146)" style="fill: rgb(66, 152, 181); stroke-width: 2.27063px; white-space: pre; vector-effect: non-scaling-stroke;"/>
  <path d="M 415.921 261.638 L 414.625 261.544 Q 412.77 261.544 412.245 262.711 L 412.245 270.706 L 408.311 270.706 L 408.311 258.078 L 411.999 258.078 L 412.128 259.7 Q 413.12 257.845 414.894 257.845 Q 415.524 257.845 415.991 257.985 Z" transform="matrix(1.07029, 0, 0, 1.25511, -65.97319, -78.651146)" style="fill: rgb(66, 152, 181); stroke-width: 2.27063px; white-space: pre; vector-effect: non-scaling-stroke;"/>
  <path d="M 423.22 270.939 Q 420.314 270.939 418.517 269.206 Q 416.72 267.473 416.72 264.695 L 416.72 264.369 Q 416.72 262.431 417.437 260.949 Q 418.155 259.467 419.532 258.656 Q 420.91 257.845 422.8 257.845 Q 425.461 257.845 427.002 259.496 Q 428.542 261.147 428.542 264.1 L 428.542 265.629 L 420.723 265.629 Q 420.933 266.691 421.645 267.298 Q 422.357 267.905 423.489 267.905 Q 425.356 267.905 426.407 266.598 L 428.204 268.722 Q 427.469 269.737 426.121 270.338 Q 424.773 270.939 423.22 270.939 Z M 422.777 260.879 Q 421.05 260.879 420.723 263.166 L 424.691 263.166 L 424.691 262.863 Q 424.714 261.918 424.212 261.398 Q 423.711 260.879 422.777 260.879 Z" transform="matrix(1.07029, 0, 0, 1.25511, -65.97319, -78.651146)" style="fill: rgb(66, 152, 181); stroke-width: 2.27063px; white-space: pre; vector-effect: non-scaling-stroke;"/>
  <path d="M 435.458 267.905 Q 436.287 267.905 436.742 267.456 Q 437.197 267.006 437.186 266.201 L 440.874 266.201 Q 440.874 268.278 439.386 269.609 Q 437.897 270.939 435.552 270.939 Q 432.797 270.939 431.21 269.212 Q 429.623 267.485 429.623 264.427 L 429.623 264.264 Q 429.623 262.35 430.329 260.885 Q 431.035 259.42 432.365 258.632 Q 433.696 257.845 435.517 257.845 Q 437.979 257.845 439.426 259.21 Q 440.874 260.576 440.874 262.91 L 437.186 262.91 Q 437.186 261.929 436.707 261.404 Q 436.229 260.879 435.423 260.879 Q 433.894 260.879 433.638 262.828 Q 433.556 263.447 433.556 264.532 Q 433.556 266.434 434.011 267.17 Q 434.466 267.905 435.458 267.905 Z M 437.162 270.589 L 437.045 271.301 Q 438.796 271.628 438.796 273.32 Q 438.796 274.674 437.641 275.444 Q 436.485 276.215 434.431 276.215 L 434.349 274.044 Q 435.377 274.044 435.377 273.145 Q 435.377 272.702 435.009 272.527 Q 434.641 272.352 433.813 272.293 L 434.174 270.589 Z" transform="matrix(1.07029, 0, 0, 1.25511, -65.97319, -78.651146)" style="fill: rgb(66, 152, 181); stroke-width: 2.27063px; white-space: pre; vector-effect: non-scaling-stroke;"/>
  <path d="M 442.041 264.275 Q 442.041 262.385 442.777 260.908 Q 443.512 259.432 444.889 258.638 Q 446.266 257.845 448.122 257.845 Q 450.958 257.845 452.592 259.601 Q 454.226 261.357 454.226 264.38 L 454.226 264.52 Q 454.226 267.473 452.586 269.206 Q 450.946 270.939 448.145 270.939 Q 445.449 270.939 443.815 269.323 Q 442.181 267.707 442.053 264.94 Z M 445.974 264.52 Q 445.974 266.271 446.523 267.088 Q 447.072 267.905 448.145 267.905 Q 450.246 267.905 450.293 264.672 L 450.293 264.275 Q 450.293 260.879 448.122 260.879 Q 446.15 260.879 445.986 263.808 Z" transform="matrix(1.07029, 0, 0, 1.25511, -65.97319, -78.651146)" style="fill: rgb(66, 152, 181); stroke-width: 2.27063px; white-space: pre; vector-effect: non-scaling-stroke;"/>
  <rect x="251.326" y="107.086" width="169.912" height="164.191" style="fill: rgb(66, 152, 181);" transform="matrix(1, 0, -0.370185, 1, 96.148483, -46.07679)" rx="15.153" ry="15.153"/>
  <path d="M 88.036 199.214 Q 90.584 199.214 91.983 197.832 Q 93.383 196.45 93.347 193.974 L 104.688 193.974 Q 104.688 200.362 100.112 204.453 Q 95.536 208.545 88.323 208.545 Q 79.853 208.545 74.972 203.233 Q 70.091 197.922 70.091 188.519 L 70.091 188.016 Q 70.091 182.131 72.262 177.627 Q 74.434 173.123 78.525 170.7 Q 82.616 168.278 88.215 168.278 Q 95.787 168.278 100.238 172.477 Q 104.688 176.676 104.688 183.853 L 93.347 183.853 Q 93.347 180.839 91.876 179.224 Q 90.404 177.609 87.928 177.609 Q 83.226 177.609 82.437 183.602 Q 82.186 185.504 82.186 188.842 Q 82.186 194.692 83.585 196.953 Q 84.985 199.214 88.036 199.214 Z" transform="matrix(1, 0, 0, 0.996558, 60.694134, -22.503702)" style="fill: rgb(255, 94, 0); paint-order: stroke; stroke: rgb(255, 255, 255); stroke-width: 5px; white-space: pre;"/>
  <path d="M 108.267 188.052 Q 108.267 182.238 110.528 177.698 Q 112.789 173.159 117.024 170.718 Q 121.259 168.278 126.965 168.278 Q 135.686 168.278 140.71 173.679 Q 145.735 179.08 145.735 188.375 L 145.735 188.806 Q 145.735 197.886 140.692 203.215 Q 135.65 208.545 127.037 208.545 Q 118.747 208.545 113.722 203.574 Q 108.698 198.604 108.303 190.098 Z M 120.362 188.806 Q 120.362 194.189 122.048 196.701 Q 123.735 199.214 127.037 199.214 Q 133.497 199.214 133.64 189.273 L 133.64 188.052 Q 133.64 177.609 126.965 177.609 Q 120.9 177.609 120.397 186.617 Z" transform="matrix(1, 0, 0, 0.996558, 60.694134, -22.503702)" style="fill: rgb(255, 94, 0); paint-order: stroke; stroke: rgb(255, 255, 255); stroke-width: 5px; white-space: pre;"/>
  <path d="M 165.154 159.341 L 165.154 168.995 L 171.542 168.995 L 171.542 177.393 L 165.154 177.393 L 165.154 195.158 Q 165.154 197.347 165.943 198.209 Q 166.733 199.07 169.065 199.07 Q 170.86 199.07 172.08 198.855 L 172.08 207.504 Q 168.814 208.545 165.261 208.545 Q 159.017 208.545 156.038 205.602 Q 153.059 202.659 153.059 196.666 L 153.059 177.393 L 148.106 177.393 L 148.106 168.995 L 153.059 168.995 L 153.059 159.341 Z" transform="matrix(1, 0, 0, 0.996558, 60.694134, -22.503702)" style="fill: rgb(255, 94, 0); paint-order: stroke; stroke: rgb(255, 255, 255); stroke-width: 5px; white-space: pre;"/>
  <path d="M 198.173 207.827 Q 197.527 206.643 197.024 204.346 Q 193.687 208.545 187.693 208.545 Q 182.202 208.545 178.362 205.225 Q 174.522 201.905 174.522 196.881 Q 174.522 190.565 179.188 187.335 Q 183.853 184.105 192.754 184.105 L 196.486 184.105 L 196.486 182.059 Q 196.486 176.712 191.856 176.712 Q 187.55 176.712 187.55 180.946 L 175.455 180.946 Q 175.455 175.312 180.246 171.795 Q 185.038 168.278 192.467 168.278 Q 199.896 168.278 204.202 171.902 Q 208.509 175.527 208.616 181.844 L 208.616 199.034 Q 208.688 204.382 210.267 207.217 L 210.267 207.827 Z M 190.6 199.931 Q 192.861 199.931 194.351 198.962 Q 195.84 197.993 196.486 196.773 L 196.486 190.565 L 192.969 190.565 Q 186.653 190.565 186.653 196.235 Q 186.653 197.886 187.765 198.909 Q 188.878 199.931 190.6 199.931 Z" transform="matrix(1, 0, 0, 0.996558, 60.694134, -22.503702)" style="fill: rgb(255, 94, 0); paint-order: stroke; stroke: rgb(255, 255, 255); stroke-width: 5px; white-space: pre;"/>
  <path d="M 251.41 198.065 L 234.147 198.065 L 231.133 207.827 L 217.674 207.827 L 236.839 155.573 L 248.682 155.573 L 267.99 207.827 L 254.46 207.827 Z M 237.162 188.339 L 248.395 188.339 L 242.76 170.216 Z" transform="matrix(1, 0, 0, 0.996558, 60.694134, -22.503702)" style="fill: rgb(255, 255, 255); white-space: pre;"/>
  <path d="M 313.311 190.134 Q 313.06 195.589 310.368 199.77 Q 307.677 203.951 302.814 206.248 Q 297.951 208.545 291.706 208.545 Q 281.406 208.545 275.484 201.834 Q 269.563 195.122 269.563 182.884 L 269.563 180.3 Q 269.563 172.62 272.237 166.86 Q 274.91 161.1 279.935 157.96 Q 284.959 154.819 291.563 154.819 Q 301.073 154.819 306.851 159.826 Q 312.629 164.832 313.419 173.625 L 300.858 173.625 Q 300.714 168.852 298.453 166.77 Q 296.192 164.689 291.563 164.689 Q 286.861 164.689 284.672 168.206 Q 282.483 171.723 282.375 179.439 L 282.375 183.136 Q 282.375 191.498 284.475 195.087 Q 286.574 198.675 291.706 198.675 Q 296.049 198.675 298.346 196.63 Q 300.642 194.584 300.786 190.134 Z M 296.443 207.468 L 296.085 209.657 Q 301.468 210.662 301.468 215.866 Q 301.468 220.029 297.915 222.398 Q 294.362 224.766 288.046 224.766 L 287.794 218.091 Q 290.953 218.091 290.953 215.328 Q 290.953 213.964 289.822 213.426 Q 288.692 212.887 286.143 212.708 L 287.256 207.468 Z" transform="matrix(1, 0, 0, 0.996558, 60.694134, -22.503702)" style="fill: rgb(255, 255, 255); white-space: pre;"/>
  <path d="M 363.51 182.777 Q 363.51 190.421 360.674 196.307 Q 357.839 202.192 352.617 205.369 Q 347.396 208.545 340.72 208.545 Q 334.045 208.545 328.877 205.476 Q 323.709 202.408 320.82 196.701 Q 317.931 190.995 317.787 183.602 L 317.787 180.659 Q 317.787 172.979 320.605 167.111 Q 323.422 161.243 328.68 158.049 Q 333.937 154.855 340.649 154.855 Q 347.288 154.855 352.492 158.014 Q 357.696 161.172 360.585 167.004 Q 363.474 172.836 363.51 180.372 Z M 350.697 180.587 Q 350.697 172.8 348.095 168.762 Q 345.493 164.725 340.649 164.725 Q 331.174 164.725 330.636 178.937 L 330.6 182.777 Q 330.6 190.457 333.148 194.584 Q 335.696 198.711 340.72 198.711 Q 345.493 198.711 348.077 194.656 Q 350.661 190.6 350.697 182.992 Z" transform="matrix(1, 0, 0, 0.996558, 60.694134, -22.503702)" style="fill: rgb(255, 255, 255); white-space: pre;"/>
  <path d="M 374.087 196.091 Q 376.958 196.091 378.86 197.796 Q 380.763 199.501 380.763 202.157 Q 380.763 204.812 378.86 206.517 Q 376.958 208.222 374.087 208.222 Q 371.18 208.222 369.296 206.499 Q 367.412 204.776 367.412 202.157 Q 367.412 199.537 369.296 197.814 Q 371.18 196.091 374.087 196.091 Z" transform="matrix(1, 0, 0, 0.996558, 60.694134, -22.503702)" style="fill: rgb(255, 94, 0); paint-order: stroke; stroke: rgb(255, 255, 255); stroke-width: 5px; white-space: pre;"/>
  <path d="M 405.234 199.214 Q 407.782 199.214 409.182 197.832 Q 410.582 196.45 410.546 193.974 L 421.886 193.974 Q 421.886 200.362 417.311 204.453 Q 412.735 208.545 405.521 208.545 Q 397.051 208.545 392.171 203.233 Q 387.29 197.922 387.29 188.519 L 387.29 188.016 Q 387.29 182.131 389.461 177.627 Q 391.632 173.123 395.724 170.7 Q 399.815 168.278 405.414 168.278 Q 412.986 168.278 417.436 172.477 Q 421.886 176.676 421.886 183.853 L 410.546 183.853 Q 410.546 180.839 409.074 179.224 Q 407.603 177.609 405.126 177.609 Q 400.425 177.609 399.635 183.602 Q 399.384 185.504 399.384 188.842 Q 399.384 194.692 400.784 196.953 Q 402.184 199.214 405.234 199.214 Z" transform="matrix(1, 0, 0, 0.996558, 60.694134, -22.503702)" style="fill: rgb(255, 94, 0); paint-order: stroke; stroke: rgb(255, 255, 255); stroke-width: 5px; white-space: pre;"/>
  <path d="M 425.466 188.052 Q 425.466 182.238 427.727 177.698 Q 429.988 173.159 434.222 170.718 Q 438.457 168.278 444.164 168.278 Q 452.885 168.278 457.909 173.679 Q 462.933 179.08 462.933 188.375 L 462.933 188.806 Q 462.933 197.886 457.891 203.215 Q 452.849 208.545 444.235 208.545 Q 435.945 208.545 430.921 203.574 Q 425.896 198.604 425.501 190.098 Z M 437.56 188.806 Q 437.56 194.189 439.247 196.701 Q 440.934 199.214 444.235 199.214 Q 450.695 199.214 450.839 189.273 L 450.839 188.052 Q 450.839 177.609 444.164 177.609 Q 438.098 177.609 437.596 186.617 Z" transform="matrix(1, 0, 0, 0.996558, 60.694134, -22.503702)" style="fill: rgb(255, 94, 0); paint-order: stroke; stroke: rgb(255, 255, 255); stroke-width: 5px; white-space: pre;"/>
  <path d="M 479.696 168.995 L 480.091 173.553 Q 484.218 168.278 491.181 168.278 Q 498.538 168.278 501.122 174.128 Q 505.07 168.278 512.535 168.278 Q 524.342 168.278 524.665 182.561 L 524.665 207.827 L 512.535 207.827 L 512.535 183.315 Q 512.535 180.336 511.53 178.972 Q 510.525 177.609 507.869 177.609 Q 504.28 177.609 502.522 180.803 L 502.557 181.305 L 502.557 207.827 L 490.427 207.827 L 490.427 183.387 Q 490.427 180.336 489.458 178.972 Q 488.489 177.609 485.762 177.609 Q 482.28 177.609 480.45 180.803 L 480.45 207.827 L 468.356 207.827 L 468.356 168.995 Z" transform="matrix(1, 0, 0, 0.996558, 60.694134, -22.503702)" style="fill: rgb(255, 94, 0); paint-order: stroke; stroke: rgb(255, 255, 255); stroke-width: 5px; white-space: pre;"/>
</svg>