<?xml version="1.0" encoding="utf-8"?>
<svg viewBox="-169.551 114.026 1400 430" xmlns="http://www.w3.org/2000/svg">
  <g transform="matrix(1, 0, 0, 1, -36.893272, 137.681503)">
    <path d="M 523.845 122.229 C 523.944 111.24 519.215 103.053 509.649 97.64 L 394.093 30.713 C 384.475 25.216 374.855 25.207 365.13 30.879 L 249.826 97.447 C 240.204 103.002 235.485 111.348 235.298 122.389 L 235.512 255.91 C 235.455 266.874 240.286 275.008 249.709 280.501 L 365.233 347.447 C 374.954 353.021 384.476 352.891 394.096 347.337 L 509.398 280.769 C 519.152 275.139 523.927 266.76 524.025 255.77 L 523.845 122.229 Z M 546.371 266.89 C 546.108 279.965 540.532 289.481 529.348 295.938 L 395.922 372.969 C 384.789 379.399 373.954 379.356 362.641 372.964 L 229.173 295.978 C 218.141 289.487 212.599 279.886 212.416 266.949 L 212.451 112.825 C 212.685 100.028 218.071 90.62 229.202 84.194 L 362.628 7.159 C 373.811 0.706 384.845 0.635 396.182 6.751 L 529.522 83.868 C 540.649 90.492 546.19 100.091 546.284 112.897 L 546.371 266.89 Z" style="stroke-miterlimit: 1; paint-order: stroke; stroke-width: 6.11966px; fill: rgb(66, 109, 169);" transform="matrix(1, 0.000034, -0.000034, 1, 0.00646, -0.012899)">
      <title>hexágono</title>
    </path>
    <path d="M 259.719 180.789 L 285.262 195.847 L 285.262 134.649 L 273.121 127.781 L 273.166 99.171 L 297.415 113.075 L 297.554 203.672 L 323.155 218.776 L 323.155 157.393 L 310.815 150.722 L 311.104 121.051 L 336.111 135.211 L 337.619 226.355 L 363.063 241.623 L 363.063 120.701 L 258.309 60.068" style="stroke-miterlimit: 1; paint-order: stroke; stroke-width: 6.11966px; fill: rgb(66, 109, 169);" transform="matrix(-0.504175, -0.863601, 0.863601, -0.504175, 337.055785, 495.206909)">
      <title>E</title>
    </path>
    <path d="M 571.795 115.626 L 545.694 100.615 L 467.34 145.587 L 389.093 100.767 L 363.445 115.825 L 468.04 176.051" style="stroke-miterlimit: 1; paint-order: stroke; stroke-width: 6.11966px; fill: rgb(100, 167, 11);" transform="matrix(-0.504175, -0.863601, 0.863601, -0.504175, 583.91784, 611.91434)">
      <title>&gt;</title>
    </path>
    <path d="M 432.44 178.192 L 327.345 238.874 L 327.345 359.794 L 353.086 344.635 L 354.799 253.233 L 379.444 239.177 L 379.887 268.791 L 367.49 275.518 L 367.49 337.009 L 392.89 321.693 L 393.3 231.047 L 417.442 217.192 L 417.536 246.002 L 405.243 252.683 L 405.243 314.218 L 431.04 299.207" style="stroke-miterlimit: 1; paint-order: stroke; stroke-width: 6.11966px; fill: rgb(255, 163, 0);" transform="matrix(-0.504175, -0.863601, 0.863601, -0.504175, 339.122155, 732.6883)">
      <title>E</title>
    </path>
  </g>
  <path d="M -59.78729248046875 340.5460205078125 L -115.14227294921875 340.5460205078125 L -127.71942138671875 374.3179931640625 L -132.29998779296875 374.3179931640625 L -89.98797607421875 261.2789306640625 L -84.86395263671875 261.2789306640625 L -42.55194091796875 374.3179931640625 L -47.13250732421875 374.3179931640625 Z M -113.58953857421875 336.3536376953125 L -61.34002685546875 336.3536376953125 L -87.42596435546875 266.3253173828125 Z M 5.46173095703125 293.3428955078125 L 0.02716064453125 292.8770751953125 Q -10.68670654296875 292.8770751953125 -17.90692138671875 299.8255615234375 Q -25.12713623046875 306.7740478515625 -27.37860107421875 319.2735595703125 L -27.37860107421875 374.3179931640625 L -31.57098388671875 374.3179931640625 L -31.57098388671875 290.3150634765625 L -27.37860107421875 290.3150634765625 L -27.37860107421875 307.7833251953125 Q -23.96258544921875 299.0103759765625 -17.13055419921875 293.8863525390625 Q -10.29852294921875 288.7623291015625 0.02716064453125 288.7623291015625 Q 3.67608642578125 288.7623291015625 5.92755126953125 289.6163330078125 Z M 29.88555908203125 267.6451416015625 L 29.88555908203125 290.3150634765625 L 48.98419189453125 290.3150634765625 L 48.98419189453125 294.5850830078125 L 29.88555908203125 294.5850830078125 L 29.88555908203125 354.2100830078125 Q 29.88555908203125 363.1383056640625 32.79693603515625 367.4083251953125 Q 35.70831298828125 371.6783447265625 42.54034423828125 371.6783447265625 Q 45.95635986328125 371.6783447265625 50.84747314453125 370.9796142578125 L 51.54620361328125 374.9390869140625 Q 48.98419189453125 375.8707275390625 42.77325439453125 375.8707275390625 Q 33.61212158203125 375.8707275390625 29.65264892578125 370.7855224609375 Q 25.69317626953125 365.7003173828125 25.61553955078125 354.7535400390625 L 25.61553955078125 294.5850830078125 L 10.08819580078125 294.5850830078125 L 10.08819580078125 290.3150634765625 L 25.61553955078125 290.3150634765625 L 25.61553955078125 267.6451416015625 Z M 96.00469970703125 375.8707275390625 Q 85.83428955078125 375.8707275390625 77.33306884765625 370.3973388671875 Q 68.83184814453125 364.9239501953125 64.01837158203125 355.3746337890625 Q 59.20489501953125 345.8253173828125 59.20489501953125 334.1798095703125 L 59.20489501953125 330.6861572265625 Q 59.20489501953125 319.0406494140625 63.86309814453125 309.3360595703125 Q 68.52130126953125 299.6314697265625 76.67315673828125 294.1968994140625 Q 84.82501220703125 288.7623291015625 94.45196533203125 288.7623291015625 Q 108.50421142578125 288.7623291015625 117.43243408203125 298.7774658203125 Q 126.36065673828125 308.7926025390625 126.36065673828125 325.0963134765625 L 126.36065673828125 329.5216064453125 L 63.39727783203125 329.5216064453125 L 63.39727783203125 334.1021728515625 Q 63.39727783203125 344.3502197265625 67.70611572265625 353.0843505859375 Q 72.01495361328125 361.8184814453125 79.58453369140625 366.7872314453125 Q 87.15411376953125 371.7559814453125 96.00469970703125 371.7559814453125 Q 104.46710205078125 371.7559814453125 110.40631103515625 368.9222412109375 Q 116.34552001953125 366.0885009765625 120.92608642578125 360.1881103515625 L 123.87628173828125 362.2843017578125 Q 114.48223876953125 375.8707275390625 96.00469970703125 375.8707275390625 Z M 94.45196533203125 292.9547119140625 Q 82.18536376953125 292.9547119140625 73.64532470703125 302.0770263671875 Q 65.10528564453125 311.1993408203125 63.63018798828125 325.3292236328125 L 122.16827392578125 325.3292236328125 L 122.16827392578125 324.3199462890625 Q 122.16827392578125 315.7799072265625 118.55816650390625 308.4432373046875 Q 114.94805908203125 301.1065673828125 108.62066650390625 297.0306396484375 Q 102.29327392578125 292.9547119140625 94.45196533203125 292.9547119140625 Z" transform="matrix(1, 0, 0, 1, 0, 0)" style="fill: rgb(66, 109, 169); white-space: pre;"/>
  <path d="M 620.0802001953125 348.28759765625 Q 620.0802001953125 342.3095703125 615.8489990234375 338.97119140625 Q 611.6177978515625 335.6328125 600.9815673828125 332.0615234375 Q 590.3453369140625 328.490234375 583.5909423828125 325.15185546875 Q 561.6197509765625 314.3603515625 561.6197509765625 295.49462890625 Q 561.6197509765625 286.1005859375 567.0931396484375 278.919189453125 Q 572.5665283203125 271.73779296875 582.5816650390625 267.739501953125 Q 592.5968017578125 263.7412109375 605.0963134765625 263.7412109375 Q 617.2852783203125 263.7412109375 626.9510498046875 268.0888671875 Q 636.6168212890625 272.4365234375 641.9737548828125 280.471923828125 Q 647.3306884765625 288.50732421875 647.3306884765625 298.8330078125 L 620.1578369140625 298.8330078125 Q 620.1578369140625 291.92333984375 615.9266357421875 288.119140625 Q 611.6954345703125 284.31494140625 604.4752197265625 284.31494140625 Q 597.1773681640625 284.31494140625 592.9461669921875 287.536865234375 Q 588.7149658203125 290.7587890625 588.7149658203125 295.7275390625 Q 588.7149658203125 300.0751953125 593.3731689453125 303.607666015625 Q 598.0313720703125 307.14013671875 609.7545166015625 310.905517578125 Q 621.4776611328125 314.6708984375 629.0084228515625 319.0185546875 Q 647.3306884765625 329.5771484375 647.3306884765625 348.13232421875 Q 647.3306884765625 362.9609375 636.1510009765625 371.42333984375 Q 624.9713134765625 379.8857421875 605.4844970703125 379.8857421875 Q 591.7427978515625 379.8857421875 580.6019287109375 374.955810546875 Q 569.4610595703125 370.02587890625 563.8323974609375 361.447021484375 Q 558.2037353515625 352.8681640625 558.2037353515625 341.6884765625 L 585.5318603515625 341.6884765625 Q 585.5318603515625 350.77197265625 590.2288818359375 355.080810546875 Q 594.9259033203125 359.3896484375 605.4844970703125 359.3896484375 Q 612.2388916015625 359.3896484375 616.1595458984375 356.478271484375 Q 620.0802001953125 353.56689453125 620.0802001953125 348.28759765625 Z M 656.7877197265625 335.55517578125 Q 656.7877197265625 322.97802734375 661.6788330078125 313.156982421875 Q 666.5699462890625 303.3359375 675.7310791015625 298.056640625 Q 684.8922119140625 292.77734375 697.2364501953125 292.77734375 Q 716.1021728515625 292.77734375 726.9713134765625 304.461669921875 Q 737.8404541015625 316.14599609375 737.8404541015625 336.25390625 L 737.8404541015625 337.185546875 Q 737.8404541015625 356.82763671875 726.9324951171875 368.356689453125 Q 716.0245361328125 379.8857421875 697.3917236328125 379.8857421875 Q 679.4576416015625 379.8857421875 668.5885009765625 369.133056640625 Q 657.7193603515625 358.38037109375 656.8653564453125 339.98046875 Z M 682.9512939453125 337.185546875 Q 682.9512939453125 348.8310546875 686.6002197265625 354.265625 Q 690.2491455078125 359.7001953125 697.3917236328125 359.7001953125 Q 711.3663330078125 359.7001953125 711.6768798828125 338.19482421875 L 711.6768798828125 335.55517578125 Q 711.6768798828125 312.962890625 697.2364501953125 312.962890625 Q 684.1158447265625 312.962890625 683.0289306640625 332.44970703125 Z M 755.1680908203125 378.3330078125 L 755.1680908203125 312.4970703125 L 742.9791259765625 312.4970703125 L 742.9791259765625 294.330078125 L 755.1680908203125 294.330078125 L 755.1680908203125 287.6533203125 Q 755.1680908203125 273.29052734375 763.6304931640625 265.37158203125 Q 772.0928955078125 257.45263671875 787.3873291015625 257.45263671875 Q 792.9771728515625 257.45263671875 799.6539306640625 259.0830078125 L 799.7315673828125 278.3369140625 Q 797.3248291015625 277.63818359375 793.2877197265625 277.63818359375 Q 781.4093017578125 277.63818359375 781.4093017578125 287.88623046875 L 781.4093017578125 294.330078125 L 797.7906494140625 294.330078125 L 797.7906494140625 312.4970703125 L 781.4093017578125 312.4970703125 L 781.4093017578125 378.3330078125 Z M 837.4503173828125 273.44580078125 L 837.4503173828125 294.330078125 L 851.2696533203125 294.330078125 L 851.2696533203125 312.4970703125 L 837.4503173828125 312.4970703125 L 837.4503173828125 350.92724609375 Q 837.4503173828125 355.6630859375 839.1583251953125 357.5263671875 Q 840.8663330078125 359.3896484375 845.9127197265625 359.3896484375 Q 849.7945556640625 359.3896484375 852.4342041015625 358.923828125 L 852.4342041015625 377.63427734375 Q 845.3692626953125 379.8857421875 837.6832275390625 379.8857421875 Q 824.1744384765625 379.8857421875 817.7305908203125 373.51953125 Q 811.2867431640625 367.1533203125 811.2867431640625 354.18798828125 L 811.2867431640625 312.4970703125 L 800.5728759765625 312.4970703125 L 800.5728759765625 294.330078125 L 811.2867431640625 294.330078125 L 811.2867431640625 273.44580078125 Z M 934.1075439453125 343.8623046875 L 942.5699462890625 294.330078125 L 967.6466064453125 294.330078125 L 947.8492431640625 378.3330078125 L 925.7227783203125 378.3330078125 L 911.8258056640625 328.490234375 L 897.8511962890625 378.3330078125 L 875.7247314453125 378.3330078125 L 855.9273681640625 294.330078125 L 881.0040283203125 294.330078125 L 889.3111572265625 345.02685546875 L 902.6646728515625 294.330078125 L 920.9093017578125 294.330078125 Z M 1024.3287353515625 378.3330078125 Q 1022.9312744140625 375.77099609375 1021.8443603515625 370.80224609375 Q 1014.6241455078125 379.8857421875 1001.6588134765625 379.8857421875 Q 989.7803955078125 379.8857421875 981.4732666015625 372.704345703125 Q 973.1661376953125 365.52294921875 973.1661376953125 354.65380859375 Q 973.1661376953125 340.98974609375 983.2589111328125 334.00244140625 Q 993.3516845703125 327.01513671875 1012.6055908203125 327.01513671875 L 1020.6798095703125 327.01513671875 L 1020.6798095703125 322.58984375 Q 1020.6798095703125 311.02197265625 1010.6646728515625 311.02197265625 Q 1001.3482666015625 311.02197265625 1001.3482666015625 320.18310546875 L 975.1846923828125 320.18310546875 Q 975.1846923828125 307.994140625 985.5491943359375 300.3857421875 Q 995.9136962890625 292.77734375 1011.9844970703125 292.77734375 Q 1028.0552978515625 292.77734375 1037.3717041015625 300.61865234375 Q 1046.6881103515625 308.4599609375 1046.9210205078125 322.1240234375 L 1046.9210205078125 359.31201171875 Q 1047.0762939453125 370.8798828125 1050.4923095703125 377.01318359375 L 1050.4923095703125 378.3330078125 Z M 1007.9473876953125 361.2529296875 Q 1012.8385009765625 361.2529296875 1016.0604248046875 359.15673828125 Q 1019.2823486328125 357.060546875 1020.6798095703125 354.4208984375 L 1020.6798095703125 340.98974609375 L 1013.0714111328125 340.98974609375 Q 999.4073486328125 340.98974609375 999.4073486328125 353.25634765625 Q 999.4073486328125 356.82763671875 1001.8140869140625 359.040283203125 Q 1004.2208251953125 361.2529296875 1007.9473876953125 361.2529296875 Z M 1112.2130126953125 318.00927734375 L 1103.5953369140625 317.38818359375 Q 1091.2510986328125 317.38818359375 1087.7574462890625 325.15185546875 L 1087.7574462890625 378.3330078125 L 1061.5938720703125 378.3330078125 L 1061.5938720703125 294.330078125 L 1086.1270751953125 294.330078125 L 1086.9810791015625 305.12158203125 Q 1093.5802001953125 292.77734375 1105.3809814453125 292.77734375 Q 1109.5733642578125 292.77734375 1112.6788330078125 293.708984375 Z M 1160.8082275390625 379.8857421875 Q 1141.4766845703125 379.8857421875 1129.5206298828125 368.356689453125 Q 1117.5645751953125 356.82763671875 1117.5645751953125 338.35009765625 L 1117.5645751953125 336.17626953125 Q 1117.5645751953125 323.28857421875 1122.3392333984375 313.4287109375 Q 1127.1138916015625 303.56884765625 1136.2750244140625 298.173095703125 Q 1145.4361572265625 292.77734375 1158.0133056640625 292.77734375 Q 1175.7144775390625 292.77734375 1185.9625244140625 303.762939453125 Q 1196.2105712890625 314.74853515625 1196.2105712890625 334.390625 L 1196.2105712890625 344.56103515625 L 1144.1939697265625 344.56103515625 Q 1145.5914306640625 351.6259765625 1150.3272705078125 355.6630859375 Q 1155.0631103515625 359.7001953125 1162.5938720703125 359.7001953125 Q 1175.0157470703125 359.7001953125 1182.0030517578125 351.0048828125 L 1193.9591064453125 365.134765625 Q 1189.0679931640625 371.88916015625 1180.1009521484375 375.887451171875 Q 1171.1339111328125 379.8857421875 1160.8082275390625 379.8857421875 Z M 1157.8580322265625 312.962890625 Q 1146.3677978515625 312.962890625 1144.1939697265625 328.1796875 L 1170.5904541015625 328.1796875 L 1170.5904541015625 326.1611328125 Q 1170.7457275390625 319.87255859375 1167.4073486328125 316.417724609375 Q 1164.0689697265625 312.962890625 1157.8580322265625 312.962890625 Z" transform="matrix(1, 0, 0, 1, 0, 0)" style="fill: rgb(66, 109, 169); white-space: pre;"/>
</svg>