<?xml version="1.0" encoding="utf-8"?>
<svg viewBox="-461.273 129.19 944.344 392.857" xmlns="http://www.w3.org/2000/svg">
  <path d="M 112.781 258.334 C 112.88 247.345 108.151 239.158 98.585 233.745 L -16.971 166.818 C -26.589 161.321 -36.209 161.312 -45.934 166.984 L -161.238 233.552 C -170.86 239.107 -175.579 247.453 -175.766 258.494 L -175.552 392.015 C -175.609 402.979 -170.778 411.113 -161.355 416.606 L -45.831 483.552 C -36.11 489.126 -26.588 488.996 -16.968 483.442 L 98.334 416.874 C 108.088 411.244 112.863 402.865 112.961 391.875 L 112.781 258.334 Z M 135.307 402.995 C 135.044 416.07 129.468 425.586 118.284 432.043 L -15.142 509.074 C -26.275 515.504 -37.11 515.461 -48.423 509.069 L -181.891 432.083 C -192.923 425.592 -198.465 415.991 -198.648 403.054 L -198.613 248.93 C -198.379 236.133 -192.993 226.725 -181.862 220.299 L -48.436 143.264 C -37.253 136.811 -26.219 136.74 -14.882 142.856 L 118.458 219.973 C 129.585 226.597 135.126 236.196 135.22 249.002 L 135.307 402.995 Z" style="stroke-miterlimit: 1; paint-order: stroke; stroke-width: 6.11966px; fill: rgb(66, 109, 169); transform-box: fill-box; transform-origin: 50% 50%;" transform="matrix(1, 0.000034, -0.000034, 1, 0, 0)">
    <title>hexágono</title>
  </path>
  <path d="M -151.345 316.894 L -125.802 331.952 L -125.802 270.754 L -137.943 263.886 L -137.898 235.276 L -113.649 249.18 L -113.51 339.777 L -87.909 354.881 L -87.909 293.498 L -100.249 286.827 L -99.96 257.156 L -74.953 271.316 L -73.445 362.46 L -48.001 377.728 L -48.001 256.806 L -152.755 196.173" style="stroke-miterlimit: 1; paint-order: stroke; stroke-width: 6.11966px; fill: rgb(66, 109, 169); transform-box: fill-box; transform-origin: 50% 50%;" transform="matrix(-0.504175, -0.863601, 0.863601, -0.504175, 0.000014, 0.000012)">
    <title>E</title>
  </path>
  <path d="M 160.731 251.731 L 134.63 236.72 L 56.276 281.692 L -21.971 236.872 L -47.619 251.93 L 56.976 312.156" style="stroke-miterlimit: 1; paint-order: stroke; stroke-width: 6.11966px; fill: rgb(100, 167, 11); transform-box: fill-box; transform-origin: 50% 50%;" transform="matrix(-0.504175, -0.863601, 0.863601, -0.504175, -0.000007, 0.000035)">
    <title>&gt;</title>
  </path>
  <path d="M 21.731 314.211 L -83.364 374.893 L -83.364 495.813 L -57.623 480.654 L -55.91 389.252 L -31.265 375.196 L -30.822 404.81 L -43.219 411.537 L -43.219 473.028 L -17.819 457.712 L -17.409 367.066 L 6.733 353.211 L 6.827 382.021 L -5.466 388.702 L -5.466 450.237 L 20.331 435.226" style="stroke-miterlimit: 1; paint-order: stroke; stroke-width: 6.11966px; fill: rgb(255, 163, 0); transform-box: fill-box; transform-origin: 50% 50%;" transform="matrix(-0.504175, -0.863601, 0.863601, -0.504175, 0.00001, -0.000001)">
    <title>E</title>
  </path>
  <path d="M -392.109 385.367 C -393.175 383.36 -393.948 380.863 -394.428 377.878 C -400.026 383.9 -407.303 386.911 -416.26 386.911 C -424.737 386.911 -431.761 384.543 -437.333 379.807 C -442.904 375.071 -445.69 369.1 -445.69 361.893 C -445.69 353.038 -442.291 346.243 -435.494 341.507 C -428.695 336.771 -418.872 334.377 -406.024 334.326 L -395.388 334.326 L -395.388 329.539 C -395.388 325.678 -396.414 322.589 -398.467 320.273 C -400.519 317.956 -403.758 316.798 -408.183 316.798 C -412.075 316.798 -415.127 317.699 -417.34 319.501 C -419.552 321.302 -420.658 323.773 -420.658 326.913 L -443.77 326.913 C -443.77 322.074 -442.224 317.595 -439.132 313.477 C -436.04 309.359 -431.668 306.129 -426.016 303.787 C -420.365 301.444 -414.021 300.273 -406.983 300.273 C -396.321 300.273 -387.858 302.86 -381.593 308.033 C -375.329 313.207 -372.196 320.479 -372.196 329.848 L -372.196 366.062 C -372.143 373.991 -370.996 379.988 -368.757 384.055 L -368.757 385.367 L -392.109 385.367 Z M -411.222 369.847 C -407.81 369.847 -404.664 369.113 -401.785 367.646 C -398.906 366.179 -396.774 364.21 -395.388 361.739 L -395.388 347.376 L -404.025 347.376 C -415.594 347.376 -421.751 351.237 -422.497 358.958 L -422.578 360.272 C -422.578 363.052 -421.565 365.342 -419.539 367.144 C -417.513 368.946 -414.741 369.847 -411.222 369.847 Z" style="fill: rgb(66, 109, 169); white-space: pre; transform-box: fill-box; transform-origin: 50% 50%;"/>
  <path d="M -276.561 344.365 C -276.561 357.235 -279.586 367.543 -285.637 375.29 C -291.688 383.038 -299.859 386.911 -310.149 386.911 C -318.892 386.911 -325.956 383.977 -331.341 378.108 L -331.341 417.49 L -354.453 417.49 L -354.453 301.818 L -333.021 301.818 L -332.22 310.002 C -326.622 303.516 -319.318 300.273 -310.308 300.273 C -299.645 300.273 -291.355 304.082 -285.437 311.701 C -279.52 319.321 -276.561 329.822 -276.561 343.206 L -276.561 344.365 Z M -299.672 342.743 C -299.672 334.97 -301.098 328.972 -303.95 324.751 C -306.803 320.53 -310.948 318.419 -316.386 318.419 C -323.637 318.419 -328.622 321.096 -331.341 326.45 L -331.341 360.657 C -328.515 366.166 -323.477 368.92 -316.227 368.92 C -305.19 368.92 -299.672 360.194 -299.672 342.743 Z" style="fill: rgb(66, 109, 169); white-space: pre; transform-box: fill-box; transform-origin: 50% 50%;"/>
  <path d="M -237.86 385.367 L -261.051 385.367 L -261.051 301.818 L -237.86 301.818 L -237.86 385.367 Z M -262.41 280.197 C -262.41 276.85 -261.251 274.096 -258.932 271.934 C -256.613 269.772 -253.454 268.691 -249.455 268.691 C -245.51 268.691 -242.364 269.772 -240.018 271.934 C -237.673 274.096 -236.501 276.85 -236.501 280.197 C -236.501 283.594 -237.686 286.374 -240.058 288.536 C -242.431 290.698 -245.563 291.779 -249.455 291.779 C -253.347 291.779 -256.479 290.698 -258.851 288.536 C -261.224 286.374 -262.41 283.594 -262.41 280.197 Z" style="fill: rgb(66, 109, 169); white-space: pre; transform-box: fill-box; transform-origin: 50% 50%;"/>
  <path d="M 235.111 360.724 L 193.046 360.724 L 185.049 383.889 L 159.539 383.889 L 202.883 271.459 L 225.115 271.459 L 268.699 383.889 L 243.189 383.889 L 235.111 360.724 Z M 199.524 341.959 L 228.633 341.959 L 213.999 299.875 L 199.524 341.959 Z" style="fill: rgb(66, 109, 169); white-space: pre; transform-box: fill-box; transform-origin: 50% 50%;"/>
  <path d="M 349.643 335.164 L 303.58 335.164 L 303.58 365.279 L 357.639 365.279 L 357.639 383.889 L 279.588 383.889 L 279.588 271.459 L 357.479 271.459 L 357.479 290.224 L 303.58 290.224 L 303.58 317.018 L 349.643 317.018 L 349.643 335.164 Z" style="fill: rgb(66, 109, 169); white-space: pre; transform-box: fill-box; transform-origin: 50% 50%;"/>
  <path d="M 432.088 354.391 C 432.088 350.016 430.489 346.657 427.29 344.314 C 424.091 341.972 418.333 339.502 410.016 336.902 C 401.699 334.302 395.115 331.741 390.263 329.218 C 377.041 322.32 370.43 313.028 370.43 301.343 C 370.43 295.268 372.203 289.85 375.748 285.088 C 379.294 280.327 384.385 276.607 391.023 273.93 C 397.66 271.253 405.111 269.915 413.375 269.915 C 421.692 269.915 429.103 271.369 435.607 274.278 C 442.111 277.186 447.163 281.291 450.761 286.594 C 454.36 291.896 456.159 297.919 456.159 304.662 L 432.168 304.662 C 432.168 299.515 430.489 295.512 427.13 292.655 C 423.771 289.798 419.053 288.37 412.975 288.37 C 407.111 288.37 402.552 289.567 399.3 291.961 C 396.048 294.354 394.422 297.507 394.422 301.419 C 394.422 305.074 396.328 308.137 400.14 310.609 C 403.952 313.08 409.563 315.396 416.973 317.558 C 430.622 321.522 440.565 326.438 446.803 332.307 C 453.04 338.176 456.159 345.486 456.159 354.237 C 456.159 363.966 452.347 371.598 444.724 377.132 C 437.1 382.666 426.837 385.433 413.934 385.433 C 404.978 385.433 396.821 383.85 389.463 380.684 C 382.106 377.518 376.495 373.181 372.63 367.673 C 368.764 362.164 366.832 355.781 366.832 348.523 L 390.903 348.523 C 390.903 360.929 398.58 367.133 413.934 367.133 C 419.639 367.133 424.091 366.013 427.29 363.773 C 430.489 361.534 432.088 358.406 432.088 354.391 Z" style="fill: rgb(66, 109, 169); white-space: pre; transform-box: fill-box; transform-origin: 50% 50%;"/>
</svg>