<?xml version="1.0" encoding="utf-8"?>
<svg viewBox="217.138 70.954 130.513 144.221" xmlns="http://www.w3.org/2000/svg">
  <defs>
    <clipPath id="clippath0" transform="">
      <path d="M 0 793.701 L 595.276 793.701 L 595.276 0 L 0 0 Z" style="fill: none; clip-rule: nonzero;"/>
    </clipPath>
  </defs>
  <g style="clip-path: url(#clippath0);" transform="matrix(1, 0, 0, -1, -14.864432, 520.898315)">
    <g transform="translate(350.9223 402.3568)">
      <path d="M 0 0 C 0.036 4.011 -1.69 6.999 -5.181 8.975 L -47.358 33.405 C -50.869 35.411 -54.38 35.415 -57.929 33.344 L -100.016 9.049 C -103.528 7.021 -105.251 3.975 -105.319 -0.055 L -105.242 -48.79 C -105.264 -52.791 -103.5 -55.76 -100.061 -57.766 L -57.896 -82.202 C -54.348 -84.237 -50.872 -84.189 -47.361 -82.162 L -5.275 -57.866 C -1.715 -55.812 0.028 -52.753 0.064 -48.742 Z M 8.22 -52.801 C 8.124 -57.573 6.088 -61.047 2.006 -63.403 L -46.695 -91.518 C -50.758 -93.865 -54.713 -93.849 -58.842 -91.516 L -107.557 -63.414 C -111.583 -61.045 -113.606 -57.541 -113.673 -52.819 L -113.658 3.436 C -113.572 8.107 -111.607 11.541 -107.544 13.886 L -58.842 42.002 C -54.761 44.358 -50.733 44.383 -46.595 42.151 L 2.073 14.001 C 6.134 11.584 8.156 8.08 8.19 3.406 Z" style="fill: rgb(59, 99, 161); fill-opacity: 1;"/>
    </g>
  </g>
  <g style="clip-path: url(#clippath0);" transform="matrix(0.99913, -0.041717, -0.041717, -0.99913, 1.082476, 533.019592)">
    <g transform="translate(292.1836 381.6325)">
      <path d="M 0 0 L 0.512 10.811 L -19.246 0.39 L -19.395 -4.699 L -28.64 -9.556 L -28.28 0.64 L 0.945 16.111 L 1.462 26.948 L -18.355 16.497 L -18.407 11.377 L -28.036 6.418 L -27.722 16.902 L 1.447 32.908 L 2.043 43.723 L -36.996 23.133 L -38.735 -21.011" style="fill: rgb(59, 99, 161); fill-opacity: 1;"/>
    </g>
  </g>
  <g style="clip-path: url(#clippath0);" transform="matrix(0.99913, -0.041717, -0.041717, -0.99913, 1.082476, 533.019592)">
    <g transform="translate(306.1928 424.8499)">
      <path d="M 0 0 L -0.402 -10.983 L 27.459 -28.622 L 26.312 -61.515 L 35.541 -67.232 L 37.175 -23.208" style="fill: rgb(89, 158, 18); fill-opacity: 1;"/>
    </g>
  </g>
  <g style="clip-path: url(#clippath0);" transform="matrix(0.99913, -0.041717, -0.041717, -0.99913, 1.082476, 533.019592)">
    <g transform="translate(258.9546 350.3203)">
      <path d="M 0 0 L 37.486 -23.597 L 76.525 -3.008 L 67.248 2.722 L 37.447 -12.289 L 28.713 -6.726 L 38.198 -1.54 L 42.481 -4.397 L 62.333 6.073 L 53.063 11.666 L 23.729 -3.637 L 15.145 1.799 L 24.43 6.734 L 28.68 3.903 L 48.546 14.381 L 39.308 20.154" style="fill: rgb(255, 156, 0); fill-opacity: 1;"/>
    </g>
  </g>
  <g style="clip-path: url(#clippath0);" transform="matrix(1, 0, 0, -1, -14.864432, 520.898315)">
    <g transform="translate(353.4821 433.3357)">
      <path d="M 0 0 L 0 -1.708 L 0.768 -1.708 C 1.206 -1.708 1.525 -1.641 1.727 -1.508 C 1.928 -1.376 2.029 -1.165 2.029 -0.877 C 2.029 -0.576 1.924 -0.355 1.713 -0.212 C 1.504 -0.071 1.172 0 0.716 0 Z M -1.165 0.733 L 0.925 0.733 C 1.682 0.733 2.254 0.609 2.643 0.36 C 3.032 0.111 3.227 -0.255 3.227 -0.74 C 3.227 -1.136 3.122 -1.465 2.912 -1.725 C 2.703 -1.984 2.405 -2.156 2.016 -2.238 L 3.227 -4.699 L 1.924 -4.699 L 0.847 -2.428 L 0 -2.428 L 0 -4.699 L -1.165 -4.699 Z M 0.815 2.042 C 0.254 2.042 -0.27 1.943 -0.753 1.745 C -1.236 1.547 -1.67 1.254 -2.058 0.867 C -2.458 0.458 -2.767 0 -2.982 -0.504 C -3.198 -1.009 -3.305 -1.534 -3.305 -2.079 C -3.305 -2.622 -3.203 -3.142 -2.999 -3.635 C -2.793 -4.13 -2.498 -4.572 -2.11 -4.964 C -1.719 -5.36 -1.275 -5.665 -0.779 -5.879 C -0.283 -6.092 0.228 -6.198 0.75 -6.198 C 1.316 -6.198 1.852 -6.096 2.359 -5.892 C 2.867 -5.686 3.322 -5.386 3.727 -4.99 C 4.114 -4.615 4.413 -4.184 4.622 -3.694 C 4.83 -3.204 4.935 -2.687 4.935 -2.143 C 4.935 -1.564 4.835 -1.026 4.638 -0.528 C 4.44 -0.029 4.147 0.419 3.759 0.814 C 3.355 1.215 2.903 1.52 2.405 1.729 C 1.906 1.937 1.376 2.042 0.815 2.042 M 0.808 2.768 C 1.477 2.768 2.106 2.647 2.698 2.402 C 3.289 2.157 3.817 1.797 4.279 1.321 C 4.729 0.867 5.072 0.351 5.308 -0.228 C 5.544 -0.806 5.661 -1.422 5.661 -2.071 C 5.661 -2.74 5.54 -3.367 5.297 -3.952 C 5.055 -4.536 4.703 -5.054 4.24 -5.503 C 3.769 -5.962 3.238 -6.313 2.648 -6.558 C 2.059 -6.803 1.445 -6.925 0.808 -6.925 C 0.166 -6.925 -0.45 -6.799 -1.042 -6.548 C -1.634 -6.298 -2.161 -5.936 -2.623 -5.464 C -3.083 -5.002 -3.431 -4.479 -3.672 -3.898 C -3.911 -3.318 -4.032 -2.71 -4.032 -2.071 C -4.032 -1.429 -3.906 -0.81 -3.655 -0.212 C -3.405 0.386 -3.043 0.922 -2.571 1.393 C -2.117 1.847 -1.605 2.19 -1.035 2.422 C -0.466 2.653 0.149 2.768 0.808 2.768" style="fill: rgb(59, 99, 161); fill-opacity: 1;"/>
    </g>
  </g>
</svg>