<?xml version="1.0" encoding="utf-8"?>
<svg viewBox="0 0 500 500" xmlns="http://www.w3.org/2000/svg">
  <path d="M 359.529 343.317 L 90.163 343.317 C 85.166 343.311 81.116 339.261 81.11 334.264 L 81.11 114.93 C 81.116 109.933 85.166 105.883 90.163 105.877 L 359.529 105.877 C 364.526 105.883 368.576 109.933 368.582 114.93 L 368.582 334.264 C 368.576 339.261 364.526 343.311 359.529 343.317 Z" fill="#e6e6e6" style=""/>
  <path d="M 96.27 112.321 C 91.457 112.327 87.556 116.228 87.55 121.041 L 87.55 328.158 C 87.556 332.972 91.457 336.872 96.27 336.878 L 280.641 336.878 C 325.632 336.827 362.092 300.367 362.143 255.376 L 362.143 121.041 C 362.137 116.228 358.236 112.327 353.423 112.321 L 96.27 112.321 Z" fill="#fff" style=""/>
  <path d="M 310.41 205.471 L 261.567 205.471 C 259.446 205.468 257.727 203.749 257.725 201.628 L 257.725 177.319 C 257.727 175.197 259.446 173.479 261.567 173.476 L 310.41 173.476 C 312.531 173.479 314.249 175.197 314.252 177.319 C 317.274 185.921 317.703 194.095 314.252 201.628 C 314.249 203.749 312.531 205.468 310.41 205.471 Z" fill="#e6e6e6" style=""/>
  <path d="M 304.623 203.121 L 263.127 203.121 C 261.325 203.119 259.864 201.659 259.862 199.857 L 259.862 179.203 C 259.864 177.401 261.325 175.941 263.127 175.939 L 304.623 175.939 C 306.425 175.941 307.886 177.401 307.888 179.203 C 310.688 186.559 311.139 193.519 307.888 199.857 C 307.886 201.659 306.425 203.119 304.623 203.121 Z" fill="#fff" style=""/>
  <path d="M 302.385 218.205 L 269.483 218.205 C 266.673 218.209 264.912 215.169 266.314 212.734 C 266.964 211.604 268.166 210.907 269.47 210.904 L 302.385 210.904 C 305.196 210.909 306.946 213.955 305.536 216.386 C 304.885 217.509 303.685 218.202 302.385 218.205 Z" fill="#e6e6e6" style=""/>
  <path d="M 280.263 181.516 C 279.475 181.518 278.838 182.157 278.836 182.945 L 278.836 198.418 C 278.836 199.513 280.018 200.201 280.97 199.658 L 294.627 191.871 C 295.581 191.327 295.59 189.955 294.642 189.4 C 294.635 189.396 294.628 189.391 294.62 189.387 L 280.964 181.701 C 280.75 181.58 280.509 181.516 280.263 181.516 Z" fill="#e6e6e6" style=""/>
  <path d="M 478.217 470.386 C 476.675 468.426 474.097 467.602 471.705 468.305 L 471.449 468.38 L 469.156 477.333 C 468.812 475.999 468.077 472.987 467.614 470.038 L 467.574 469.795 L 467.346 469.895 C 464.949 470.954 462.695 472.313 460.638 473.938 C 453.264 479.853 448.865 488.713 448.609 498.164 L 448.605 498.335 L 448.601 498.443 L 448.905 498.335 L 455.421 496.006 C 461.264 496.521 467.026 494.372 471.105 490.157 C 473.738 487.381 475.544 483.809 477.29 480.354 C 477.801 479.347 478.324 478.308 478.86 477.309 C 480.082 475.087 479.827 472.345 478.217 470.386 Z" fill="#f2f2f2" style=""/>
  <path d="M 310.543 241.164 C 311.1 244.05 314.13 245.731 316.874 244.676 L 336.348 267.33 L 338.813 258.967 L 319.506 238.241 C 317.972 234.925 313.423 234.513 311.318 237.5 C 310.568 238.563 310.288 239.888 310.543 241.164 Z" fill="#ffb8b8" style=""/>
  <polygon points="390.303 492.92 383.859 492.92 380.793 468.062 390.305 468.062 390.303 492.92" fill="#ffb6b6" style=""/>
  <path d="M 390.131 490.815 L 383.251 488.016 L 383.053 487.935 L 379.254 490.815 C 374.788 490.815 371.167 494.436 371.166 498.903 L 371.166 499.166 L 391.945 499.166 L 391.945 490.815 L 390.131 490.815 Z" fill="#2f2e41" style=""/>
  <polygon points="436.277 492.92 429.833 492.92 426.767 468.062 436.278 468.062 436.277 492.92" fill="#ffb6b6" style=""/>
  <path d="M 436.105 490.815 L 429.224 488.016 L 429.027 487.935 L 425.228 490.815 C 420.761 490.815 417.141 494.436 417.14 498.903 L 417.14 499.166 L 437.919 499.166 L 437.919 490.815 L 436.105 490.815 Z" fill="#2f2e41" style=""/>
  <path d="M 421.067 344.479 C 421.067 344.479 429.15 352.888 429.15 359.798 C 429.15 366.708 427.13 376.196 429.15 378.272 C 431.171 380.349 433.697 382.875 430.666 385.906 C 427.635 388.937 426.119 390.453 428.14 392.474 C 430.161 394.494 429.15 429.859 429.15 429.859 L 439.76 477.348 L 426.394 477.348 L 409.447 429.859 L 404.9 390.453 L 390.196 428.343 L 391.819 477.756 L 377.846 477.348 L 372.062 424.807 C 372.062 424.807 380.65 374.827 379.135 373.546 C 377.619 372.265 379.135 369.68 379.135 369.68 L 383.177 350.541 L 421.067 344.479 Z" fill="#2f2e41" style=""/>
  <path d="M 405.241 284.855 C 405.241 284.855 407.989 274.024 395.327 270.919 C 382.664 267.813 346.468 263.824 346.468 263.824 L 328.175 244.413 L 321.977 253.415 L 342.483 278.898 L 391.072 288.878 L 405.241 284.855 Z" fill="#3f3d56" style=""/>
  <path d="M 323.713 251.84 C 324.281 251.104 324.726 250.281 325.03 249.402 L 327.653 242.956 L 326.972 242.928 C 322.978 242.176 319.219 245.071 318.926 249.125 C 318.84 249.952 318.989 250.786 319.355 251.533 C 319.733 252.284 320.448 252.809 321.278 252.944 C 322.221 252.994 323.129 252.582 323.713 251.84 Z" fill="#e6e6e6" style=""/>
  <path d="M 380.597 353.123 L 379.081 364.109 C 379.081 364.109 382.112 367.365 383.628 366.958 C 385.144 366.551 390.701 364.182 390.701 364.182 C 390.701 364.182 397.269 367.772 400.805 368.178 C 404.342 368.585 423.034 366.144 423.539 364.923 C 424.045 363.702 429.917 358.924 429.917 358.924 L 427.581 344.984 L 380.597 353.123 Z" fill="#e6e6e6" style=""/>
  <path d="M 429.819 314.687 C 429.819 314.687 428.536 325.281 429.546 326.256 C 430.557 327.226 428.536 333.364 426.515 337.406 C 424.494 341.448 428.031 341.953 428.031 344.984 C 428.031 348.015 429.546 359.13 429.546 359.13 C 429.546 359.13 413.885 360.14 411.359 357.614 C 408.833 355.088 404.791 357.109 399.234 362.666 C 393.677 368.224 381.607 363.677 379.081 361.151 C 376.555 358.625 381.046 349.531 382.562 347.768 C 384.078 346.005 381.102 348.046 379.586 342.458 C 378.071 336.871 381.046 337.406 383.573 334.88 C 386.099 332.354 383.573 327.807 381.552 323.26 C 379.531 318.713 381.046 284.865 381.046 276.781 C 381.046 268.698 392.161 267.688 392.161 267.688 L 396.561 262.156 L 399.795 258.089 L 406.13 257.836 L 406.297 257.831 L 412.425 257.583 L 415.4 261.049 L 421.968 268.698 L 429.546 270.214 C 435.609 272.234 434.093 284.865 434.093 284.865 L 429.819 314.687 Z" fill="#3f3d56" style=""/>
  <circle cx="405.817" cy="242.658" r="12.986" fill="#ffb6b6" style=""/>
  <path d="M 420.875 238.289 C 417.303 236.099 417.761 230.371 414.319 228.371 C 410.847 226.37 406.616 226.192 402.989 227.895 C 400.565 226.858 397.661 227.686 395.722 229.559 C 393.782 231.431 392.733 234.194 392.423 236.972 C 392.2 239.764 392.4 242.573 393.018 245.304 C 393.21 244.207 393.403 243.11 393.595 242.012 L 403.833 239.775 C 402.927 240.589 402.021 241.403 401.114 242.217 C 405.751 243.273 410.616 242.512 414.709 240.091 C 419.166 242.089 418.358 246.577 414.446 252.531 C 415.961 255.057 424.945 240.785 420.875 238.289 Z" fill="#2f2e41" style=""/>
  <path d="M 415.401 261.049 C 415.371 261.073 415.341 261.095 415.31 261.115 C 414.239 261.753 413.014 262.085 411.768 262.075 C 410.137 262.211 408.518 261.703 407.257 260.66 C 406.595 260.034 403.963 261.357 402.235 262.09 C 400.423 262.841 398.391 262.865 396.561 262.156 L 399.795 258.089 L 405.124 256.907 L 406.454 256.907 L 412.425 257.583 L 415.401 261.049 Z" fill="#e6e6e6" style=""/>
  <path d="M 501.204 498.464 L 0.945 498.498 C -0.743 498.499 -1.806 498.39 -0.97 498.302 C -0.583 498.261 0.139 498.236 0.92 498.236 L 0.945 498.236 L 501.204 498.202 C 502.889 498.202 503.935 498.312 503.085 498.399 C 502.692 498.439 501.978 498.464 501.204 498.464 Z" fill="#cacaca" style=""/>
  <polygon points="287.449 175.683 286.118 175.683 286.118 80.53 338.441 80.53 338.441 81.86 287.449 81.86 287.449 175.683" fill="#3f3d56" style=""/>
  <path d="M 379.134 72.114 L 343.878 72.114 C 337.221 72.114 333.06 79.32 336.389 85.086 C 337.933 87.761 340.788 89.409 343.878 89.409 L 379.134 89.409 C 385.791 89.409 389.951 82.203 386.623 76.438 C 385.078 73.762 382.223 72.114 379.134 72.114 Z" fill="#6c63ff" style=""/>
  <circle cx="286.012" cy="176.441" r="7.946" fill="#6c63ff" style=""/>
  <path d="M 190.255 206.301 L 225.115 198.234 L 235.122 195.918 C 236.373 195.629 235.854 193.702 234.601 193.991 L 199.74 202.059 L 189.734 204.374 C 188.482 204.664 189.002 206.591 190.254 206.301 L 190.255 206.301 Z" fill="#f2f2f2" style=""/>
  <path d="M 226.253 185.292 L 244.915 193.877 C 245.552 194.097 246.149 194.42 246.681 194.833 C 247.196 195.338 246.821 195.823 246.401 196.262 C 245.145 197.435 243.819 198.53 242.429 199.541 L 234.478 206.005 C 233.48 206.816 234.888 208.232 235.877 207.429 L 242.802 201.799 L 246.264 198.984 C 247.245 198.186 248.439 197.372 248.834 196.102 C 249.662 193.433 246.393 192.371 244.577 191.536 L 236.45 187.797 L 227.269 183.574 C 226.112 183.042 225.087 184.756 226.253 185.292 Z" fill="#f2f2f2" style=""/>
  <path d="M 482.492 308.753 C 479.167 306.499 475.128 305.662 471.18 305.378 C 466.693 305.133 462.195 305.139 457.708 305.394 C 453.048 305.578 448.396 305.915 443.755 306.405 C 439.119 306.896 434.504 307.539 429.907 308.334 C 425.792 308.974 421.72 309.866 417.713 311.003 C 413.921 312.052 410.349 313.777 407.168 316.095 C 404.377 318.194 402.23 321.035 400.972 324.293 C 399.737 327.35 399.527 330.724 400.374 333.91 C 400.825 335.457 401.597 336.892 402.64 338.121 C 403.846 339.469 405.275 340.6 406.863 341.464 C 410.161 343.348 413.898 344.48 416.881 346.891 C 417.668 347.522 418.385 348.234 419.02 349.017 C 419.452 349.623 420.048 350.092 420.738 350.369 C 422.076 350.836 423.563 350.453 424.509 349.398 C 425.106 348.581 425.605 347.695 425.993 346.76 L 427.566 343.724 C 427.672 343.458 427.804 343.204 427.96 342.965 C 428.078 342.824 427.867 342.968 427.907 342.931 C 427.929 342.91 427.975 342.911 428 342.895 C 428.13 342.83 428.266 342.778 428.407 342.739 C 429.862 342.184 431.324 341.646 432.793 341.126 C 438.214 339.194 443.7 337.413 449.273 335.971 C 452.141 335.202 455.049 334.593 457.985 334.148 C 461.787 333.607 465.647 333.67 469.466 333.3 C 473.578 332.901 477.821 332.069 481.348 329.804 C 484.264 328.032 486.51 325.344 487.735 322.159 C 488.266 320.641 488.448 319.024 488.268 317.426 C 487.81 313.811 485.448 310.758 482.492 308.753 Z" fill="#e6e6e6" style=""/>
  <path d="M 475.687 310.785 C 472.683 308.748 469.033 307.991 465.465 307.734 C 461.41 307.514 457.346 307.518 453.291 307.749 C 449.079 307.915 444.876 308.22 440.681 308.663 C 436.493 309.106 432.322 309.687 428.168 310.405 C 424.449 310.984 420.769 311.79 417.149 312.817 C 413.721 313.766 410.493 315.325 407.62 317.419 C 405.097 319.316 403.157 321.883 402.02 324.828 C 400.904 327.59 400.714 330.639 401.479 333.518 C 401.887 334.916 402.585 336.213 403.528 337.323 C 404.617 338.541 405.908 339.563 407.344 340.345 C 410.324 342.046 413.701 343.07 416.397 345.249 C 417.108 345.818 417.756 346.463 418.33 347.17 C 418.72 347.718 419.258 348.142 419.882 348.392 C 421.091 348.814 422.435 348.468 423.29 347.514 C 423.83 346.776 424.28 345.975 424.631 345.13 L 426.053 342.386 C 426.148 342.146 426.267 341.917 426.408 341.701 C 426.515 341.573 426.324 341.703 426.361 341.67 C 426.381 341.651 426.422 341.652 426.445 341.637 C 426.562 341.579 426.685 341.532 426.812 341.496 C 428.127 340.995 429.449 340.509 430.776 340.039 C 435.675 338.293 440.632 336.684 445.669 335.38 C 448.26 334.685 450.888 334.135 453.541 333.733 C 456.977 333.244 460.465 333.301 463.916 332.966 C 467.632 332.606 471.467 331.854 474.654 329.808 C 477.289 328.206 479.319 325.777 480.426 322.899 C 480.906 321.528 481.07 320.066 480.907 318.622 C 480.493 315.355 478.359 312.596 475.687 310.785 Z" fill="#fff" style=""/>
  <path d="M 469.395 314.463 L 420.435 323.493 C 419.615 323.649 418.934 322.86 419.209 322.073 C 419.337 321.705 419.652 321.434 420.035 321.364 L 420.042 321.363 L 469.002 312.333 C 469.822 312.181 470.498 312.975 470.219 313.76 C 470.089 314.125 469.775 314.393 469.395 314.463 Z" fill="#e6e6e6" style=""/>
  <path d="M 470.6 321.002 L 421.641 330.032 C 420.821 330.188 420.14 329.399 420.415 328.611 C 420.543 328.244 420.858 327.973 421.241 327.903 L 421.248 327.901 L 470.208 318.871 C 471.028 318.72 471.704 319.513 471.425 320.299 C 471.295 320.664 470.981 320.932 470.6 321.002 Z" fill="#e6e6e6" style=""/>
  <path d="M 428.552 335.518 L 422.847 336.57 C 422.026 336.719 421.353 335.923 421.634 335.138 C 421.764 334.777 422.076 334.511 422.454 334.44 L 428.159 333.388 C 428.98 333.239 429.654 334.034 429.373 334.819 C 429.243 335.181 428.93 335.447 428.552 335.518 Z" fill="#e6e6e6" style=""/>
  <circle cx="856.01" cy="514.742" r="4.604" transform="matrix(0.983413, -0.181378, 0.181378, 0.983413, -511.591644, 7.230785)" fill="#d1d3d4" style=""/>
  <path d="M 172.34 204.239 L 130.521 204.239 C 126.479 204.234 123.203 200.959 123.198 196.917 L 123.198 169.355 C 123.203 165.313 126.479 162.038 130.521 162.033 L 172.34 162.033 C 176.382 162.038 179.658 165.313 179.662 169.355 L 179.662 196.917 C 179.658 200.959 176.382 204.234 172.34 204.239 Z" fill="#e6e6e6" style=""/>
  <path d="M 167.744 202.754 L 131.349 202.754 C 127.831 202.75 124.98 199.899 124.976 196.381 L 124.976 172.394 C 124.98 168.876 127.831 166.026 131.349 166.021 L 167.744 166.021 C 171.262 166.026 174.113 168.876 174.117 172.394 L 174.117 196.381 C 174.113 199.899 171.262 202.75 167.744 202.754 Z" fill="#fff" style=""/>
  <path d="M 178.23 229.07 L 124.571 229.07 C 123.607 229.068 123.007 228.023 123.491 227.189 C 123.714 226.804 124.126 226.567 124.571 226.566 L 178.23 226.566 C 179.194 226.568 179.794 227.613 179.31 228.446 C 179.087 228.832 178.675 229.069 178.23 229.07 Z" fill="#e6e6e6" style=""/>
  <path d="M 178.23 221.915 L 124.571 221.915 C 123.607 221.913 123.007 220.868 123.491 220.035 C 123.714 219.65 124.126 219.412 124.571 219.411 L 178.23 219.411 C 179.194 219.414 179.794 220.458 179.31 221.292 C 179.087 221.677 178.675 221.914 178.23 221.915 Z" fill="#e6e6e6" style=""/>
  <path d="M 178.23 236.225 L 124.571 236.225 C 123.607 236.225 123.005 235.181 123.487 234.347 C 123.71 233.959 124.124 233.72 124.571 233.72 L 178.23 233.72 C 179.194 233.72 179.796 234.764 179.315 235.599 C 179.091 235.986 178.678 236.225 178.23 236.225 Z" fill="#e6e6e6" style=""/>
  <path d="M 178.23 243.379 L 124.571 243.379 C 123.607 243.379 123.005 242.336 123.487 241.501 C 123.71 241.114 124.124 240.875 124.571 240.875 L 178.23 240.875 C 179.194 240.875 179.796 241.918 179.315 242.753 C 179.091 243.141 178.678 243.379 178.23 243.379 Z" fill="#e6e6e6" style=""/>
  <path d="M 178.23 250.534 L 124.571 250.534 C 123.607 250.534 123.005 249.49 123.487 248.656 C 123.71 248.268 124.124 248.03 124.571 248.03 L 178.23 248.03 C 179.194 248.03 179.796 249.073 179.315 249.908 C 179.091 250.295 178.678 250.534 178.23 250.534 Z" fill="#e6e6e6" style=""/>
  <path d="M 178.23 257.688 L 124.571 257.688 C 123.607 257.686 123.007 256.641 123.491 255.808 C 123.714 255.423 124.126 255.185 124.571 255.184 L 178.23 255.184 C 179.194 255.186 179.794 256.231 179.31 257.065 C 179.087 257.45 178.675 257.687 178.23 257.688 Z" fill="#e6e6e6" style=""/>
  <polygon points="148.718 241.28 150.048 241.28 150.048 292.53 53.821 292.53 53.821 291.2 148.718 291.2 148.718 241.28" fill="#3f3d56" style=""/>
  <path d="M 13.129 300.945 L 48.385 300.945 C 55.042 300.945 59.202 293.739 55.874 287.974 C 54.329 285.298 51.474 283.65 48.385 283.65 L 13.129 283.65 C 6.472 283.65 2.311 290.856 5.64 296.621 C 7.184 299.297 10.039 300.945 13.129 300.945 Z" fill="#6c63ff" style=""/>
  <circle cx="150.309" cy="237.195" r="7.946" fill="#6c63ff" style=""/>
  <path d="M 191.383 239.404 C 203.049 241.883 200.082 242.367 211.748 244.847 L 221.795 246.982 C 223.052 247.249 223.396 245.283 222.138 245.016 C 210.472 242.536 213.439 242.052 201.773 239.573 L 191.726 237.437 C 190.469 237.17 190.125 239.136 191.383 239.404 Z" fill="#f2f2f2" style=""/>
  <path d="M 218.254 233.601 L 231.532 249.275 C 232.016 249.744 232.42 250.289 232.728 250.889 C 232.981 251.564 232.436 251.845 231.869 252.065 C 230.235 252.597 228.57 253.028 226.883 253.356 L 216.944 255.849 C 215.697 256.162 216.374 258.041 217.61 257.731 L 226.266 255.559 L 230.594 254.473 C 231.821 254.166 233.247 253.933 234.141 252.949 C 236.021 250.881 233.509 248.536 232.216 247.011 L 226.434 240.185 L 219.902 232.475 C 219.079 231.503 217.425 232.622 218.254 233.601 Z" fill="#f2f2f2" style=""/>
  <circle cx="260.354" cy="283.447" r="18.479" fill="#e6e6e6" style=""/>
  <circle cx="258.553" cy="285.521" r="14.049" fill="#fff" style=""/>
  <path d="M 256.033 295.139 C 255.386 295.139 254.776 294.835 254.388 294.317 L 249.347 287.595 C 248.397 286.33 249.173 284.51 250.744 284.32 C 251.473 284.232 252.194 284.539 252.634 285.127 L 252.636 285.128 L 255.934 289.526 L 264.405 276.819 C 265.281 275.501 267.255 275.626 267.959 277.044 C 268.286 277.703 268.235 278.487 267.826 279.1 L 257.743 294.224 C 257.373 294.779 256.757 295.12 256.09 295.139 C 256.071 295.139 256.052 295.139 256.033 295.139 Z" fill="#e6e6e6" style=""/>
  <path d="M 431.61 360.593 C 434.144 359.103 434.715 355.685 432.803 353.452 L 447.641 327.523 L 438.935 327.997 L 425.858 353.123 C 423.246 355.678 424.379 360.103 427.898 361.087 C 429.151 361.438 430.493 361.259 431.61 360.593 Z" fill="#ffb8b8" style=""/>
  <path d="M 414.897 269.708 C 414.897 269.708 430.612 264.656 434.654 276.781 C 438.696 288.906 452.282 321.745 452.282 321.745 L 437.685 351.552 L 431.117 344.479 L 438.137 323.766 L 417.928 293.453 L 414.897 269.708 Z" fill="#3f3d56" style=""/>
  <path d="M 438.186 348.508 C 437.713 347.708 437.113 346.989 436.409 346.382 L 431.395 341.556 L 431.116 342.178 C 428.937 345.609 430.232 350.172 433.889 351.947 C 434.625 352.334 435.455 352.505 436.285 352.442 C 437.122 352.369 437.874 351.9 438.307 351.179 C 438.704 350.322 438.658 349.325 438.186 348.508 Z" fill="#e6e6e6" style=""/>
  <polygon points="260.194 308.308 258.864 308.308 258.864 359.557 303.87 359.557 303.87 358.227 260.194 358.227 260.194 308.308" fill="#3f3d56" style=""/>
  <path d="M 353.21 359.325 C 353.206 354.551 349.337 350.682 344.563 350.677 L 309.307 350.677 C 302.65 350.677 298.489 357.884 301.817 363.649 C 303.362 366.325 306.217 367.973 309.307 367.973 L 344.563 367.973 C 349.337 367.968 353.206 364.099 353.21 359.325 Z" fill="#6c63ff" style=""/>
  <circle cx="258.603" cy="304.223" r="7.946" fill="#6c63ff" style=""/>
</svg>