<?xml version="1.0" encoding="utf-8"?>
<svg viewBox="0 0 500 500" xmlns="http://www.w3.org/2000/svg">
  <circle cx="307.555" cy="91.64" r="19.584" fill="#f2f2f2" style=""/>
  <path d="M 459.476 401.878 C 488.586 379.706 502.489 342.448 493.786 306.906 C 493.57 306.023 493.341 305.142 493.101 304.263 C 487.33 283.166 473.054 263.114 452.246 256.373 C 434.775 250.713 415.705 255.065 397.478 252.815 C 361.699 248.396 333.959 219.446 314.441 189.135 C 294.923 158.824 279.922 124.895 253.986 99.854 C 211.236 58.578 141.5 49.69 88.496 76.558 C 35.491 103.426 1.728 163.035 3.168 222.443 C 4.607 281.851 39.875 338.648 91.093 368.783 C 109.908 379.853 131.669 387.696 153.327 384.951 C 172.119 382.571 189.193 372.474 207.896 369.476 C 237.302 364.763 266.521 378.058 291.954 393.551 C 317.388 409.044 341.955 427.408 370.858 434.591 C 398.921 441.565 433.69 421.519 459.476 401.878 Z" fill="#f2f2f2" style=""/>
  <path d="M 417.652 55.583 C 417.014 55.12 416.368 54.683 415.731 54.237 C 397.285 41.439 377.513 31.041 356.826 23.259 L 352.028 95.051 L 321.618 95.051 L 321.618 12.779 C 319.704 12.35 317.775 11.944 315.846 11.562 L 315.846 95.051 L 279.708 95.051 C 238.279 95.051 204.695 58.616 204.695 13.671 C 202.759 14.125 200.838 14.611 198.915 15.127 L 198.915 95.051 L 169.482 95.051 L 164.911 26.593 C 143.652 35.439 123.469 47.072 104.811 61.232 C 104.489 61.471 104.165 61.718 103.85 61.956 C 102.229 63.19 100.63 64.446 99.039 65.72 L 99.039 339.605 L 185.786 339.605 L 184.253 316.569 L 175.819 190.086 L 345.684 190.086 L 337.249 316.569 L 335.716 339.605 L 421.503 339.605 L 421.503 58.351 C 420.227 57.413 418.943 56.49 417.652 55.583 Z M 198.915 169.197 L 174.425 169.197 L 169.9 101.321 L 198.915 101.321 L 198.915 169.197 Z M 315.847 169.197 L 274.713 169.197 L 274.713 167.853 C 274.713 165.133 272.679 162.931 270.172 162.934 L 252.291 162.934 C 249.787 162.934 247.756 165.137 247.758 167.853 L 247.758 169.197 L 204.695 169.197 L 204.695 101.321 L 315.847 101.321 L 315.847 169.197 Z M 321.618 169.197 L 321.618 101.321 L 351.61 101.321 L 347.085 169.197 L 321.618 169.197 Z" fill="#3f3d56" style=""/>
  <path d="M 17.932 357.702 C 23.207 364.588 28.913 371.06 35.007 377.07 L 478.637 377.739 C 484.732 371.729 490.437 365.257 495.712 358.371 L 17.932 357.702 Z" fill="#3f3d56" style=""/>
  <path d="M 334.772 287.779 L 334.772 350.64 C 334.774 352.308 336.126 353.66 337.794 353.661 L 430.948 353.661 C 432.616 353.66 433.969 352.308 433.969 350.64 L 433.969 287.779 C 433.966 286.112 432.615 284.763 430.948 284.76 L 337.794 284.76 C 336.127 284.763 334.777 286.112 334.772 287.779 Z" fill="#3f3d56" style=""/>
  <path d="M 336.958 288.56 L 336.958 349.865 C 336.959 350.755 337.682 351.478 338.572 351.479 L 430.173 351.479 C 431.064 351.478 431.786 350.755 431.788 349.865 L 431.788 288.56 C 431.788 287.668 431.065 286.944 430.173 286.942 L 338.572 286.942 C 337.68 286.944 336.958 287.668 336.958 288.56 Z" fill="#426da9" style=""/>
  <path d="M 332.824 362.9 C 333.171 363.333 333.695 363.584 334.25 363.582 L 433.996 363.582 C 435.161 363.581 436.029 362.51 435.791 361.37 L 434.242 354.015 C 434.111 353.406 433.682 352.904 433.099 352.681 C 432.892 352.6 432.671 352.559 432.448 352.559 L 335.793 352.559 C 335.569 352.559 335.349 352.6 335.141 352.681 C 334.559 352.904 334.128 353.406 333.998 354.015 L 332.45 361.37 C 332.338 361.91 332.476 362.472 332.824 362.9 Z" fill="#2f2e41" style=""/>
  <rect x="-477.323" y="-430.228" width="5.357" height="3.214" rx="0.488" transform="matrix(-1, 0, 0, -1, 0, 0)" fill="#3f3d56" style=""/>
  <rect x="-466.609" y="-430.228" width="5.357" height="3.214" rx="0.488" transform="matrix(-1, 0, 0, -1, 0, 0)" fill="#3f3d56" style=""/>
  <rect x="-455.894" y="-430.228" width="5.357" height="3.214" rx="0.488" transform="matrix(-1, 0, 0, -1, 0, 0)" fill="#3f3d56" style=""/>
  <rect x="-445.179" y="-430.228" width="5.357" height="3.214" rx="0.488" transform="matrix(-1, 0, 0, -1, 0, 0)" fill="#3f3d56" style=""/>
  <rect x="-434.466" y="-430.228" width="5.357" height="3.214" rx="0.488" transform="matrix(-1, 0, 0, -1, 0, 0)" fill="#3f3d56" style=""/>
  <rect x="-423.751" y="-430.228" width="5.357" height="3.214" rx="0.488" transform="matrix(-1, 0, 0, -1, 0, 0)" fill="#3f3d56" style=""/>
  <rect x="-413.037" y="-430.228" width="5.357" height="3.214" rx="0.488" transform="matrix(-1, 0, 0, -1, 0, 0)" fill="#3f3d56" style=""/>
  <rect x="-402.322" y="-430.228" width="5.357" height="3.214" rx="0.488" transform="matrix(-1, 0, 0, -1, 0, 0)" fill="#3f3d56" style=""/>
  <rect x="-391.608" y="-430.228" width="5.357" height="3.214" rx="0.488" transform="matrix(-1, 0, 0, -1, 0, 0)" fill="#3f3d56" style=""/>
  <rect x="-380.893" y="-430.228" width="5.357" height="3.214" rx="0.488" transform="matrix(-1, 0, 0, -1, 0, 0)" fill="#3f3d56" style=""/>
  <rect x="-370.18" y="-430.228" width="5.357" height="3.214" rx="0.488" transform="matrix(-1, 0, 0, -1, 0, 0)" fill="#3f3d56" style=""/>
  <rect x="-359.465" y="-430.228" width="5.357" height="3.214" rx="0.488" transform="matrix(-1, 0, 0, -1, 0, 0)" fill="#3f3d56" style=""/>
  <rect x="-348.751" y="-430.228" width="5.357" height="3.214" rx="0.488" transform="matrix(-1, 0, 0, -1, 0, 0)" fill="#3f3d56" style=""/>
  <rect x="-338.036" y="-430.228" width="5.357" height="3.214" rx="0.488" transform="matrix(-1, 0, 0, -1, 0, 0)" fill="#3f3d56" style=""/>
  <rect x="-327.322" y="-430.228" width="5.357" height="3.214" rx="0.488" transform="matrix(-1, 0, 0, -1, 0, 0)" fill="#3f3d56" style=""/>
  <rect x="-316.607" y="-430.228" width="5.357" height="3.214" rx="0.488" transform="matrix(-1, 0, 0, -1, 0, 0)" fill="#3f3d56" style=""/>
  <rect x="-477.45" y="-435.585" width="5.357" height="3.214" rx="0.488" transform="matrix(-1, 0, 0, -1, 0, 0)" fill="#3f3d56" style=""/>
  <rect x="-466.736" y="-435.585" width="5.357" height="3.214" rx="0.488" transform="matrix(-1, 0, 0, -1, 0, 0)" fill="#3f3d56" style=""/>
  <rect x="-456.021" y="-435.585" width="5.357" height="3.214" rx="0.488" transform="matrix(-1, 0, 0, -1, 0, 0)" fill="#3f3d56" style=""/>
  <rect x="-445.306" y="-435.585" width="5.357" height="3.214" rx="0.488" transform="matrix(-1, 0, 0, -1, 0, 0)" fill="#3f3d56" style=""/>
  <rect x="-434.592" y="-435.585" width="5.357" height="3.214" rx="0.488" transform="matrix(-1, 0, 0, -1, 0, 0)" fill="#3f3d56" style=""/>
  <rect x="-423.877" y="-435.585" width="5.357" height="3.214" rx="0.488" transform="matrix(-1, 0, 0, -1, 0, 0)" fill="#3f3d56" style=""/>
  <rect x="-413.164" y="-435.585" width="5.357" height="3.214" rx="0.488" transform="matrix(-1, 0, 0, -1, 0, 0)" fill="#3f3d56" style=""/>
  <rect x="-402.449" y="-435.585" width="5.357" height="3.214" rx="0.488" transform="matrix(-1, 0, 0, -1, 0, 0)" fill="#3f3d56" style=""/>
  <rect x="-391.735" y="-435.585" width="5.357" height="3.214" rx="0.488" transform="matrix(-1, 0, 0, -1, 0, 0)" fill="#3f3d56" style=""/>
  <rect x="-381.02" y="-435.585" width="5.357" height="3.214" rx="0.488" transform="matrix(-1, 0, 0, -1, 0, 0)" fill="#3f3d56" style=""/>
  <rect x="-370.306" y="-435.585" width="5.357" height="3.214" rx="0.488" transform="matrix(-1, 0, 0, -1, 0, 0)" fill="#3f3d56" style=""/>
  <rect x="-359.591" y="-435.585" width="5.357" height="3.214" rx="0.488" transform="matrix(-1, 0, 0, -1, 0, 0)" fill="#3f3d56" style=""/>
  <rect x="-348.877" y="-435.585" width="5.357" height="3.214" rx="0.488" transform="matrix(-1, 0, 0, -1, 0, 0)" fill="#3f3d56" style=""/>
  <rect x="-338.163" y="-435.585" width="5.357" height="3.214" rx="0.488" transform="matrix(-1, 0, 0, -1, 0, 0)" fill="#3f3d56" style=""/>
  <rect x="-327.448" y="-435.585" width="5.357" height="3.214" rx="0.488" transform="matrix(-1, 0, 0, -1, 0, 0)" fill="#3f3d56" style=""/>
  <rect x="-316.734" y="-435.585" width="5.357" height="3.214" rx="0.488" transform="matrix(-1, 0, 0, -1, 0, 0)" fill="#3f3d56" style=""/>
  <rect x="-426.02" y="-442.014" width="42.857" height="3.214" rx="0.488" transform="matrix(-1, 0, 0, -1, 0, 0)" fill="#3f3d56" style=""/>
  <rect x="349.59" y="300.355" width="4.375" height="2.29" rx="1.561" fill="#fff" style=""/>
  <rect x="373.445" y="300.355" width="4.375" height="2.29" rx="1.561" fill="#fff" style=""/>
  <rect x="380.204" y="300.355" width="4.375" height="2.29" rx="1.561" fill="#fff" style=""/>
  <rect x="356.079" y="300.163" width="15.253" height="2.29" rx="1.561" fill="#fff" style=""/>
  <rect x="387.884" y="300.163" width="15.253" height="2.29" rx="1.561" fill="#fff" style=""/>
  <rect x="355.951" y="305.522" width="4.375" height="2.29" rx="1.561" fill="#fff" style=""/>
  <rect x="379.806" y="305.522" width="4.375" height="2.29" rx="1.561" fill="#fff" style=""/>
  <rect x="386.565" y="305.522" width="4.375" height="2.29" rx="1.561" fill="#fff" style=""/>
  <rect x="362.44" y="305.332" width="15.253" height="2.29" rx="1.561" fill="#fff" style=""/>
  <rect x="394.246" y="305.332" width="15.253" height="2.29" rx="1.561" fill="#fff" style=""/>
  <rect x="362.312" y="310.691" width="4.375" height="2.29" rx="1.561" fill="#fff" style=""/>
  <rect x="386.167" y="310.691" width="4.375" height="2.29" rx="1.561" fill="#fff" style=""/>
  <rect x="392.926" y="310.691" width="4.375" height="2.29" rx="1.561" fill="#fff" style=""/>
  <rect x="368.801" y="310.501" width="15.253" height="2.29" rx="1.561" fill="#fff" style=""/>
  <rect x="400.607" y="310.501" width="15.253" height="2.29" rx="1.561" fill="#fff" style=""/>
  <rect x="368.674" y="315.86" width="4.375" height="2.29" rx="1.561" fill="#fff" style=""/>
  <rect x="392.529" y="315.86" width="4.375" height="2.29" rx="1.561" fill="#fff" style=""/>
  <rect x="399.287" y="315.86" width="4.375" height="2.29" rx="1.561" fill="#fff" style=""/>
  <rect x="375.163" y="315.669" width="15.253" height="2.29" rx="1.561" fill="#fff" style=""/>
  <rect x="373.445" y="336.412" width="4.375" height="2.29" rx="1.561" fill="#fff" style=""/>
  <rect x="380.204" y="336.412" width="4.375" height="2.29" rx="1.561" fill="#fff" style=""/>
  <rect x="387.884" y="336.604" width="15.253" height="2.29" rx="1.561" fill="#fff" style=""/>
  <rect x="349.59" y="336.412" width="4.375" height="2.29" rx="1.561" fill="#fff" style=""/>
  <rect x="356.079" y="336.604" width="15.253" height="2.29" rx="1.561" fill="#fff" style=""/>
  <rect x="355.951" y="331.244" width="4.375" height="2.29" rx="1.561" fill="#fff" style=""/>
  <rect x="379.806" y="331.244" width="4.375" height="2.29" rx="1.561" fill="#fff" style=""/>
  <rect x="386.565" y="331.244" width="4.375" height="2.29" rx="1.561" fill="#fff" style=""/>
  <rect x="362.44" y="331.435" width="15.253" height="2.29" rx="1.561" fill="#fff" style=""/>
  <rect x="362.312" y="326.075" width="4.375" height="2.29" rx="1.561" fill="#fff" style=""/>
  <rect x="386.167" y="326.075" width="4.375" height="2.29" rx="1.561" fill="#fff" style=""/>
  <rect x="392.926" y="326.075" width="4.375" height="2.29" rx="1.561" fill="#fff" style=""/>
  <rect x="368.801" y="326.266" width="15.253" height="2.29" rx="1.561" fill="#fff" style=""/>
  <rect x="368.674" y="320.906" width="4.375" height="2.29" rx="1.561" fill="#fff" style=""/>
  <rect x="392.529" y="320.906" width="4.375" height="2.29" rx="1.561" fill="#fff" style=""/>
  <rect x="399.287" y="320.906" width="4.375" height="2.29" rx="1.561" fill="#fff" style=""/>
  <rect x="375.163" y="321.097" width="15.253" height="2.29" rx="1.561" fill="#fff" style=""/>
  <path d="M 341.731 396.985 L 331.94 381.508 L 362.674 357.008 L 375.359 342.954 C 382.583 334.951 395.755 337.726 399.137 347.962 C 401.514 355.156 397.761 362.939 390.651 365.559 L 370.592 372.949 L 341.731 396.985 Z" fill="#ffb6b6" style=""/>
  <path d="M 111.987 284.764 L 111.987 359.989 L 164.687 359.989 L 164.687 284.764 C 164.689 283.652 163.966 282.671 162.905 282.343 C 162.661 282.262 162.407 282.223 162.149 282.226 L 114.532 282.226 C 113.129 282.223 111.989 283.359 111.987 284.764 Z M 132.554 310.611 C 132.594 306.28 137.307 303.617 141.038 305.817 C 142.737 306.82 143.787 308.638 143.805 310.611 L 143.805 319.339 C 143.784 323.67 139.081 326.353 135.342 324.169 C 133.624 323.165 132.565 321.329 132.554 319.339 L 132.554 310.611 Z" fill="#2f2e41" style=""/>
  <path d="M 111.826 357.583 L 111.826 364.837 C 111.828 365.618 112.46 366.253 113.241 366.26 L 163.433 366.26 C 164.216 366.256 164.849 365.62 164.849 364.837 L 164.849 357.583 L 111.826 357.583 Z" fill="#3f3d56" style=""/>
  <path d="M 29.083 171.427 L 29.083 308.778 C 29.086 312.422 32.039 315.376 35.684 315.378 L 239.224 315.378 C 242.867 315.376 245.822 312.422 245.824 308.778 L 245.824 171.427 C 245.815 167.786 242.864 164.838 239.224 164.833 L 35.684 164.833 C 32.043 164.838 29.091 167.786 29.083 171.427 Z" fill="#3f3d56" style=""/>
  <path d="M 33.858 173.136 L 33.858 307.083 C 33.862 309.031 35.439 310.608 37.386 310.611 L 237.529 310.611 C 239.475 310.608 241.053 309.031 241.057 307.083 L 241.057 173.136 C 241.057 171.186 239.478 169.605 237.529 169.6 L 37.386 169.6 C 35.436 169.605 33.858 171.187 33.858 173.136 Z" fill="#fff" style=""/>
  <path d="M 71.001 365.768 C 71.414 366.286 72.041 366.586 72.703 366.582 L 191.774 366.582 C 193.164 366.58 194.201 365.302 193.916 363.942 L 192.068 355.162 C 191.913 354.435 191.399 353.836 190.704 353.57 C 190.456 353.474 190.192 353.424 189.926 353.424 L 74.544 353.424 C 74.278 353.424 74.014 353.474 73.766 353.57 C 73.071 353.836 72.557 354.435 72.402 355.162 L 70.553 363.942 C 70.42 364.587 70.585 365.257 71.001 365.768 Z" fill="#2f2e41" style=""/>
  <path d="M 231.034 188.053 L 43.76 188.053 C 43.187 188.04 42.843 187.411 43.14 186.921 C 43.273 186.704 43.507 186.569 43.76 186.563 L 231.034 186.563 C 231.607 186.576 231.951 187.204 231.654 187.694 C 231.521 187.912 231.288 188.046 231.034 188.053 Z" fill="#3f3d56" style=""/>
  <ellipse cx="56.509" cy="178.299" rx="4.365" ry="4.462" fill="#3f3d56" style=""/>
  <ellipse cx="71.586" cy="178.299" rx="4.365" ry="4.462" fill="#3f3d56" style=""/>
  <ellipse cx="86.663" cy="178.299" rx="4.365" ry="4.462" fill="#3f3d56" style=""/>
  <path d="M 221.955 174.941 L 211.246 174.941 C 210.621 174.955 210.248 175.639 210.572 176.172 C 210.716 176.408 210.97 176.555 211.246 176.561 L 221.955 176.561 C 222.578 176.553 222.959 175.871 222.639 175.335 C 222.495 175.094 222.236 174.944 221.955 174.941 Z" fill="#3f3d56" style=""/>
  <path d="M 221.955 177.984 L 211.246 177.984 C 210.621 177.998 210.247 178.682 210.571 179.216 C 210.714 179.452 210.969 179.599 211.246 179.605 L 221.955 179.605 C 222.578 179.597 222.96 178.918 222.642 178.381 C 222.497 178.138 222.237 177.988 221.955 177.984 Z" fill="#3f3d56" style=""/>
  <path d="M 221.955 181.029 L 211.246 181.029 C 210.621 181.043 210.248 181.727 210.572 182.26 C 210.716 182.496 210.97 182.643 211.246 182.649 L 221.955 182.649 C 222.578 182.64 222.959 181.959 222.639 181.423 C 222.495 181.182 222.236 181.032 221.955 181.029 Z" fill="#3f3d56" style=""/>
  <path d="M 446.668 356.89 C 447.331 358.82 449.163 360.103 451.203 360.067 L 470.634 359.567 C 472.692 359.527 474.478 358.136 475.021 356.151 L 477.771 326.749 C 478.746 327.19 479.809 327.409 480.88 327.387 C 486.332 327.25 489.593 321.261 486.748 316.607 C 485.427 314.447 483.055 313.155 480.523 313.218 C 480.095 313.218 479.668 313.261 479.25 313.352 C 478.329 312.356 477.031 311.795 475.675 311.809 L 445.786 312.581 C 445.538 312.59 445.291 312.62 445.049 312.672 C 442.265 313.191 440.581 316.048 441.474 318.734 L 446.668 356.89 Z M 478.335 324.752 L 480.291 317.745 C 480.514 316.936 480.519 316.082 480.306 315.27 C 480.401 315.27 480.485 315.225 480.58 315.225 C 484.481 315.144 487.006 319.316 485.126 322.735 C 484.257 324.313 482.617 325.312 480.817 325.359 C 479.95 325.386 479.091 325.176 478.335 324.752 Z" fill="#2f2e41" style=""/>
  <path d="M 445.049 312.672 C 445.685 316.313 452.845 318.872 461.453 318.427 C 469.369 318.063 475.842 315.284 477.028 311.989 C 476.589 311.859 476.133 311.798 475.675 311.809 L 445.786 312.581 C 445.538 312.59 445.291 312.62 445.049 312.672 Z" fill="#3f3d56" style=""/>
  <path d="M 463.031 340.733 C 463.071 340.724 463.108 340.707 463.142 340.684 L 467.361 337.922 C 467.583 337.778 467.583 337.454 467.362 337.309 L 462.976 334.436 C 462.74 334.281 462.425 334.438 462.408 334.72 C 462.4 334.852 462.463 334.978 462.574 335.049 L 466.491 337.615 L 462.74 340.071 C 462.504 340.225 462.524 340.578 462.776 340.705 C 462.854 340.745 462.946 340.755 463.031 340.733 Z" fill="#426da9" style=""/>
  <path d="M 456.366 341.041 C 456.64 340.971 456.736 340.632 456.539 340.43 C 456.515 340.405 456.488 340.384 456.458 340.367 L 452.569 338.137 L 456.329 335.344 C 456.555 335.176 456.515 334.826 456.256 334.714 C 456.135 334.662 455.996 334.678 455.891 334.756 L 451.682 337.883 C 451.47 338.04 451.489 338.363 451.718 338.495 L 456.094 341.003 C 456.176 341.051 456.273 341.064 456.366 341.041 Z" fill="#426da9" style=""/>
  <path d="M 462.611 343.153 C 462.646 343.144 462.68 343.13 462.711 343.111 C 462.885 343.006 462.94 342.78 462.835 342.608 L 456.853 332.772 C 456.706 332.532 456.352 332.541 456.217 332.788 C 456.155 332.904 456.158 333.043 456.226 333.155 L 462.208 342.989 C 462.292 343.127 462.455 343.193 462.611 343.153 Z" fill="#426da9" style=""/>
  <rect x="124.966" y="228.54" width="37.201" height="7.955" rx="3.264" fill="#426da9" style=""/>
  <rect x="106.072" y="244.45" width="74.987" height="7.955" rx="3.264" fill="#e6e6e6" style=""/>
  <rect x="106.072" y="260.36" width="74.987" height="7.955" rx="3.264" fill="#e6e6e6" style=""/>
  <path d="M 184.617 313.636 L 184.776 314.138 L 184.784 314.155 L 189.57 328.706 L 195.076 345.474 L 205.435 376.985 L 205.535 381.88 L 205.535 381.896 L 206.305 421.273 L 204.171 426.611 L 206.572 435.363 C 206.572 435.363 205.468 422.134 199.544 429.731 C 196.189 434.049 192.265 438.466 189.043 442.608 C 193.737 444.508 198.506 446.226 203.351 447.762 C 204.397 448.097 205.451 448.415 206.506 448.733 C 206.731 448.8 206.957 448.867 207.183 448.934 C 223.242 453.683 239.844 456.351 256.583 456.874 C 257.453 456.899 258.307 456.916 259.135 456.933 C 259.428 456.941 259.713 456.95 259.998 456.95 C 260.935 456.958 261.863 456.966 262.8 456.966 C 264.691 456.966 266.574 456.938 268.448 456.883 C 282.321 456.492 296.112 454.626 309.59 451.318 C 309.498 445.754 309.247 439.252 308.887 432.308 C 308.72 428.902 304.962 425.212 304.736 421.648 C 304.577 418.971 307.95 416.452 307.774 413.733 C 306.637 396.99 305.213 403.417 304.159 391.561 C 304.05 390.398 303.95 389.285 303.858 388.222 C 303.18 380.608 302.712 375.847 302.712 375.847 L 307.214 347.473 L 314.284 302.927 L 313.74 302.031 L 313.129 301.73 L 275.836 283.272 L 273.812 278.084 C 272.605 275.027 269.661 273.009 266.373 272.989 L 241.807 272.888 C 239.22 272.876 236.787 274.114 235.272 276.21 L 228.62 285.422 L 184.617 313.636 Z" fill="#3f3d56" style=""/>
  <path d="M 211.099 369.973 L 205.535 381.88 L 201.737 390.013 L 195.201 424.226 L 191.93 427.698 L 189.127 415.406 L 159.789 421.92 C 158.827 416.574 159.532 422.101 158.938 416.235 C 159.105 416.068 159.281 415.901 159.457 415.733 C 159.925 415.298 160.318 414.888 160.31 414.495 C 159.975 394.263 160.979 359.832 169.364 338.973 C 170.677 335.566 172.408 332.337 174.517 329.359 C 174.685 329.133 174.844 328.907 175.003 328.681 C 178.869 323.267 181.312 317.938 184.776 314.147 L 184.776 314.138 C 184.798 314.122 184.817 314.102 184.834 314.08 C 184.847 314.074 184.858 314.065 184.868 314.055 L 208.664 301.437 L 209.685 330.12 L 210.413 350.737 L 211.099 369.973 Z" fill="#3f3d56" style=""/>
  <path d="M 296.905 373.355 L 303.855 388.226 L 306.281 393.405 L 312.814 427.615 L 316.074 431.079 L 318.884 418.79 L 320.204 418.519 L 344.012 413.588 L 350.951 435.626 C 354.175 430.254 353.175 423.356 348.559 419.12 C 348.084 418.691 347.69 418.273 347.701 417.878 C 348.096 394.082 346.641 350.63 333.496 332.747 C 329.321 327.072 326.816 321.419 323.172 317.47 C 323.16 317.458 323.16 317.447 323.149 317.447 L 314.281 302.926 L 313.739 302.034 L 313.13 301.729 L 296.905 373.355 Z" fill="#3f3d56" style=""/>
  <circle id="a657ec4b-47ce-4d2a-9c58-81a811696ca9" data-name="Ellipse 5" cx="254.799" cy="233.215" r="32.683" fill="#ffb6b6" style=""/>
  <path d="M 298.974 210.386 C 298.462 209.84 297.75 209.524 297 209.514 L 297.492 208.15 C 298.188 206.283 296.604 204.363 294.639 204.692 C 294.622 204.695 294.605 204.699 294.588 204.702 L 292.797 205.046 L 292.966 203.851 C 293.249 201.903 291.342 200.363 289.497 201.049 C 288.72 201.355 287.847 201.292 287.12 200.881 C 286.392 200.48 285.877 199.78 285.712 198.966 L 285.089 195.958 L 285.023 195.798 C 281.986 190.736 276.148 187.054 269.004 185.705 C 262.644 184.495 256.124 185.111 249.838 185.69 C 247.345 185.925 244.528 186.189 242.18 187.627 C 240.186 188.858 238.499 191.323 238.843 193.81 C 232.645 191.91 226 195.702 222.707 200.484 C 218.805 206.176 218.166 213.306 218.064 218.88 C 217.785 232.068 220.507 242.857 226.132 250.954 C 226.543 251.541 226.646 252.766 227.459 253.177 L 227.292 252.905 C 228.201 253.36 229.125 254.094 228.78 254.879 C 227.79 257.138 234.369 262.132 239.005 263.783 C 247.462 266.797 258.706 266.541 266.613 265.456 L 266.891 263.585 C 269.744 263.196 271.754 262.456 272.319 261.296 C 273.317 260.446 274.167 259.683 274.908 258.979 L 274.916 258.972 C 274.93 258.957 274.96 258.934 274.974 258.92 C 278.546 255.495 279.375 253.544 279.75 250.573 C 280.109 247.662 279.471 244.706 278.818 242.043 C 292.563 244.17 273.404 227.403 286.211 224.161 C 286.358 224.116 286.508 224.079 286.658 224.051 C 287.033 223.963 287.407 223.875 287.766 223.772 C 289.498 223.302 291.157 222.594 292.695 221.667 C 296.274 219.488 297.455 216.598 299.303 213.342 C 299.851 212.39 299.717 211.194 298.974 210.386 Z" fill="#2f2e41" style=""/>
  <path d="M 370.392 375.682 C 370.384 376.965 370.37 378.763 370.311 380.985 C 370.304 381.293 370.297 381.609 370.29 381.931 C 370.194 386.016 370.098 389.442 369.945 393.249 C 369.937 393.513 369.93 393.769 369.915 394.034 C 369.71 399.344 369.387 405.527 368.83 415.319 C 367.795 433.407 365.991 417.806 364.179 424.15 C 364.092 424.465 363.996 424.84 363.908 425.279 C 363.634 426.876 363.171 428.434 362.529 429.923 C 361.568 430.494 360.578 431.045 359.603 431.595 C 356.823 433.142 353.999 434.631 351.153 436.047 C 349.554 436.839 347.948 437.617 346.334 438.364 C 346.077 438.482 345.828 438.599 345.579 438.709 C 337.316 442.532 328.799 445.781 320.091 448.435 C 318.389 448.948 316.694 449.448 314.978 449.91 C 313.188 450.408 311.399 450.878 309.587 451.317 C 296.11 454.626 282.319 456.492 268.446 456.885 C 266.576 456.944 264.691 456.966 262.799 456.966 C 261.86 456.966 260.936 456.958 259.997 456.951 C 259.711 456.951 259.425 456.944 259.139 456.936 C 258.31 456.914 257.452 456.9 256.586 456.877 C 239.847 456.356 223.245 453.686 207.187 448.934 L 206.504 448.736 C 205.448 448.413 204.399 448.098 203.351 447.76 C 198.51 446.227 193.74 444.511 189.041 442.611 C 185.454 441.167 181.909 439.616 178.405 437.962 C 178.373 437.953 178.343 437.937 178.317 437.917 C 177.584 437.58 176.843 437.227 176.109 436.868 C 176.014 436.817 175.912 436.765 175.809 436.714 C 173.073 435.379 170.366 433.981 167.689 432.519 C 165.438 427.348 162.269 426.357 160.303 421.81 C 159.731 420.459 159.318 419.047 159.071 417.6 C 159.071 417.585 159.064 417.571 159.064 417.548 C 159.268 420.278 158.19 412.708 159.056 417.519 C 159.049 417.431 159.042 417.336 159.034 417.226 C 159.012 416.962 158.983 416.639 158.939 416.235 C 156.423 391.672 156.584 363.58 155.491 340.431 C 155.418 338.935 155.342 337.502 155.264 336.133 C 155.242 335.678 155.213 335.231 155.183 334.791 C 155.235 334.659 155.293 334.519 155.359 334.387 C 155.374 334.35 155.391 334.312 155.411 334.277 C 155.433 334.232 155.457 334.188 155.484 334.145 C 155.499 334.124 155.521 334.094 155.535 334.072 C 155.546 334.047 155.558 334.022 155.572 333.999 C 155.638 333.896 155.711 333.786 155.793 333.683 C 155.829 333.64 155.858 333.603 155.895 333.565 C 155.92 333.529 155.95 333.494 155.983 333.464 C 156.005 333.428 156.033 333.396 156.063 333.368 C 156.093 333.338 156.122 333.302 156.159 333.265 C 156.175 333.242 156.195 333.222 156.218 333.206 C 156.276 333.14 156.339 333.079 156.408 333.023 C 156.67 332.782 156.949 332.561 157.244 332.363 C 157.347 332.297 157.457 332.231 157.56 332.158 C 158.299 331.715 159.077 331.342 159.885 331.043 C 160.164 330.94 160.442 330.844 160.743 330.742 C 160.853 330.713 160.956 330.676 161.066 330.639 C 161.227 330.588 161.388 330.537 161.557 330.5 C 162.393 330.25 163.295 330.038 164.271 329.839 C 164.389 329.818 164.513 329.796 164.638 329.766 C 164.814 329.729 164.997 329.7 165.18 329.671 C 165.43 329.627 165.687 329.583 165.943 329.539 C 168.122 329.194 170.594 328.938 173.322 328.769 C 173.579 328.754 173.836 328.74 174.092 328.725 C 174.393 328.71 174.694 328.696 175.001 328.681 C 175.259 328.666 175.522 328.659 175.787 328.651 C 176.043 328.637 176.307 328.63 176.579 328.623 C 177.32 328.6 178.082 328.578 178.86 328.564 C 181.075 328.52 183.408 328.534 185.857 328.585 C 186.994 328.615 188.153 328.644 189.341 328.696 C 189.422 328.696 189.495 328.703 189.569 328.703 C 190.603 328.74 191.645 328.783 192.715 328.842 C 193.464 328.879 194.219 328.916 194.974 328.959 C 195.686 329.003 196.404 329.048 197.131 329.099 C 197.695 329.128 198.261 329.172 198.832 329.209 C 199.317 329.245 199.801 329.282 200.285 329.311 L 200.945 329.356 C 201.304 329.385 201.663 329.407 202.03 329.444 C 202.837 329.51 203.644 329.576 204.466 329.642 C 205.279 329.715 206.108 329.788 206.937 329.862 C 207.766 329.935 208.603 330.016 209.439 330.097 C 209.526 330.104 209.608 330.111 209.688 330.118 C 210.451 330.199 211.214 330.273 211.984 330.353 C 212.16 330.368 212.343 330.382 212.519 330.405 C 213.253 330.478 214.002 330.565 214.743 330.643 C 214.97 330.668 215.196 330.692 215.425 330.717 C 216.005 330.78 216.577 330.835 217.161 330.903 C 217.932 330.992 218.717 331.072 219.48 331.175 C 220.074 331.241 220.668 331.307 221.262 331.38 C 222.193 331.49 223.139 331.607 224.085 331.732 C 224.445 331.776 224.805 331.82 225.164 331.872 C 227.863 332.209 230.591 332.583 233.364 332.971 C 237.567 333.566 241.836 334.211 246.134 334.908 C 250.44 335.605 254.77 336.341 259.124 337.116 C 260.224 337.314 261.324 337.512 262.432 337.717 C 262.93 337.812 263.43 337.908 263.928 338.003 C 264.779 338.157 265.63 338.319 266.48 338.48 C 267.332 338.641 268.182 338.803 269.033 338.972 C 270.046 339.169 271.065 339.367 272.077 339.566 C 278.745 340.886 285.375 342.294 291.844 343.769 C 292.908 344.01 293.971 344.26 295.027 344.502 C 297.14 344.994 299.233 345.492 301.306 345.999 C 301.878 346.13 302.442 346.269 303.008 346.409 C 304.416 346.761 305.825 347.113 307.21 347.472 L 307.452 347.539 C 308.472 347.788 309.469 348.044 310.467 348.309 C 312.822 348.925 315.136 349.549 317.413 350.179 C 318.924 350.597 320.418 351.02 321.894 351.448 C 324.103 352.086 326.266 352.731 328.371 353.384 C 328.892 353.545 329.412 353.707 329.926 353.861 C 331.466 354.338 332.985 354.822 334.459 355.306 C 335.633 355.687 336.777 356.076 337.906 356.465 C 339.036 356.853 340.143 357.243 341.229 357.631 C 341.926 357.88 342.616 358.145 343.304 358.394 C 344.295 358.76 345.271 359.128 346.224 359.494 C 346.518 359.605 346.803 359.722 347.089 359.831 C 347.272 359.912 347.448 359.978 347.624 360.051 C 347.969 360.191 348.321 360.323 348.659 360.462 C 349.004 360.594 349.341 360.734 349.678 360.88 C 350.009 361.012 350.346 361.152 350.669 361.291 C 350.998 361.423 351.322 361.563 351.644 361.709 C 351.916 361.819 352.179 361.937 352.437 362.054 C 352.958 362.281 353.478 362.509 353.984 362.744 C 354.233 362.861 354.482 362.971 354.733 363.088 L 355.304 363.352 C 355.385 363.396 355.466 363.432 355.546 363.47 C 355.729 363.557 355.921 363.653 356.104 363.741 C 356.529 363.939 356.947 364.152 357.358 364.35 C 357.908 364.629 358.443 364.907 358.957 365.179 C 359.478 365.458 359.983 365.736 360.468 366.007 C 360.549 366.052 360.622 366.095 360.703 366.139 C 360.812 366.198 360.922 366.264 361.033 366.323 C 361.406 366.536 361.766 366.756 362.126 366.968 C 362.83 367.401 363.497 367.827 364.12 368.252 C 364.26 368.347 364.392 368.442 364.531 368.531 C 364.993 368.86 365.434 369.184 365.844 369.513 C 365.844 369.52 365.844 369.52 365.852 369.52 C 365.991 369.623 366.123 369.733 366.255 369.836 C 366.365 369.938 366.482 370.027 366.592 370.13 C 366.974 370.459 367.326 370.775 367.649 371.098 C 367.757 371.197 367.86 371.303 367.957 371.413 C 367.999 371.448 368.038 371.487 368.074 371.53 C 368.221 371.677 368.353 371.824 368.477 371.971 C 368.497 371.99 368.514 372.013 368.529 372.037 C 368.705 372.242 368.867 372.447 369.02 372.652 C 369.093 372.755 369.174 372.858 369.24 372.96 C 369.328 373.086 369.416 373.218 369.49 373.342 C 369.555 373.445 369.614 373.555 369.673 373.657 C 369.829 373.922 369.961 374.2 370.069 374.486 C 370.151 374.681 370.218 374.882 370.267 375.087 C 370.323 375.282 370.365 375.481 370.392 375.682 Z" fill="#2f2e41" style=""/>
  <path d="M 370.392 375.682 C 370.384 376.965 370.37 378.763 370.311 380.985 C 370.304 381.293 370.29 381.609 370.282 381.931 C 370.208 385.048 370.098 388.899 369.945 393.249 C 369.937 393.513 369.93 393.769 369.915 394.034 C 369.71 399.344 369.387 405.527 368.83 415.319 C 367.795 433.407 365.991 417.806 364.179 424.15 C 359.148 421.055 353.632 417.813 347.735 414.483 C 346.671 413.881 345.598 413.278 344.515 412.671 C 332.72 406.092 319.548 399.197 305.795 392.369 C 305.252 392.097 304.702 391.825 304.159 391.562 C 272.657 375.99 238.271 360.844 210.414 350.737 C 205.037 348.786 199.903 347.025 195.077 345.478 C 184.911 342.228 176.124 339.954 169.361 338.972 C 162.32 337.944 157.457 338.312 155.491 340.431 C 155.418 338.935 155.342 337.502 155.264 336.133 C 155.234 335.678 155.206 335.231 155.176 334.791 C 155.222 334.67 155.28 334.554 155.337 334.438 C 155.345 334.421 155.351 334.404 155.359 334.387 C 155.374 334.349 155.391 334.312 155.411 334.277 C 155.433 334.232 155.457 334.188 155.484 334.145 C 155.508 334.093 155.537 334.044 155.572 333.999 C 155.638 333.896 155.711 333.786 155.793 333.683 C 155.851 333.606 155.915 333.532 155.983 333.463 C 156.005 333.428 156.033 333.396 156.063 333.368 C 156.093 333.338 156.122 333.302 156.159 333.265 C 156.175 333.242 156.195 333.222 156.218 333.206 C 156.276 333.14 156.339 333.079 156.408 333.023 C 156.67 332.782 156.949 332.561 157.244 332.363 C 157.347 332.297 157.457 332.231 157.56 332.158 C 158.299 331.715 159.077 331.342 159.885 331.043 C 160.164 330.94 160.442 330.844 160.743 330.742 C 160.853 330.712 160.956 330.676 161.066 330.639 C 161.227 330.588 161.388 330.536 161.557 330.5 C 162.393 330.25 163.295 330.038 164.271 329.839 C 164.565 329.781 164.872 329.722 165.18 329.671 C 165.43 329.627 165.687 329.583 165.943 329.539 C 168.122 329.194 170.594 328.937 173.322 328.769 C 173.579 328.754 173.836 328.74 174.092 328.725 C 174.393 328.71 174.694 328.696 175.001 328.681 C 175.259 328.666 175.522 328.658 175.787 328.651 C 176.043 328.637 176.307 328.63 176.579 328.622 C 177.32 328.6 178.082 328.578 178.86 328.564 C 181.075 328.527 183.408 328.541 185.857 328.593 C 186.994 328.615 188.153 328.651 189.341 328.703 C 189.414 328.703 189.495 328.71 189.569 328.71 C 190.603 328.74 191.652 328.791 192.715 328.842 C 193.464 328.879 194.218 328.916 194.974 328.959 C 195.686 329.003 196.404 329.048 197.131 329.099 C 197.695 329.128 198.261 329.172 198.832 329.209 C 199.317 329.245 199.801 329.282 200.285 329.311 C 200.864 329.356 201.444 329.4 202.03 329.444 C 202.837 329.51 203.644 329.576 204.466 329.642 C 205.279 329.715 206.108 329.788 206.937 329.862 C 207.766 329.935 208.603 330.015 209.439 330.097 C 209.526 330.104 209.607 330.111 209.688 330.118 C 210.451 330.199 211.214 330.273 211.984 330.353 C 216.252 330.786 220.646 331.292 225.164 331.872 C 227.863 332.216 230.597 332.585 233.364 332.979 C 237.567 333.573 241.836 334.218 246.134 334.908 C 250.44 335.605 254.77 336.341 259.124 337.115 C 260.224 337.314 261.324 337.512 262.432 337.717 C 263.782 337.967 265.131 338.22 266.48 338.48 C 267.332 338.641 268.182 338.803 269.033 338.972 C 270.046 339.169 271.065 339.367 272.077 339.566 C 278.745 340.886 285.375 342.294 291.844 343.769 C 292.908 344.01 293.971 344.26 295.027 344.502 C 297.14 344.994 299.233 345.492 301.306 345.999 C 301.878 346.138 302.442 346.277 303.008 346.417 C 304.423 346.769 305.825 347.121 307.21 347.472 L 307.21 347.48 C 307.291 347.495 307.372 347.516 307.452 347.539 C 308.464 347.795 309.469 348.052 310.467 348.316 C 312.822 348.932 315.136 349.553 317.413 350.179 C 318.924 350.604 320.42 351.023 321.894 351.448 C 324.103 352.094 326.266 352.739 328.371 353.384 C 328.892 353.545 329.412 353.707 329.926 353.861 C 331.466 354.345 332.978 354.827 334.459 355.306 C 335.633 355.687 336.777 356.076 337.906 356.465 C 339.036 356.853 340.144 357.243 341.229 357.631 C 341.933 357.88 342.623 358.137 343.304 358.387 C 344.302 358.753 345.271 359.12 346.224 359.494 C 346.518 359.604 346.803 359.722 347.089 359.831 C 347.624 360.037 348.145 360.25 348.659 360.462 C 349.004 360.594 349.341 360.734 349.678 360.88 C 350.009 361.012 350.346 361.152 350.669 361.291 C 350.998 361.423 351.322 361.563 351.644 361.709 C 351.916 361.819 352.179 361.936 352.437 362.054 C 352.958 362.281 353.478 362.509 353.984 362.744 C 354.233 362.861 354.482 362.971 354.733 363.088 L 355.304 363.352 C 355.385 363.396 355.466 363.432 355.546 363.47 C 356.17 363.763 356.771 364.056 357.358 364.35 C 357.908 364.629 358.443 364.907 358.957 365.179 C 359.565 365.501 360.145 365.817 360.703 366.139 C 360.812 366.198 360.922 366.264 361.033 366.322 C 361.406 366.536 361.766 366.756 362.126 366.968 C 362.83 367.401 363.497 367.827 364.12 368.252 C 364.737 368.677 365.308 369.095 365.844 369.513 C 365.844 369.52 365.844 369.52 365.852 369.52 C 366.108 369.726 366.358 369.931 366.592 370.13 C 366.974 370.459 367.326 370.775 367.649 371.098 C 367.757 371.197 367.86 371.303 367.957 371.413 C 367.999 371.448 368.038 371.487 368.074 371.53 C 368.228 371.699 368.382 371.868 368.529 372.037 C 368.705 372.241 368.867 372.447 369.02 372.652 C 369.093 372.755 369.175 372.858 369.24 372.96 C 369.328 373.086 369.417 373.218 369.49 373.342 C 369.556 373.445 369.614 373.555 369.673 373.657 C 369.829 373.922 369.961 374.2 370.069 374.486 C 370.149 374.682 370.215 374.883 370.267 375.087 C 370.323 375.282 370.365 375.481 370.392 375.682 Z" opacity="0.2" style=""/>
</svg>