<?xml version="1.0" encoding="utf-8"?>
<svg data-name="Layer 1" width="733.86247" height="702.19479" viewBox="0 0 500 500" xmlns="http://www.w3.org/2000/svg">
  <title>cloud_files</title>
  <path d="M 26.383 304.338 C 26.307 304.249 26.253 304.144 26.226 304.03 C -16.201 128.791 146.984 -26.661 319.958 24.215 C 328.692 26.785 337.268 29.86 345.643 33.427 C 346.172 33.652 346.259 34.365 345.8 34.71 C 345.587 34.872 345.304 34.906 345.058 34.802 C 263.309 0.04 170.544 14.206 102.966 71.774 C 35.801 128.989 6.952 217.85 27.678 303.678 C 27.813 304.237 27.293 304.733 26.741 304.57 C 26.601 304.53 26.477 304.449 26.383 304.338 Z" fill="#e6e6e6" style=""/>
  <path d="M 162.917 464.618 C 162.544 464.18 162.782 463.503 163.348 463.398 C 163.491 463.371 163.639 463.387 163.774 463.443 C 245.217 497.551 337.534 483.196 404.701 425.98 C 472.914 367.872 501.882 278.548 480.299 192.868 C 480.158 192.311 480.675 191.81 481.228 191.967 C 481.485 192.041 481.683 192.245 481.748 192.504 C 492.222 234.139 490.893 277.867 477.913 318.789 C 464.473 360.962 439.437 398.501 405.67 427.117 C 338.431 484.424 244.661 499.005 163.196 464.821 C 163.087 464.777 162.993 464.706 162.917 464.618 Z" fill="#e6e6e6" style=""/>
  <path d="M 145.656 477.874 C 145.388 477.561 145.425 477.089 145.74 476.821 L 498.574 176.257 C 499.011 175.884 499.688 176.125 499.792 176.69 C 499.84 176.953 499.745 177.221 499.542 177.394 L 146.708 477.958 C 146.395 478.226 145.922 478.189 145.656 477.874 Z" fill="#e6e6e6" style=""/>
  <path d="M 10.551 319.275 C 10.283 318.961 10.321 318.49 10.635 318.222 L 363.469 17.658 C 363.906 17.285 364.583 17.527 364.687 18.092 C 364.735 18.354 364.639 18.621 364.437 18.795 L 11.603 319.359 C 11.29 319.627 10.819 319.589 10.551 319.275 Z" fill="#e6e6e6" style=""/>
  <path d="M 145.656 477.874 C 145.388 477.561 145.425 477.089 145.74 476.821 L 498.574 176.257 C 499.011 175.884 499.688 176.125 499.792 176.69 C 499.84 176.953 499.745 177.221 499.542 177.394 L 146.708 477.958 C 146.395 478.226 145.922 478.189 145.656 477.874 Z" fill="#e6e6e6" style=""/>
  <path d="M 422.887 138.602 L 286.33 138.602 L 286.33 137.887 C 286.33 136.729 285.39 135.788 284.231 135.788 L 226.509 135.788 C 225.35 135.788 224.41 136.729 224.41 137.887 L 224.41 138.602 L 87.289 138.602 C 82.187 138.602 78.052 142.739 78.052 147.84 L 78.052 334.829 C 78.052 339.931 82.187 344.066 87.289 344.066 L 422.887 344.066 C 427.989 344.066 432.125 339.931 432.125 334.829 L 432.125 147.84 C 432.125 142.739 427.989 138.602 422.887 138.602 Z" fill="#3f3d56" style=""/>
  <path d="M 94.636 158.262 C 94.158 158.263 93.771 158.649 93.771 159.126 L 93.771 336.49 C 93.771 336.967 94.158 337.353 94.636 337.354 L 415.541 337.354 C 416.019 337.353 416.406 336.967 416.406 336.49 L 416.406 159.126 C 416.406 158.649 416.019 158.262 415.541 158.262 L 94.636 158.262 Z" fill="#426da9" style=""/>
  <circle cx="254.807" cy="146.483" r="3.378" fill="#426da9" style=""/>
  <path d="M 438.275 331.463 L 406.137 331.463 L 406.137 328.144 C 406.137 327.962 405.932 327.815 405.678 327.815 L 394.659 327.815 C 394.406 327.815 394.2 327.962 394.2 328.144 L 394.2 331.463 L 387.313 331.463 L 387.313 328.144 C 387.313 327.962 387.108 327.815 386.854 327.815 L 375.835 327.815 C 375.581 327.815 375.377 327.962 375.377 328.144 L 375.377 331.463 L 368.489 331.463 L 368.489 328.144 C 368.489 327.962 368.284 327.815 368.03 327.815 L 357.012 327.815 C 356.758 327.815 356.552 327.962 356.552 328.144 L 356.552 331.463 L 349.666 331.463 L 349.666 328.144 C 349.666 327.962 349.46 327.815 349.207 327.815 L 338.188 327.815 C 337.935 327.815 337.729 327.962 337.729 328.144 L 337.729 331.463 L 330.842 331.463 L 330.842 328.144 C 330.842 327.962 330.637 327.815 330.383 327.815 L 319.364 327.815 C 319.11 327.815 318.906 327.962 318.906 328.144 L 318.906 331.463 L 312.018 331.463 L 312.018 328.144 C 312.018 327.962 311.812 327.815 311.56 327.815 L 300.541 327.815 C 300.287 327.815 300.081 327.962 300.081 328.144 L 300.081 331.463 L 293.195 331.463 L 293.195 328.144 C 293.195 327.962 292.989 327.815 292.735 327.815 L 206.423 327.815 C 206.169 327.815 205.963 327.962 205.963 328.144 L 205.963 331.463 L 199.077 331.463 L 199.077 328.144 C 199.077 327.962 198.871 327.815 198.617 327.815 L 187.598 327.815 C 187.345 327.815 187.14 327.962 187.14 328.144 L 187.14 331.463 L 180.252 331.463 L 180.252 328.144 C 180.252 327.962 180.048 327.815 179.794 327.815 L 168.775 327.815 C 168.521 327.815 168.316 327.962 168.316 328.144 L 168.316 331.463 L 161.429 331.463 L 161.429 328.144 C 161.429 327.962 161.223 327.815 160.971 327.815 L 149.951 327.815 C 149.698 327.815 149.492 327.962 149.492 328.144 L 149.492 331.463 L 142.606 331.463 L 142.606 328.144 C 142.606 327.962 142.4 327.815 142.146 327.815 L 131.128 327.815 C 130.874 327.815 130.668 327.962 130.668 328.144 L 130.668 331.463 L 123.782 331.463 L 123.782 328.144 C 123.782 327.962 123.576 327.815 123.323 327.815 L 112.303 327.815 C 112.051 327.815 111.845 327.962 111.845 328.144 L 111.845 331.463 L 104.958 331.463 L 104.958 328.144 C 104.958 327.962 104.753 327.815 104.499 327.815 L 93.48 327.815 C 93.226 327.815 93.022 327.962 93.022 328.144 L 93.022 331.463 L 71.901 331.463 C 65.816 331.463 60.883 335.009 60.883 339.385 L 60.883 342.967 C 60.883 347.341 65.816 350.887 71.901 350.887 L 438.275 350.887 C 444.361 350.887 449.294 347.341 449.294 342.967 L 449.294 339.385 C 449.294 335.009 444.361 331.463 438.275 331.463 Z" fill="#3f3d56" style=""/>
  <path d="M 217.726 232.881 L 122.874 232.881 C 122.298 232.881 121.939 232.259 122.227 231.761 C 122.36 231.529 122.607 231.388 122.874 231.388 L 217.726 231.388 C 218.301 231.388 218.66 232.01 218.373 232.508 C 218.239 232.739 217.993 232.881 217.726 232.881 Z" fill="#f2f2f2" style=""/>
  <path d="M 217.726 249.313 L 122.874 249.313 C 122.298 249.313 121.939 248.69 122.227 248.193 C 122.36 247.961 122.607 247.818 122.874 247.818 L 217.726 247.818 C 218.301 247.818 218.66 248.441 218.373 248.939 C 218.239 249.17 217.993 249.313 217.726 249.313 Z" fill="#f2f2f2" style=""/>
  <path d="M 217.726 265.744 L 122.874 265.744 C 122.298 265.746 121.937 265.124 122.223 264.626 C 122.357 264.393 122.605 264.249 122.874 264.25 L 217.726 264.25 C 218.301 264.248 218.662 264.87 218.376 265.368 C 218.243 265.601 217.995 265.745 217.726 265.744 Z" fill="#f2f2f2" style=""/>
  <rect x="259.177" y="189.937" width="121.74" height="117.259" rx="3.36" fill="#fff" style=""/>
  <path d="M 283.555 251.994 C 284.86 228.924 310.649 215.919 329.974 228.582 C 336.067 232.575 340.499 238.646 342.447 245.665 C 342.81 245.651 343.173 245.637 343.54 245.637 C 344.792 245.649 346.032 245.861 347.218 246.263 C 362.148 251.166 358.216 273.457 342.502 273.457 L 303.881 273.457 C 292.365 273.489 283.127 263.946 283.533 252.436 C 283.539 252.288 283.546 252.141 283.555 251.994 Z" fill="#426da9" style=""/>
  <polygon points="318.757 251.526 318.757 239.24 312.142 239.24 312.142 251.526 306.861 251.526 311.155 258.965 315.45 266.403 319.744 258.965 324.039 251.526 318.757 251.526" fill="#fff" style=""/>
</svg>