<?xml version="1.0" encoding="utf-8"?>
<svg data-name="Layer 1" width="864.67004" height="644.31682" viewBox="0 0 500 500" xmlns="http://www.w3.org/2000/svg">
  <path d="M 367.858 417.479 C 367.926 417.404 367.415 417.34 366.469 417.285 L 366.469 385.532 L 320.632 385.532 L 320.632 388.087 L 299.998 388.087 C 294.96 388.094 290.878 392.176 290.872 397.214 L 290.872 410.347 C 290.875 415.386 294.959 419.469 299.998 419.473 L 321.146 419.501 L 330.431 419.514 L 331.07 419.514 L 340.363 419.528 L 366.317 419.563 L 368.554 419.563 C 368.879 419.195 367.546 417.847 367.858 417.479 Z" fill="#3f3d56" style=""/>
  <path d="M 368.352 418.069 C 366.837 420.28 365.608 420.199 364.533 418.768 C 363.967 417.946 363.512 417.053 363.178 416.112 C 359.912 407.737 357.775 388.522 351.615 395.24 C 350.399 396.567 349.164 397.884 347.924 399.185 C 345.619 401.609 343.213 404.24 340.829 406.563 C 340.827 406.57 340.883 406.312 340.875 406.318 C 339.698 407.468 340.584 397.516 340.119 394.716 C 340.02 394.111 339.858 393.841 339.602 394.082 C 339.581 393.81 339.569 393.539 339.571 393.264 C 339.568 392.831 339.59 392.399 339.636 391.969 C 339.675 391.573 339.728 391.174 339.803 390.771 L 359.943 283.078 C 361.032 277.289 365.75 272.875 371.598 272.172 C 372.948 272.023 374.312 272.071 375.648 272.316 L 379.315 273 C 380.762 273.271 382.154 273.78 383.435 274.506 L 383.442 274.507 C 388.462 277.339 391.127 283.047 390.076 288.714 L 368.352 418.069 Z" fill="#3f3d56" style=""/>
  <polygon points="196.374 479.414 186.919 474.892 199.907 435.37 213.862 442.044 196.374 479.414" fill="#a0616a" style=""/>
  <path d="M 259.763 473.042 C 259.076 473.473 258.388 473.897 257.694 474.32 C 256.311 475.167 254.915 476 253.52 476.821 C 252.818 477.23 252.11 477.64 251.408 478.043 L 251.408 478.064 L 251.366 478.071 L 251.352 478.078 L 250.283 478.341 L 248.749 474.285 L 248.04 472.417 L 247.039 469.771 L 245.206 464.93 L 235.552 439.441 L 250.561 435.74 L 251.123 438.038 L 251.13 438.038 L 251.408 439.178 L 256.652 460.444 L 257.721 464.791 L 257.756 464.923 L 258.402 467.52 L 258.957 469.771 L 259.576 472.285 L 259.763 473.042 Z" fill="#a0616a" style=""/>
  <path d="M 349.294 383.532 C 348.343 385.06 347.371 386.581 346.392 388.087 C 344.572 390.894 342.703 393.658 340.787 396.381 C 340.787 396.387 340.78 396.387 340.773 396.394 C 339.655 397.43 338.42 398.332 337.092 399.082 C 337.036 399.123 336.974 399.152 336.918 399.186 C 335.941 399.727 334.9 400.144 333.821 400.429 C 333.432 400.526 333.036 400.624 332.647 400.721 C 331.244 401.055 329.855 401.339 328.473 401.589 C 326.014 402.027 323.584 402.339 321.167 402.534 C 320.972 402.554 320.778 402.568 320.583 402.583 C 310.645 403.312 300.971 402.138 290.872 400.214 C 285.885 399.269 280.795 398.138 275.524 396.964 C 273.801 396.574 272.071 396.193 270.321 395.811 C 270.19 395.783 270.051 395.748 269.912 395.721 C 267.412 395.172 264.869 394.63 262.265 394.095 C 258.987 393.421 255.604 392.768 252.09 392.151 L 252.341 397.103 C 252.548 400.912 253.34 404.667 254.688 408.236 C 256.188 412.625 257.375 416.097 254.868 423.327 L 253.66 426.828 C 254.93 430.352 254.474 434.267 252.431 437.405 L 252.187 437.773 L 262.265 463.268 L 262.918 464.922 L 257.758 464.922 L 251.41 464.929 L 240.652 464.929 L 225.129 433.787 L 224.386 432.301 L 224.386 432.224 L 225.99 372.378 C 226.012 371.85 226.053 371.315 226.122 370.788 C 226.694 365.94 229.189 361.526 233.047 358.536 C 236.743 355.648 241.444 354.361 246.096 354.966 L 251.41 355.654 L 262.265 357.057 L 269.912 358.05 L 270.064 358.071 L 292.615 360.988 L 294.233 354.39 L 294.532 354.279 L 304.026 350.799 L 336.862 338.764 L 336.946 338.735 L 339.106 337.944 L 339.363 338.36 C 339.44 338.486 339.516 338.611 339.585 338.735 C 341.72 342.563 343.458 346.598 344.774 350.778 C 346.984 357.607 348.804 364.557 350.225 371.593 C 350.288 371.899 350.343 372.177 350.391 372.426 L 350.413 372.503 C 350.433 372.621 350.447 372.697 350.454 372.718 C 351.212 375.871 350.683 379.719 349.294 383.532 Z" fill="#2f2e41" style=""/>
  <path d="M 350.681 361.477 C 350.576 361.032 350.445 360.581 350.306 360.143 C 349.202 356.83 347.918 353.578 346.458 350.407 C 344.819 346.794 342.853 342.926 340.513 338.738 C 339.38 336.71 338.163 334.601 336.86 332.412 C 336.207 331.314 335.528 330.196 334.825 329.057 C 334.798 329.004 334.767 328.953 334.735 328.904 L 334.533 328.571 L 302.044 332.918 L 289.945 334.537 L 289.222 340.565 L 289.049 342.058 C 289.042 342.058 289.042 342.058 289.049 342.065 L 288.563 346.135 L 288.563 346.142 L 287.918 351.518 L 287.862 351.511 L 269.908 349.184 L 251.406 346.788 L 241.468 345.503 C 236.816 344.897 232.114 346.183 228.418 349.072 C 224.561 352.063 222.067 356.477 221.494 361.324 C 221.431 361.81 221.39 362.31 221.369 362.803 L 211.993 385.021 C 206.382 398.308 202.809 412.366 201.394 426.719 L 194.519 448.701 L 195.498 448.791 L 210.069 450.146 L 213.917 450.507 L 222.389 438.137 C 223.355 436.727 224.272 435.275 225.126 433.79 C 226.533 431.362 227.783 428.848 228.87 426.261 L 247.198 382.646 C 248.615 382.889 250.017 383.12 251.406 383.34 C 257.831 384.382 263.998 385.232 269.908 385.889 C 289.126 388.035 305.767 388.202 320.58 386.382 C 324.74 385.875 328.761 385.209 332.644 384.382 C 334.068 384.083 335.473 383.761 336.86 383.416 C 337.186 383.34 337.506 383.264 337.825 383.18 C 343.657 381.676 348.327 377.313 350.222 371.595 C 351.335 368.335 351.495 364.825 350.681 361.477 Z" fill="#2f2e41" style=""/>
  <path d="M 199.395 472.96 L 189.164 468.057 L 187.56 467.286 L 184.997 473.578 L 167.106 477.516 C 163.914 478.216 162.677 482.108 164.879 484.523 C 165.304 484.989 165.828 485.355 166.412 485.593 L 183.893 492.726 L 189.442 487.733 L 188.081 494.434 L 194.665 497.122 L 201.881 474.155 L 199.395 472.96 Z" fill="#2f2e41" style=""/>
  <polygon points="262.264 463.269 262.917 464.922 262.264 464.922 262.264 463.269" fill="#2f2e41" style=""/>
  <path d="M 140.031 343.07 C 140.031 339.347 138.781 336.325 137.246 336.318 L 21.616 336.318 C 20.074 336.325 18.831 339.347 18.824 343.07 L 18.824 496.309 C 18.824 497.025 18.281 497.625 17.568 497.694 C 16.444 497.801 15.322 497.901 14.199 497.994 C 14.171 497.994 14.143 498.001 14.115 498.001 C 13.504 498.057 12.893 498.099 12.282 498.147 L 12.275 498.147 C 11.961 497.566 11.65 496.98 11.342 496.389 C 11.239 496.19 11.185 495.967 11.185 495.743 L 11.185 334.312 C 11.185 333.284 11.226 332.249 11.295 331.228 C 11.394 329.826 11.569 328.43 11.816 327.047 C 12.99 320.595 15.643 316.227 18.657 316.212 L 140.197 316.212 C 140.637 316.215 141.072 316.308 141.475 316.483 C 142.067 316.746 142.603 317.121 143.052 317.587 C 143.661 318.221 144.182 318.934 144.6 319.706 C 146.087 322.324 147.149 326.227 147.524 330.769 C 147.524 330.811 147.531 330.853 147.531 330.894 C 147.629 332.02 147.677 333.165 147.67 334.312 L 147.768 349.195 L 147.83 358.071 L 148.018 385.921 L 148.087 395.811 L 148.392 497.349 C 148.392 498.116 147.77 498.738 147.003 498.738 L 141.42 498.738 C 140.653 498.738 140.031 498.116 140.031 497.349 L 140.031 343.07 Z" fill="#3f3d56" style=""/>
  <polygon points="57.606 274.924 49.564 310.312 44.424 315.943 40.716 315.943 55.998 251.598 56.754 262.53 56.754 262.537 57.606 274.924" fill="#3f3d56" style=""/>
  <path d="M 96.314 311.09 L 49.129 310.791 L 44.942 310.763 L 41.955 310.742 L 38.475 310.722 L 38.448 310.722 C 37.943 310.723 37.459 310.922 37.101 311.278 L 31.225 317.153 C 31.095 317.281 30.989 317.432 30.912 317.597 C 30.876 317.644 30.846 317.695 30.822 317.75 C 30.271 319.03 31.193 320.46 32.586 320.486 L 93.711 320.486 C 94.459 320.484 95.139 320.052 95.461 319.375 L 95.939 318.333 L 96.926 316.215 L 98.044 313.826 C 98.163 313.572 98.225 313.295 98.224 313.013 C 98.219 311.959 97.37 311.103 96.314 311.09 Z" fill="#3f3d56" style=""/>
  <path d="M 95.939 318.332 L 95.457 319.377 C 95.137 320.052 94.458 320.483 93.712 320.487 L 32.585 320.487 C 31.192 320.462 30.271 319.031 30.824 317.753 C 30.846 317.698 30.875 317.646 30.912 317.6 L 95.939 318.332 Z" opacity="0.17" style="isolation: isolate;"/>
  <polygon points="56.754 262.53 56.754 262.537 43.668 315.943 40.716 315.943 55.998 251.598 56.754 262.53" opacity="0.17" style="isolation: isolate;"/>
  <path d="M 72.812 272.315 L 54.29 131.392 C 54.222 130.863 53.947 130.384 53.526 130.057 L 40.775 114.098 L 39.628 113.216 C 39.204 112.895 38.67 112.752 38.142 112.82 L 36.226 113.077 C 35.125 113.219 34.347 114.226 34.489 115.327 L 53.685 261.342 L 53.685 261.349 L 54.859 270.28 L 56.255 280.885 L 56.255 280.899 L 58.422 297.401 C 58.492 297.973 58.81 298.486 59.29 298.804 C 59.762 299.13 60.353 299.236 60.908 299.096 L 62.124 298.79 C 62.589 298.67 62.998 298.39 63.277 297.998 L 63.819 297.227 L 64.068 296.866 L 72.458 273.739 C 72.753 273.326 72.879 272.817 72.812 272.315 Z" fill="#3f3d56" style=""/>
  <path d="M 40.771 114.098 L 64.071 296.869 L 63.818 297.226 L 63.277 297.995 C 62.999 298.388 62.591 298.669 62.125 298.788 L 60.907 299.094 C 59.739 299.383 58.58 298.593 58.421 297.401 L 34.492 115.33 C 34.348 114.228 35.123 113.219 36.224 113.074 L 38.145 112.821 C 38.672 112.75 39.205 112.893 39.626 113.219 L 40.771 114.098 Z" opacity="0.17" style="isolation: isolate;"/>
  <polygon points="41.458 119.326 53.823 136.974 68.518 248.791 60.551 264.597 41.458 119.326" fill="#426da9" style=""/>
  <polygon points="307.185 497.574 298.705 497.733 322.273 415.865 330.752 418.483 307.185 497.574" fill="#3f3d56" style=""/>
  <path d="M 362.796 497.731 L 354.323 497.571 L 331.07 419.514 L 330.751 418.487 L 336.189 416.806 C 337.266 416.826 338.383 416.841 339.536 416.855 L 340.363 419.528 L 362.796 497.731 Z" fill="#3f3d56" style=""/>
  <path d="M 258.702 465.275 L 247.982 468.989 L 246.301 469.57 L 248.907 475.845 L 238.965 491.231 C 237.189 493.974 239.049 497.611 242.312 497.778 C 242.942 497.809 243.571 497.701 244.154 497.459 L 261.595 490.227 L 262.025 482.775 L 265.772 488.495 L 272.342 485.772 L 261.309 464.374 L 258.702 465.275 Z" fill="#2f2e41" style=""/>
  <path d="M 193.641 235.48 C 195.806 239.696 201.255 240.931 205.026 238.06 L 227.567 253.024 L 227.61 238.965 L 206.198 226.91 C 202.327 222.468 195.098 223.884 193.188 229.458 C 192.507 231.443 192.671 233.619 193.641 235.48 Z" fill="#a0616a" style=""/>
  <path d="M 210.48 241.978 L 220.997 230.014 L 263.818 255.434 L 320.582 250.236 C 332.536 249.141 342.551 259.166 341.445 271.12 C 340.457 281.67 331.114 289.429 320.563 288.463 L 256.633 282.546 L 210.48 241.978 Z" fill="#e6e6e6" style=""/>
  <path d="M 342.228 242.163 L 342.129 242.039 L 315.3 239.391 L 297.173 271.322 C 281.591 290.372 292.913 303.509 293.592 305.462 L 288.183 330.401 L 289.395 338.747 L 290.001 341.226 L 351.741 373.486 L 339.05 331.212 L 351.441 292.66 C 357.021 275.347 353.562 256.39 342.228 242.163 Z" fill="#e6e6e6" style=""/>
  <path d="M 371.623 214.064 C 371.637 214.404 371.644 214.744 371.644 215.077 C 371.618 230.912 356.153 242.115 341.099 237.205 L 336.814 235.809 C 336.779 235.795 336.738 235.788 336.703 235.774 L 329.64 233.468 C 329.617 233.17 329.621 232.87 329.654 232.573 C 319.118 228.072 333.682 213.286 337.3 202.18 C 337.863 200.451 318.521 201.743 319.437 200.264 C 319.235 200.159 319.035 200.055 318.847 199.951 C 325.553 189.368 338.362 184.376 350.461 187.63 C 350.614 187.665 350.774 187.713 350.927 187.756 C 364.65 188.095 371.859 197.659 371.859 210.077 C 371.858 211.409 371.779 212.74 371.623 214.064 Z" fill="#2f2e41" style=""/>
  <path d="M 359.733 218.952 C 355.899 230.695 343.273 237.109 331.529 233.28 C 330.89 233.072 330.265 232.836 329.654 232.573 C 319.014 228.013 313.613 216.089 317.201 205.084 C 317.75 203.393 318.501 201.775 319.437 200.264 C 328.484 185.613 349.998 186.25 358.162 201.409 C 361.063 206.796 361.631 213.136 359.733 218.952 Z" fill="#a0616a" style=""/>
  <path d="M 336.814 235.809 C 336.779 235.795 336.738 235.788 336.703 235.774 L 329.64 233.468 C 329.617 233.17 329.621 232.87 329.654 232.573 C 329.864 230.247 331.496 227.811 333.687 225.183 C 339.787 217.913 336.707 206.785 327.737 203.688 C 327.676 203.667 327.616 203.646 327.556 203.625 C 324.775 202.696 322.061 201.572 319.437 200.264 C 319.236 200.159 319.035 200.055 318.847 199.951 C 317.083 198.978 315.805 198.006 315.243 197.075 C 318.78 186.225 330.444 180.298 341.294 183.838 L 345.391 185.171 C 350.56 186.852 354.853 190.506 357.336 195.339 C 360.226 197.409 362.504 200.451 364.289 204.041 C 373.262 222.058 355.941 241.948 336.814 235.809 Z" fill="#2f2e41" style=""/>
  <path d="M 350.337 344.764 C 350.336 347.265 348.795 349.507 346.461 350.404 C 345.92 350.611 345.351 350.737 344.774 350.778 C 344.621 350.792 344.46 350.799 344.308 350.799 L 332.647 350.799 L 332.647 407.374 C 332.473 407.603 332.293 407.832 332.112 408.062 C 331.112 409.34 330.098 410.617 329.07 411.875 C 328.848 412.152 328.626 412.423 328.411 412.695 C 328.07 413.104 327.737 413.514 327.403 413.917 C 327.285 414.055 327.174 414.187 327.063 414.326 C 326.494 415.007 325.924 415.688 325.341 416.368 L 325.341 416.375 C 325.334 416.382 325.334 416.382 325.334 416.389 L 325.042 416.723 C 324.576 417.271 324.111 417.827 323.632 418.376 C 322.981 418.014 322.406 417.531 321.937 416.952 C 321.647 416.603 321.399 416.221 321.201 415.813 C 321.194 415.805 321.194 415.799 321.187 415.785 C 321.179 415.769 321.172 415.753 321.167 415.736 C 320.777 414.924 320.578 414.033 320.583 413.132 L 320.583 350.799 L 294.441 350.799 C 293.67 350.804 292.906 350.655 292.192 350.361 C 290.365 349.632 289.01 348.055 288.566 346.14 L 288.566 346.133 C 288.24 344.761 288.413 343.318 289.053 342.062 C 289.046 342.056 289.046 342.056 289.053 342.056 C 289.322 341.507 289.682 341.007 290.115 340.577 L 290.115 340.569 C 290.115 340.562 290.115 340.562 290.122 340.555 C 291.259 339.393 292.816 338.737 294.441 338.735 L 344.308 338.735 C 347.636 338.737 350.334 341.436 350.337 344.764 Z" fill="#3f3d56" style=""/>
  <path d="M 383.542 227.997 C 373.281 226.078 363.406 232.841 361.488 243.101 L 361.488 243.102 C 359.827 251.99 364.694 260.81 373.099 264.145 L 367.417 294.532 L 379.276 296.75 L 391.843 229.549 L 383.542 227.997 Z" fill="#3f3d56" style=""/>
  <circle cx="366.469" cy="195.93" r="9.723" fill="#2f2e41" style=""/>
  <path d="M 479.815 223.848 C 475.597 225.255 471.086 225.495 466.639 225.572 C 453.7 225.796 440.434 224.662 428.658 219.297 C 416.881 213.932 406.743 203.735 404.125 191.062 C 402.997 185.6 403.129 179.515 399.688 175.127 C 395.602 169.918 387.393 169.209 381.674 172.542 C 375.955 175.877 372.615 182.364 371.645 188.912 L 369.341 192.657 C 369.395 195.069 372.004 196.672 374.405 196.898 C 376.806 197.124 379.221 196.462 381.626 196.642 C 386.897 197.034 391.194 201.542 392.73 206.599 C 394.267 211.656 393.527 217.126 392.213 222.246 C 390.897 227.365 389.019 232.359 388.269 237.591 C 387.518 242.823 388.027 248.501 391.106 252.798 C 393.416 256.022 396.937 258.16 400.517 259.87 C 437.591 277.582 481.471 255.951 489.999 215.758 C 487.984 219.722 484.034 222.441 479.815 223.848 Z" fill="#2f2e41" style=""/>
  <path d="M 293.137 429.454 L 273.334 429.454 C 271.081 429.452 269.174 427.795 268.857 425.566 C 267.635 416.567 267.635 407.445 268.857 398.446 C 269.17 396.245 271.035 394.597 273.258 394.558 C 279.489 391.765 286.199 391.765 293.205 394.557 C 294.526 394.575 295.772 395.176 296.608 396.198 C 297.48 397.263 297.827 398.663 297.552 400.012 C 295.961 407.929 295.961 416.082 297.552 424 C 297.827 425.348 297.48 426.748 296.608 427.813 C 295.757 428.854 294.482 429.457 293.137 429.454 Z" fill="#426da9" style=""/>
  <path d="M 291.064 404.897 L 274.395 404.897 C 273.593 404.897 273.091 404.029 273.493 403.335 C 273.679 403.012 274.023 402.813 274.395 402.813 L 291.064 402.813 C 291.865 402.813 292.367 403.681 291.965 404.376 C 291.779 404.699 291.435 404.897 291.064 404.897 Z" fill="#fff" style=""/>
  <path d="M 291.064 413.231 L 274.395 413.231 C 273.593 413.231 273.091 412.363 273.493 411.669 C 273.679 411.346 274.023 411.147 274.395 411.147 L 291.064 411.147 C 291.865 411.147 292.367 412.015 291.965 412.71 C 291.779 413.033 291.435 413.231 291.064 413.231 Z" fill="#fff" style=""/>
  <path d="M 291.064 421.565 L 274.395 421.565 C 273.593 421.565 273.091 420.697 273.493 420.003 C 273.679 419.68 274.023 419.481 274.395 419.481 L 291.064 419.481 C 291.865 419.481 292.367 420.35 291.965 421.045 C 291.779 421.367 291.435 421.565 291.064 421.565 Z" fill="#fff" style=""/>
  <path d="M 56.491 208.708 L 56.491 208.707 C 56.535 208.355 56.851 208.102 57.203 208.138 L 164.353 208.423 C 164.705 208.39 165.019 208.644 165.061 208.994 L 165.061 208.996 C 165.017 209.347 164.701 209.6 164.349 209.565 L 57.199 209.28 C 56.846 209.313 56.533 209.059 56.491 208.708 Z" fill="#3f3d56" style=""/>
  <path d="M 84.826 274.702 L 80.276 279.706 C 79.845 280.067 79.244 280.146 78.734 279.906 C 77.98 279.638 77.309 279.178 76.787 278.571 C 73.536 274.88 69.885 271.562 65.903 268.675 C 65.249 268.214 64.727 267.59 64.39 266.863 C 64.11 266.387 64.123 265.794 64.424 265.331 C 64.469 262.593 66.011 260.897 69.009 260.288 C 69.534 259.741 70.721 259.949 71.785 260.779 C 76.162 264.193 80.275 267.933 84.089 271.966 C 85.026 272.957 85.343 274.133 84.826 274.702 Z" fill="#426da9" style=""/>
  <path d="M 73.133 263.93 L 69.303 268.142 C 69.171 268.288 68.852 268.212 68.591 267.975 C 68.33 267.738 68.226 267.428 68.358 267.283 L 72.187 263.07 C 72.319 262.925 72.639 263 72.9 263.237 C 73.161 263.475 73.265 263.784 73.133 263.93 Z" fill="#fff" style=""/>
  <path d="M 76.914 267.368 L 73.084 271.58 C 72.953 271.726 72.634 271.651 72.373 271.413 C 72.112 271.176 72.007 270.866 72.14 270.721 L 75.969 266.508 C 76.101 266.363 76.42 266.438 76.681 266.675 C 76.942 266.913 77.046 267.222 76.914 267.368 Z" fill="#fff" style=""/>
  <path d="M 80.696 270.806 L 76.867 275.018 C 76.734 275.164 76.415 275.089 76.154 274.851 C 75.893 274.614 75.789 274.304 75.921 274.159 L 79.751 269.946 C 79.883 269.801 80.201 269.876 80.462 270.114 C 80.724 270.351 80.828 270.661 80.696 270.806 Z" fill="#fff" style=""/>
  <path d="M 497.613 498.76 C 497.615 499.564 497.306 500.219 496.928 500.216 L 0.373 500.216 C -0.154 500.216 -0.483 499.003 -0.221 498.032 C -0.098 497.583 0.129 497.305 0.373 497.305 L 496.928 497.305 C 497.306 497.301 497.615 497.955 497.613 498.76 Z" fill="#ccc" style=""/>
  <path d="M 298.94 404.139 C 303.02 401.728 303.931 396.214 300.841 392.621 L 314.44 369.231 L 300.403 370.023 L 289.641 392.112 C 285.437 396.24 287.278 403.373 292.955 404.949 C 294.977 405.511 297.141 405.218 298.94 404.139 Z" fill="#a0616a" style=""/>
  <path d="M 304.427 386.943 L 291.861 377.155 L 314.696 332.902 L 306.14 276.546 C 304.338 264.678 313.75 254.086 325.749 254.481 C 336.339 254.842 344.638 263.707 344.3 274.297 L 342.187 338.466 L 304.427 386.943 Z" fill="#e6e6e6" style=""/>
  <path d="M 195.442 247.502 L 153.008 247.502 C 150.639 247.499 148.72 245.581 148.718 243.212 L 148.718 187.023 C 148.72 184.656 150.639 182.737 153.008 182.734 L 195.442 182.734 C 197.81 182.737 199.729 184.656 199.732 187.023 L 199.732 243.212 C 199.729 245.581 197.81 247.499 195.442 247.502 Z" fill="#e6e6e6" style=""/>
  <path d="M 192.46 243.927 L 155.99 243.927 C 153.888 243.924 152.184 242.22 152.181 240.118 L 152.181 190.118 C 152.184 188.015 153.888 186.312 155.99 186.309 L 192.46 186.309 C 194.562 186.312 196.266 188.015 196.268 190.118 L 196.268 240.118 C 196.266 242.22 194.562 243.924 192.46 243.927 Z" fill="#fff" style=""/>
  <path d="M 188.822 195.811 L 159.628 195.811 C 158.895 195.813 158.435 195.021 158.8 194.386 C 158.97 194.088 159.286 193.906 159.628 193.907 L 188.822 193.907 C 189.554 193.905 190.014 194.697 189.65 195.333 C 189.48 195.63 189.163 195.812 188.822 195.811 Z" fill="#426da9" style=""/>
  <path d="M 188.822 199.574 L 159.628 199.574 C 158.895 199.574 158.437 198.78 158.803 198.145 C 158.973 197.85 159.288 197.669 159.628 197.669 L 188.822 197.669 C 189.554 197.669 190.013 198.462 189.646 199.098 C 189.476 199.392 189.161 199.574 188.822 199.574 Z" fill="#426da9" style=""/>
  <path d="M 172.283 203.335 L 159.628 203.335 C 158.895 203.335 158.437 202.542 158.803 201.908 C 158.973 201.613 159.288 201.432 159.628 201.432 L 172.283 201.432 C 173.015 201.432 173.474 202.225 173.107 202.86 C 172.938 203.154 172.623 203.335 172.283 203.335 Z" fill="#426da9" style=""/>
  <path d="M 188.822 211.215 L 159.628 211.215 C 158.895 211.217 158.435 210.425 158.8 209.789 C 158.97 209.492 159.286 209.31 159.628 209.311 L 188.822 209.311 C 189.554 209.309 190.014 210.101 189.65 210.737 C 189.48 211.033 189.163 211.216 188.822 211.215 Z" fill="#e4e4e4" style=""/>
  <path d="M 188.822 214.977 L 159.628 214.977 C 158.895 214.979 158.435 214.186 158.8 213.551 C 158.97 213.255 159.286 213.072 159.628 213.073 L 188.822 213.073 C 189.554 213.071 190.014 213.863 189.65 214.499 C 189.48 214.795 189.163 214.978 188.822 214.977 Z" fill="#e4e4e4" style=""/>
  <path d="M 172.283 218.739 L 159.628 218.739 C 158.895 218.739 158.437 217.946 158.803 217.311 C 158.973 217.017 159.288 216.835 159.628 216.835 L 172.283 216.835 C 173.015 216.835 173.474 217.629 173.107 218.263 C 172.938 218.558 172.623 218.739 172.283 218.739 Z" fill="#e4e4e4" style=""/>
  <path d="M 188.822 226.618 L 159.628 226.618 C 158.895 226.618 158.437 225.825 158.803 225.191 C 158.973 224.896 159.288 224.715 159.628 224.715 L 188.822 224.715 C 189.554 224.715 190.013 225.508 189.646 226.142 C 189.476 226.437 189.161 226.618 188.822 226.618 Z" fill="#e4e4e4" style=""/>
  <path d="M 188.822 230.381 L 159.628 230.381 C 158.895 230.381 158.437 229.588 158.803 228.952 C 158.973 228.658 159.288 228.476 159.628 228.476 L 188.822 228.476 C 189.554 228.476 190.013 229.27 189.646 229.905 C 189.476 230.2 189.161 230.381 188.822 230.381 Z" fill="#e4e4e4" style=""/>
  <path d="M 172.283 234.143 L 159.628 234.143 C 158.895 234.143 158.437 233.349 158.803 232.715 C 158.973 232.42 159.288 232.239 159.628 232.239 L 172.283 232.239 C 173.015 232.239 173.474 233.033 173.107 233.667 C 172.938 233.962 172.623 234.143 172.283 234.143 Z" fill="#e4e4e4" style=""/>
  <polygon points="51.038 172.635 164.88 75.262 165.06 75.262 165.06 76.692 165.408 76.692 51.969 173.721 51.038 172.635" fill="#2f2e41" style=""/>
  <path d="M 129.637 284.46 L 77.293 284.46 C 75.59 284.462 74.211 285.842 74.209 287.544 L 74.209 320.133 C 74.211 321.837 75.59 323.217 77.293 323.218 L 129.637 323.218 C 131.34 323.217 132.72 321.837 132.722 320.133 L 132.722 287.544 C 132.72 285.842 131.34 284.462 129.637 284.46 Z" fill="#fff" style=""/>
  <path d="M 129.637 284.46 L 77.293 284.46 C 75.59 284.462 74.211 285.842 74.209 287.544 L 74.209 320.133 C 74.211 321.837 75.59 323.217 77.293 323.218 L 129.637 323.218 C 131.34 323.217 132.72 321.837 132.722 320.133 L 132.722 287.544 C 132.72 285.842 131.34 284.462 129.637 284.46 Z M 130.649 307.87 C 130.624 314.77 125.083 320.384 118.183 320.5 C 112.872 320.569 121.122 320.596 114.716 320.596 C 100.067 320.596 84.794 320.456 79.095 320.365 C 77.535 320.333 76.287 319.063 76.281 317.503 L 76.281 287.547 C 76.282 286.988 76.734 286.535 77.293 286.532 L 129.635 286.532 C 130.194 286.533 130.647 286.985 130.649 287.544 L 130.649 307.87 Z" fill="#cacaca" style=""/>
  <path d="M 122.732 305.26 L 82.852 305.26 C 82.128 305.259 81.484 304.804 81.24 304.124 L 75.08 286.844 C 74.684 285.731 75.509 284.56 76.69 284.558 L 130.176 284.464 L 130.179 284.464 C 131.407 284.464 132.235 285.719 131.751 286.848 L 131.658 286.808 L 131.751 286.848 L 124.304 304.223 C 124.035 304.852 123.417 305.261 122.732 305.26 Z" fill="#cacaca" style=""/>
  <circle cx="103.435" cy="305.26" r="4.262" fill="#3f3d56" style=""/>
  <path d="M 491.306 451.007 C 490.711 455.381 487.737 459.329 483.913 461.907 C 483.002 462.524 482.04 463.061 481.038 463.516 C 479.937 464.013 478.801 464.43 477.639 464.762 C 472.543 466.252 467.036 466.316 461.677 466.346 C 456.259 466.38 450.844 466.415 445.428 466.45 C 441.158 466.474 436.749 466.474 432.806 464.837 C 432.747 464.815 432.689 464.79 432.632 464.762 C 428.759 463.09 425.458 459.414 425.552 455.208 C 425.59 453.726 426.01 452.279 426.769 451.007 C 427.272 450.152 427.878 449.361 428.57 448.652 C 430.718 446.425 433.696 444.679 436.487 443.273 C 441.088 440.963 446.288 437.965 447.635 433.214 C 447.776 432.714 447.873 432.203 447.921 431.686 C 448.238 428.42 446.65 425.416 444.626 422.73 C 444.428 422.463 444.221 422.195 444.008 421.928 C 443.553 421.359 443.083 420.8 442.618 420.266 C 442.42 420.038 442.222 419.805 442.019 419.573 C 440.149 417.405 438.263 415.09 437.279 412.503 C 436.854 411.419 436.619 410.271 436.581 409.108 C 436.472 404.908 441.168 400.677 444.72 402.661 C 446.462 402.493 448.204 402.319 449.945 402.141 C 452.083 401.928 454.211 401.716 456.343 401.498 L 456.349 401.498 C 456.828 401.458 457.298 401.409 457.768 401.359 C 462.207 400.919 466.641 400.476 471.072 400.029 C 473.043 399.836 475.358 399.762 476.64 401.276 C 478.035 402.928 477.312 405.541 475.932 407.209 C 474.552 408.871 472.636 410.048 471.34 411.77 C 469.663 413.996 469.272 416.812 469.752 419.573 C 469.891 420.374 470.099 421.163 470.375 421.928 C 470.86 423.295 471.531 424.589 472.369 425.773 C 475.279 429.849 479.588 432.66 483.413 435.891 C 487.243 439.126 490.825 443.234 491.35 448.212 C 491.365 448.355 491.379 448.503 491.384 448.652 C 491.44 449.438 491.413 450.227 491.306 451.007 Z" fill="#e6e6e6" style="" transform="matrix(1, 0, 0, 1, -2.5872997855192814, 28.69931319743236)"/>
  <path d="M 460.188 405.701 C 456.328 401.887 453.039 397.534 450.425 392.778 C 447.819 388.047 445.894 382.971 444.707 377.701 C 443.504 372.352 443.105 366.854 443.525 361.388 C 444.395 350.256 448.508 339.623 455.357 330.804 C 455.775 330.267 456.203 329.739 456.641 329.219 C 457.13 328.638 457.96 329.475 457.474 330.052 C 450.486 338.433 446.108 348.678 444.881 359.52 C 443.084 376.305 449.025 392.994 461.023 404.868 C 461.563 405.401 460.73 406.236 460.188 405.701 Z" fill="#e6e6e6" style="" transform="matrix(1, 0, 0, 1, -2.5872997855192814, 28.69931319743236)"/>
  <path d="M 454.881 331.804 C 455.359 331.626 455.826 331.423 456.281 331.194 C 456.305 331.23 456.327 331.265 456.35 331.301 L 454.881 331.804 Z" fill="#e6e6e6" style="" transform="matrix(1, 0, 0, 1, -2.5872997855192814, 28.69931319743236)"/>
  <path d="M 463.983 321.406 C 463.79 322.486 463.441 323.533 462.948 324.513 C 461.588 327.247 459.42 329.495 456.739 330.955 C 456.591 331.035 456.437 331.119 456.283 331.194 C 456.101 330.906 455.912 330.619 455.735 330.332 C 454.472 328.452 453.538 326.371 452.973 324.176 C 452.4 321.6 452.712 318.705 454.364 316.641 C 456.011 314.578 459.159 313.653 461.439 314.989 C 462.098 315.382 462.656 315.922 463.073 316.567 C 462.844 316.849 462.617 317.126 462.389 317.408 C 462.369 317.435 462.347 317.46 462.325 317.482 C 462.128 317.73 461.924 317.972 461.726 318.22 C 460.9 319.234 460.079 320.253 459.252 321.263 C 460.417 321.476 461.602 321.558 462.785 321.505 C 462.879 321.5 462.978 321.495 463.073 321.49 C 463.374 321.47 463.68 321.446 463.983 321.406 Z" fill="#e6e6e6" style="" transform="matrix(1, 0, 0, 1, -2.5872997855192814, 28.69931319743236)"/>
  <path d="M 447.294 341.697 L 446.977 345.824 L 446.892 346.942 C 446.804 346.898 446.71 346.854 446.621 346.808 C 440.394 343.719 435.802 338.094 434.017 331.375 C 433.724 330.225 433.517 329.051 433.399 327.869 C 435.003 327.62 436.611 327.368 438.214 327.12 C 436.916 325.433 435.29 324.024 433.434 322.98 C 433.857 318.85 435.349 314.902 437.764 311.526 C 438.179 318.442 445.423 322.841 448.076 329.239 C 449.723 333.294 449.435 337.88 447.294 341.697 Z" fill="#e6e6e6" style="" transform="matrix(1, 0, 0, 1, -2.5872997855192814, 28.69931319743236)"/>
  <path d="M 445.917 377.941 C 445.532 377.961 445.146 377.971 444.765 377.966 C 438.11 377.924 431.767 375.14 427.23 370.273 C 425.412 368.281 423.951 365.993 422.91 363.508 C 422.945 363.503 422.975 363.499 423.009 363.494 C 424.612 363.246 426.221 362.993 427.823 362.745 C 426.121 360.528 423.857 358.803 421.268 357.748 C 420.917 355.512 420.89 353.238 421.188 350.995 C 424.81 356.898 433.276 357.372 438.624 361.766 C 441.175 363.893 442.915 366.835 443.548 370.094 C 443.706 370.9 443.79 371.717 443.8 372.538 C 443.806 372.736 443.806 372.929 443.8 373.122 L 443.919 373.389 L 445.917 377.941 Z" fill="#e6e6e6" style="" transform="matrix(1, 0, 0, 1, -2.5872997855192814, 28.69931319743236)"/>
  <path d="M 461.83 384.774 C 460.806 386.031 459.782 387.298 458.758 388.555 C 460.018 388.786 461.3 388.862 462.578 388.782 C 461.443 392.847 459.264 396.542 456.259 399.504 C 455.977 399.781 455.685 400.054 455.388 400.31 C 455.329 400.364 455.264 400.42 455.206 400.474 L 454.938 399.717 L 454.933 399.713 L 453.419 395.521 C 451.498 393.59 450.168 391.151 449.584 388.49 L 449.584 388.48 C 449.23 386.922 449.148 385.315 449.342 383.73 C 450.188 376.858 455.997 370.677 454.552 363.904 C 457.735 366.482 460.205 369.833 461.726 373.637 C 460.9 374.651 460.079 375.67 459.252 376.679 C 460.417 376.894 461.602 376.975 462.785 376.921 C 463.2 378.597 463.425 380.313 463.458 382.038 C 463.463 382.285 463.463 382.527 463.458 382.775 C 462.939 383.418 462.414 384.057 461.894 384.7 C 461.874 384.726 461.853 384.75 461.83 384.774 Z" fill="#e6e6e6" style="" transform="matrix(1, 0, 0, 1, -2.5872997855192814, 28.69931319743236)"/>
  <path d="M 201.693 98.876 L 159.258 98.876 C 156.89 98.873 154.971 96.954 154.968 94.587 L 154.968 55.76 C 154.971 53.393 156.89 51.474 159.258 51.471 L 201.693 51.471 C 204.061 51.474 205.98 53.393 205.982 55.76 L 205.982 94.587 C 205.98 96.954 204.061 98.873 201.693 98.876 Z" fill="#e6e6e6" style=""/>
  <path d="M 198.71 95.301 L 162.241 95.301 C 160.138 95.299 158.434 93.595 158.432 91.493 L 158.432 58.855 C 158.434 56.752 160.138 55.049 162.241 55.046 L 198.71 55.046 C 200.812 55.049 202.516 56.752 202.519 58.855 L 202.519 91.493 C 202.516 93.595 200.812 95.299 198.71 95.301 Z" fill="#fff" style=""/>
  <path d="M 195.072 64.548 L 165.878 64.548 C 165.146 64.55 164.686 63.758 165.05 63.122 C 165.22 62.825 165.537 62.643 165.878 62.644 L 195.072 62.644 C 195.805 62.642 196.265 63.434 195.9 64.07 C 195.73 64.367 195.414 64.549 195.072 64.548 Z" fill="#426da9" style=""/>
  <path d="M 195.072 68.311 L 165.878 68.311 C 165.146 68.311 164.688 67.517 165.054 66.882 C 165.225 66.587 165.539 66.406 165.878 66.406 L 195.072 66.406 C 195.805 66.406 196.263 67.199 195.897 67.834 C 195.727 68.128 195.412 68.311 195.072 68.311 Z" fill="#426da9" style=""/>
  <path d="M 178.533 72.072 L 165.878 72.072 C 165.146 72.072 164.688 71.279 165.054 70.645 C 165.225 70.35 165.539 70.169 165.878 70.169 L 178.533 70.169 C 179.266 70.169 179.724 70.961 179.358 71.596 C 179.188 71.891 178.873 72.072 178.533 72.072 Z" fill="#426da9" style=""/>
  <path d="M 195.072 79.952 L 165.878 79.952 C 165.146 79.953 164.686 79.162 165.05 78.526 C 165.22 78.229 165.537 78.047 165.878 78.048 L 195.072 78.048 C 195.805 78.046 196.265 78.838 195.9 79.474 C 195.73 79.77 195.414 79.953 195.072 79.952 Z" fill="#e4e4e4" style=""/>
  <path d="M 195.072 83.714 L 165.878 83.714 C 165.146 83.716 164.686 82.923 165.05 82.288 C 165.22 81.992 165.537 81.809 165.878 81.81 L 195.072 81.81 C 195.805 81.808 196.266 82.6 195.9 83.236 C 195.73 83.532 195.414 83.715 195.072 83.714 Z" fill="#e4e4e4" style=""/>
  <path d="M 178.533 87.476 L 165.878 87.476 C 165.146 87.476 164.688 86.683 165.054 86.048 C 165.225 85.754 165.539 85.572 165.878 85.572 L 178.533 85.572 C 179.266 85.572 179.724 86.365 179.358 87 C 179.188 87.295 178.873 87.476 178.533 87.476 Z" fill="#e4e4e4" style=""/>
</svg>